<svg width="102" height="122" viewBox="0 0 102 122" fill="none" xmlns="http://www.w3.org/2000/svg">
<rect x="0.430908" y="0.288818" width="100.692" height="120.831" rx="5.0346" fill="url(#paint0_linear_81_1458)"/>
<mask id="mask0_81_1458" style="mask-type:alpha" maskUnits="userSpaceOnUse" x="0" y="0" width="102" height="122">
<rect x="0.430908" y="0.288818" width="100.692" height="120.831" rx="5.0346" fill="url(#paint1_linear_81_1458)"/>
</mask>
<g mask="url(#mask0_81_1458)">
<path d="M132.276 30.6756L106.797 38.0856L132.276 45.4924L105.743 45.4174L128.104 59.7128L102.669 52.1592L120.101 72.1782L97.8208 57.758L108.913 81.8802L91.5932 61.7643L95.4434 88.0348L84.4888 63.8502L80.7884 90.1457L77.088 63.8502L66.1334 88.0348L69.9836 61.7643L52.6672 81.8802L63.7559 57.758L41.4755 72.1782L58.9074 52.1592L33.4726 59.7128L55.8341 45.4174L29.301 45.4924L54.7795 38.0856L29.301 30.6756L55.8341 30.7505L33.4726 16.4584L58.9074 24.012L41.4755 3.99289L63.7559 18.4131L52.6672 -5.70906L69.9836 14.4068L66.1334 -11.8668L77.088 12.3209L80.7884 -13.9746L84.4888 12.3209L95.4434 -11.8668L91.5932 14.4068L108.913 -5.70906L97.8208 18.4131L120.101 3.99289L102.669 24.012L128.104 16.4584L105.743 30.7505L132.276 30.6756Z" fill="#99D1F9"/>
<path d="M51.096 108.767L30.9863 114.615L51.096 120.461L30.154 120.402L47.8035 131.685L27.7283 125.723L41.4869 141.524L23.9014 130.142L32.656 149.182L18.9861 133.305L22.0249 154.039L13.3787 134.951L10.458 155.705L7.53739 134.951L-1.10883 154.039L1.93003 133.305L-11.7375 149.182L-2.98534 130.142L-20.5708 141.524L-6.81224 125.723L-26.8874 131.685L-9.23791 120.402L-30.1799 120.461L-10.0703 114.615L-30.1799 108.767L-9.23791 108.826L-26.8874 97.5454L-6.81224 103.507L-20.5708 87.7067L-2.98534 99.0883L-11.7375 80.0491L1.93003 95.9262L-1.10883 75.1889L7.53739 94.2798L10.458 73.5253L13.3787 94.2798L22.0249 75.1889L18.9861 95.9262L32.656 80.0491L23.9014 99.0883L41.4869 87.7067L27.7283 103.507L47.8035 97.5454L30.154 108.826L51.096 108.767Z" fill="#F79FC4"/>
</g>
<defs>
<linearGradient id="paint0_linear_81_1458" x1="50.777" y1="0.288818" x2="50.777" y2="121.119" gradientUnits="userSpaceOnUse">
<stop stop-color="#8794D6"/>
<stop offset="1" stop-color="#42ACE8" stop-opacity="0.65"/>
</linearGradient>
<linearGradient id="paint1_linear_81_1458" x1="50.777" y1="0.288818" x2="50.777" y2="121.119" gradientUnits="userSpaceOnUse">
<stop stop-color="#8794D6"/>
<stop offset="1" stop-color="#42ACE8" stop-opacity="0.65"/>
</linearGradient>
</defs>
</svg>
