<svg width="100" height="120" viewBox="0 0 100 120" fill="none" xmlns="http://www.w3.org/2000/svg">
<rect width="100" height="120" rx="5" fill="url(#paint0_linear_19_52)"/>
<mask id="mask0_19_52" style="mask-type:alpha" maskUnits="userSpaceOnUse" x="0" y="0" width="100" height="120">
<rect width="100" height="120" rx="5" fill="url(#paint1_linear_19_52)"/>
</mask>
<g mask="url(#mask0_19_52)">
<path d="M105.353 52.0338L77.9614 60L105.353 67.9629L76.8276 67.8823L100.868 83.2508L73.5237 75.1301L92.2641 96.652L68.3111 81.1493L80.2356 107.082L61.6159 85.4564L65.7551 113.699L53.9782 87.6988L50 115.968L46.0218 87.6988L34.2449 113.699L38.3841 85.4564L19.7678 107.082L31.6889 81.1493L7.73591 96.652L26.4763 75.1301L-0.867851 83.2508L23.1724 67.8823L-5.35254 67.9629L22.0386 60L-5.35254 52.0338L23.1724 52.1144L-0.867851 36.7493L26.4763 44.8699L7.73591 23.348L31.6889 38.8508L19.7678 12.9177L38.3841 34.5437L34.2449 6.29767L46.0218 32.3012L50 4.03168L53.9782 32.3012L65.7551 6.29767L61.6159 34.5437L80.2356 12.9177L68.3111 38.8508L92.2641 23.348L73.5237 44.8699L100.868 36.7493L76.8276 52.1144L105.353 52.0338Z" fill="#FF9FC2"/>
</g>
<defs>
<linearGradient id="paint0_linear_19_52" x1="50" y1="0" x2="50" y2="120" gradientUnits="userSpaceOnUse">
<stop stop-color="#8794D6"/>
<stop offset="1" stop-color="#42ACE8" stop-opacity="0.65"/>
</linearGradient>
<linearGradient id="paint1_linear_19_52" x1="50" y1="0" x2="50" y2="120" gradientUnits="userSpaceOnUse">
<stop stop-color="#8794D6"/>
<stop offset="1" stop-color="#42ACE8" stop-opacity="0.65"/>
</linearGradient>
</defs>
</svg>
