<svg width="100" height="120" viewBox="0 0 100 120" fill="none" xmlns="http://www.w3.org/2000/svg">
<rect width="100" height="120" rx="5" fill="url(#paint0_linear_19_57)"/>
<mask id="mask0_19_57" style="mask-type:alpha" maskUnits="userSpaceOnUse" x="0" y="0" width="100" height="120">
<rect width="100" height="120" rx="5" fill="url(#paint1_linear_19_57)"/>
</mask>
<g mask="url(#mask0_19_57)">
<path d="M108 21.3061L91.4225 26.1273L108 30.9466L90.7363 30.8978L105.286 40.199L88.7367 35.2843L100.079 48.3095L85.582 38.9271L92.7989 54.6221L81.53 41.5338L84.0351 58.6266L76.9076 42.891L74.5 60L72.0923 42.891L64.9648 58.6266L67.4699 41.5338L56.2031 54.6221L63.4179 38.9271L48.9213 48.3095L60.2632 35.2843L43.7142 40.199L58.2636 30.8978L41 30.9466L57.5774 26.1273L41 21.3061L58.2636 21.3549L43.7142 12.0557L60.2632 16.9704L48.9213 3.94515L63.4179 13.3276L56.2031 -2.36737L67.4699 10.7209L64.9648 -6.3739L72.0923 9.36372L74.5 -7.7453L76.9076 9.36372L84.0351 -6.3739L81.53 10.7209L92.7989 -2.36737L85.582 13.3276L100.079 3.94515L88.7367 16.9704L105.286 12.0557L90.7363 21.3549L108 21.3061Z" fill="#9BD5FB"/>
<path d="M37.9999 81.5418L25.7077 85.1168L37.9999 88.6902L25.1989 88.6541L35.9873 95.5509L23.7161 91.9067L32.1262 101.565L21.3769 94.6079L26.7282 106.246L18.3723 96.5407L20.2299 109.215L14.9448 97.5471L13.1595 110.234L11.3742 97.5471L6.08912 109.215L7.94666 96.5407L-0.407741 106.246L4.94208 94.6079L-5.80724 101.565L2.60285 91.9067L-9.66833 95.5509L1.12013 88.6541L-11.6809 88.6902L0.611346 85.1168L-11.6809 81.5418L1.12013 81.5779L-9.66833 74.6826L2.60285 78.3269L-5.80724 68.6685L4.94208 75.6257L-0.407741 63.9878L7.94666 73.6928L6.08912 61.0169L11.3742 72.6864L13.1595 60L14.9448 72.6864L20.2299 61.0169L18.3723 73.6928L26.7282 63.9878L21.3769 75.6257L32.1262 68.6685L23.7161 78.3269L35.9873 74.6826L25.1989 81.5779L37.9999 81.5418Z" fill="#9BD5FB"/>
</g>
<defs>
<linearGradient id="paint0_linear_19_57" x1="50" y1="0" x2="50" y2="120" gradientUnits="userSpaceOnUse">
<stop stop-color="#8794D6"/>
<stop offset="1" stop-color="#42ACE8" stop-opacity="0.65"/>
</linearGradient>
<linearGradient id="paint1_linear_19_57" x1="50" y1="0" x2="50" y2="120" gradientUnits="userSpaceOnUse">
<stop stop-color="#8794D6"/>
<stop offset="1" stop-color="#42ACE8" stop-opacity="0.65"/>
</linearGradient>
</defs>
</svg>
