<svg width="102" height="122" viewBox="0 0 102 122" fill="none" xmlns="http://www.w3.org/2000/svg">
<rect x="0.430908" y="0.288818" width="100.692" height="120.831" rx="5.0346" fill="url(#paint0_linear_81_1464)"/>
<mask id="mask0_81_1464" style="mask-type:alpha" maskUnits="userSpaceOnUse" x="0" y="0" width="102" height="122">
<rect x="0.431152" y="0.288818" width="100.692" height="120.831" rx="5.0346" fill="url(#paint1_linear_81_1464)"/>
</mask>
<g mask="url(#mask0_81_1464)">
<path d="M101 70.5337L73.6089 78.5L101 86.4628L72.4751 86.3823L96.5153 101.751L69.1711 93.6301L87.9116 115.152L63.9586 99.6492L75.8831 125.582L57.2634 103.956L61.4026 132.199L49.6257 106.199L45.6475 134.468L41.6693 106.199L29.8924 132.199L34.0316 103.956L15.4152 125.582L27.3364 99.6492L3.38337 115.152L22.1238 93.6301L-5.22039 101.751L18.8198 86.3823L-9.70508 86.4628L17.6861 78.5L-9.70508 70.5337L18.8198 70.6143L-5.22039 55.2492L22.1238 63.3698L3.38337 41.8479L27.3364 57.3507L15.4152 31.4177L34.0316 53.0436L29.8924 24.7976L41.6693 50.8011L45.6475 22.5316L49.6257 50.8011L61.4026 24.7976L57.2634 53.0436L75.8831 31.4177L63.9586 57.3507L87.9116 41.8479L69.1711 63.3698L96.5153 55.2492L72.4751 70.6143L101 70.5337Z" fill="#A1DBCB"/>
</g>
<defs>
<linearGradient id="paint0_linear_81_1464" x1="50.777" y1="0.288818" x2="50.777" y2="121.119" gradientUnits="userSpaceOnUse">
<stop stop-color="#8794D6"/>
<stop offset="1" stop-color="#42ACE8" stop-opacity="0.65"/>
</linearGradient>
<linearGradient id="paint1_linear_81_1464" x1="50.7772" y1="0.288818" x2="50.7772" y2="121.119" gradientUnits="userSpaceOnUse">
<stop stop-color="#8794D6"/>
<stop offset="1" stop-color="#42ACE8" stop-opacity="0.65"/>
</linearGradient>
</defs>
</svg>
