<svg width="100" height="120" viewBox="0 0 100 120" fill="none" xmlns="http://www.w3.org/2000/svg">
<rect width="100" height="120" rx="5" fill="url(#paint0_linear_19_62)"/>
<mask id="mask0_19_62" style="mask-type:alpha" maskUnits="userSpaceOnUse" x="0" y="0" width="100" height="120">
<rect width="100" height="120" rx="5" fill="url(#paint1_linear_19_62)"/>
</mask>
<g mask="url(#mask0_19_62)">
<path d="M71.5 18.7321L46.5101 26L71.5 33.2648L45.4758 33.1913L67.4085 47.2124L42.4614 39.8037L59.559 59.4389L37.7058 45.2952L48.585 68.9548L31.5976 49.2247L35.3739 74.9914L24.6294 51.2706L21 77.0618L17.3706 51.2706L6.62608 74.9914L10.4024 49.2247L-6.5819 68.9548L4.29418 45.2952L-17.559 59.4389L-0.461426 39.8037L-25.4085 47.2124L-3.47576 33.1913L-29.5 33.2648L-4.51012 26L-29.5 18.7321L-3.47576 18.8056L-25.4085 4.78753L-0.461426 12.1963L-17.559 -7.43889L4.29418 6.70479L-6.5819 -16.9548L10.4024 2.77532L6.62608 -22.9945L17.3706 0.729411L21 -25.0618L24.6294 0.729411L35.3739 -22.9945L31.5976 2.77532L48.585 -16.9548L37.7058 6.70479L59.559 -7.43889L42.4614 12.1963L67.4085 4.78753L45.4758 18.8056L71.5 18.7321Z" fill="#FF9FC2"/>
<path d="M150.5 97.7321L125.51 105L150.5 112.265L124.476 112.191L146.408 126.212L121.461 118.804L138.559 138.439L116.706 124.295L127.585 147.955L110.598 128.225L114.374 153.991L103.629 130.271L100 156.062L96.3706 130.271L85.6261 153.991L89.4024 128.225L72.4181 147.955L83.2942 124.295L61.441 138.439L78.5386 118.804L53.5915 126.212L75.5242 112.191L49.5 112.265L74.4899 105L49.5 97.7321L75.5242 97.8056L53.5915 83.7875L78.5386 91.1963L61.441 71.5611L83.2942 85.7048L72.4181 62.0452L89.4024 81.7753L85.6261 56.0055L96.3706 79.7294L100 53.9382L103.629 79.7294L114.374 56.0055L110.598 81.7753L127.585 62.0452L116.706 85.7048L138.559 71.5611L121.461 91.1963L146.408 83.7875L124.476 97.8056L150.5 97.7321Z" fill="#FF9FC2"/>
</g>
<defs>
<linearGradient id="paint0_linear_19_62" x1="50" y1="0" x2="50" y2="120" gradientUnits="userSpaceOnUse">
<stop stop-color="#8794D6"/>
<stop offset="1" stop-color="#42ACE8" stop-opacity="0.65"/>
</linearGradient>
<linearGradient id="paint1_linear_19_62" x1="50" y1="0" x2="50" y2="120" gradientUnits="userSpaceOnUse">
<stop stop-color="#8794D6"/>
<stop offset="1" stop-color="#42ACE8" stop-opacity="0.65"/>
</linearGradient>
</defs>
</svg>
