<svg width="100" height="120" viewBox="0 0 100 120" fill="none" xmlns="http://www.w3.org/2000/svg">
<rect width="100" height="120" rx="5" fill="url(#paint0_linear_81_1192)"/>
<mask id="mask0_81_1192" style="mask-type:alpha" maskUnits="userSpaceOnUse" x="0" y="0" width="100" height="120">
<rect width="100" height="120" rx="5" fill="url(#paint1_linear_81_1192)"/>
</mask>
<g mask="url(#mask0_81_1192)">
<path d="M105.353 52.0337L77.9614 60L105.353 67.9628L76.8276 67.8823L100.868 83.2507L73.5237 75.1301L92.2641 96.652L68.3111 81.1492L80.2356 107.082L61.6159 85.4563L65.7551 113.699L53.9782 87.6988L50 115.968L46.0218 87.6988L34.2449 113.699L38.3841 85.4563L19.7678 107.082L31.6889 81.1492L7.73591 96.652L26.4763 75.1301L-0.867851 83.2507L23.1724 67.8823L-5.35254 67.9628L22.0386 60L-5.35254 52.0337L23.1724 52.1143L-0.867851 36.7492L26.4763 44.8698L7.73591 23.3479L31.6889 38.8507L19.7678 12.9177L38.3841 34.5436L34.2449 6.29761L46.0218 32.3011L50 4.03162L53.9782 32.3011L65.7551 6.29761L61.6159 34.5436L80.2356 12.9177L68.3111 38.8507L92.2641 23.3479L73.5237 44.8698L100.868 36.7492L76.8276 52.1143L105.353 52.0337Z" fill="#FF9FC2"/>
</g>
<defs>
<linearGradient id="paint0_linear_81_1192" x1="50" y1="0" x2="50" y2="120" gradientUnits="userSpaceOnUse">
<stop stop-color="#8794D6"/>
<stop offset="1" stop-color="#42ACE8" stop-opacity="0.65"/>
</linearGradient>
<linearGradient id="paint1_linear_81_1192" x1="50" y1="0" x2="50" y2="120" gradientUnits="userSpaceOnUse">
<stop stop-color="#8794D6"/>
<stop offset="1" stop-color="#42ACE8" stop-opacity="0.65"/>
</linearGradient>
</defs>
</svg>
