<svg width="102" height="122" viewBox="0 0 102 122" fill="none" xmlns="http://www.w3.org/2000/svg">
<rect x="0.430908" y="0.288818" width="100.692" height="120.831" rx="5.0346" fill="url(#paint0_linear_81_1447)"/>
<mask id="mask0_81_1447" style="mask-type:alpha" maskUnits="userSpaceOnUse" x="0" y="0" width="102" height="122">
<rect x="0.430908" y="0.288818" width="100.692" height="120.831" rx="5.0346" fill="url(#paint1_linear_81_1447)"/>
</mask>
<g mask="url(#mask0_81_1447)">
<path d="M106.192 -6.26793L81.2023 0.999923L106.192 8.26472L80.1679 8.19121L102.101 22.2124L77.1536 14.8036L94.2511 34.4388L72.398 20.2951L83.2771 43.9547L66.2897 24.2246L70.0661 49.9913L59.3216 26.2705L55.6921 52.0617L52.0627 26.2705L41.3182 49.9913L45.0945 24.2246L28.1102 43.9547L38.9863 20.2951L17.1332 34.4388L34.2307 14.8036L9.28367 22.2124L31.2164 8.19121L5.19214 8.26472L30.182 0.999923L5.19214 -6.26793L31.2164 -6.19442L9.28367 -20.2125L34.2307 -12.8038L17.1332 -32.4389L38.9863 -18.2953L28.1102 -41.9548L45.0945 -22.2247L41.3182 -47.9945L52.0627 -24.2707L55.6921 -50.0619L59.3216 -24.2707L70.0661 -47.9945L66.2897 -22.2247L83.2771 -41.9548L72.398 -18.2953L94.2511 -32.4389L77.1536 -12.8038L102.101 -20.2125L80.1679 -6.19442L106.192 -6.26793Z" fill="#99D2F9"/>
</g>
<defs>
<linearGradient id="paint0_linear_81_1447" x1="50.777" y1="0.288818" x2="50.777" y2="121.119" gradientUnits="userSpaceOnUse">
<stop stop-color="#8794D6"/>
<stop offset="1" stop-color="#42ACE8" stop-opacity="0.65"/>
</linearGradient>
<linearGradient id="paint1_linear_81_1447" x1="50.777" y1="0.288818" x2="50.777" y2="121.119" gradientUnits="userSpaceOnUse">
<stop stop-color="#8794D6"/>
<stop offset="1" stop-color="#42ACE8" stop-opacity="0.65"/>
</linearGradient>
</defs>
</svg>
