<svg width="102" height="122" viewBox="0 0 102 122" fill="none" xmlns="http://www.w3.org/2000/svg">
<rect x="0.430908" y="0.288818" width="100.692" height="120.831" rx="5.0346" fill="url(#paint0_linear_81_1452)"/>
<mask id="mask0_81_1452" style="mask-type:alpha" maskUnits="userSpaceOnUse" x="0" y="0" width="102" height="122">
<rect x="0.431152" y="0.288818" width="100.692" height="120.831" rx="5.0346" fill="url(#paint1_linear_81_1452)"/>
</mask>
<g mask="url(#mask0_81_1452)">
<path d="M72.5 19.7322L47.5101 27.0001L72.5 34.2648L46.4758 34.1913L68.4085 48.2125L43.4614 40.8038L60.559 60.4389L38.7058 46.2952L49.585 69.9548L32.5976 50.2247L36.3739 75.9915L25.6294 52.2706L22 78.0619L18.3706 52.2706L7.62608 75.9915L11.4024 50.2247L-5.5819 69.9548L5.29418 46.2952L-16.559 60.4389L0.538574 40.8038L-24.4085 48.2125L-2.47576 34.1913L-28.5 34.2648L-3.51012 27.0001L-28.5 19.7322L-2.47576 19.8057L-24.4085 5.78759L0.538574 13.1963L-16.559 -6.43882L5.29418 7.70486L-5.5819 -15.9547L11.4024 3.77538L7.62608 -21.9944L18.3706 1.72947L22 -24.0618L25.6294 1.72947L36.3739 -21.9944L32.5976 3.77538L49.585 -15.9547L38.7058 7.70486L60.559 -6.43882L43.4614 13.1963L68.4085 5.78759L46.4758 19.8057L72.5 19.7322Z" fill="#FF9FC2"/>
<path d="M151.5 98.7322L126.51 106L151.5 113.265L125.476 113.191L147.408 127.212L122.461 119.804L139.559 139.439L117.706 125.295L128.585 148.955L111.598 129.225L115.374 154.991L104.629 131.271L101 157.062L97.3706 131.271L86.6261 154.991L90.4024 129.225L73.4181 148.955L84.2942 125.295L62.441 139.439L79.5386 119.804L54.5915 127.212L76.5242 113.191L50.5 113.265L75.4899 106L50.5 98.7322L76.5242 98.8057L54.5915 84.7876L79.5386 92.1963L62.441 72.5612L84.2942 86.7048L73.4181 63.0453L90.4024 82.7754L86.6261 57.0056L97.3706 80.7295L101 54.9382L104.629 80.7295L115.374 57.0056L111.598 82.7754L128.585 63.0453L117.706 86.7048L139.559 72.5612L122.461 92.1963L147.408 84.7876L125.476 98.8057L151.5 98.7322Z" fill="#FF9FC2"/>
</g>
<defs>
<linearGradient id="paint0_linear_81_1452" x1="50.777" y1="0.288818" x2="50.777" y2="121.119" gradientUnits="userSpaceOnUse">
<stop stop-color="#8794D6"/>
<stop offset="1" stop-color="#42ACE8" stop-opacity="0.65"/>
</linearGradient>
<linearGradient id="paint1_linear_81_1452" x1="50.7772" y1="0.288818" x2="50.7772" y2="121.119" gradientUnits="userSpaceOnUse">
<stop stop-color="#8794D6"/>
<stop offset="1" stop-color="#42ACE8" stop-opacity="0.65"/>
</linearGradient>
</defs>
</svg>
