<svg width="100" height="120" viewBox="0 0 100 120" fill="none" xmlns="http://www.w3.org/2000/svg">
<rect width="100" height="120" rx="5" fill="url(#paint0_linear_81_1224)"/>
<mask id="mask0_81_1224" style="mask-type:alpha" maskUnits="userSpaceOnUse" x="0" y="0" width="100" height="120">
<rect width="100" height="120" rx="5" fill="url(#paint1_linear_81_1224)"/>
</mask>
<g mask="url(#mask0_81_1224)">
<path d="M66 52.0339L38.6088 60.0001L66 67.963L37.4751 67.8824L61.5153 83.2508L34.1711 75.1302L52.9116 96.6521L28.9585 81.1494L40.8831 107.082L22.2634 85.4564L26.4026 113.699L14.6257 87.6989L10.6475 115.968L6.66928 87.6989L-5.10765 113.699L-0.968449 85.4564L-19.5848 107.082L-7.66362 81.1494L-31.6166 96.6521L-12.8762 75.1302L-40.2204 83.2508L-16.1802 67.8824L-44.7051 67.963L-17.3139 60.0001L-44.7051 52.0339L-16.1802 52.1144L-40.2204 36.7493L-12.8762 44.87L-31.6166 23.3481L-7.66362 38.8508L-19.5848 12.9178L-0.968449 34.5438L-5.10765 6.29773L6.66928 32.3013L10.6475 4.03174L14.6257 32.3013L26.4026 6.29773L22.2634 34.5438L40.8831 12.9178L28.9585 38.8508L52.9116 23.3481L34.1711 44.87L61.5153 36.7493L37.4751 52.1144L66 52.0339Z" fill="#FF9FC2"/>
</g>
<defs>
<linearGradient id="paint0_linear_81_1224" x1="50" y1="0" x2="50" y2="120" gradientUnits="userSpaceOnUse">
<stop stop-color="#8794D6"/>
<stop offset="1" stop-color="#42ACE8" stop-opacity="0.65"/>
</linearGradient>
<linearGradient id="paint1_linear_81_1224" x1="50" y1="0" x2="50" y2="120" gradientUnits="userSpaceOnUse">
<stop stop-color="#8794D6"/>
<stop offset="1" stop-color="#42ACE8" stop-opacity="0.65"/>
</linearGradient>
</defs>
</svg>
