<svg width="100" height="120" viewBox="0 0 100 120" fill="none" xmlns="http://www.w3.org/2000/svg">
<rect width="100" height="120" rx="5" fill="url(#paint0_linear_81_1171)"/>
<mask id="mask0_81_1171" style="mask-type:alpha" maskUnits="userSpaceOnUse" x="0" y="0" width="100" height="120">
<rect width="100" height="120" rx="5" fill="url(#paint1_linear_81_1171)"/>
</mask>
<g mask="url(#mask0_81_1171)">
<path d="M105.353 112.034L77.9614 120L105.353 127.963L76.8276 127.882L100.868 143.251L73.5237 135.13L92.2641 156.652L68.3111 141.149L80.2356 167.082L61.6159 145.456L65.7551 173.699L53.9782 147.699L50 175.968L46.0218 147.699L34.2449 173.699L38.3841 145.456L19.7678 167.082L31.6889 141.149L7.73591 156.652L26.4763 135.13L-0.867851 143.251L23.1724 127.882L-5.35254 127.963L22.0386 120L-5.35254 112.034L23.1724 112.114L-0.867851 96.7492L26.4763 104.87L7.73591 83.3479L31.6889 98.8507L19.7678 72.9177L38.3841 94.5436L34.2449 66.2976L46.0218 92.3011L50 64.0316L53.9782 92.3011L65.7551 66.2976L61.6159 94.5436L80.2356 72.9177L68.3111 98.8507L92.2641 83.3479L73.5237 104.87L100.868 96.7492L76.8276 112.114L105.353 112.034Z" fill="#FF9FC2"/>
</g>
<defs>
<linearGradient id="paint0_linear_81_1171" x1="50" y1="0" x2="50" y2="120" gradientUnits="userSpaceOnUse">
<stop stop-color="#8794D6"/>
<stop offset="1" stop-color="#42ACE8" stop-opacity="0.65"/>
</linearGradient>
<linearGradient id="paint1_linear_81_1171" x1="50" y1="0" x2="50" y2="120" gradientUnits="userSpaceOnUse">
<stop stop-color="#8794D6"/>
<stop offset="1" stop-color="#42ACE8" stop-opacity="0.65"/>
</linearGradient>
</defs>
</svg>
