<svg width="100" height="120" viewBox="0 0 100 120" fill="none" xmlns="http://www.w3.org/2000/svg">
<rect width="100" height="120" rx="5" fill="url(#paint0_linear_19_2)"/>
<mask id="mask0_19_2" style="mask-type:alpha" maskUnits="userSpaceOnUse" x="0" y="0" width="100" height="120">
<rect width="100" height="120" rx="5" fill="url(#paint1_linear_19_2)"/>
</mask>
<g mask="url(#mask0_19_2)">
<path d="M94.3526 33.9923L78.3976 38.6325L94.3526 43.2708L77.7372 43.2239L91.7403 52.1758L75.8126 47.4457L86.7287 59.9819L72.7764 50.9517L79.7223 66.0574L68.8765 53.4606L71.2876 69.9116L64.4276 54.7668L62.1104 71.2335L59.7931 54.7668L52.9332 69.9116L55.3442 53.4606L44.5005 66.0574L51.4444 50.9517L37.492 59.9819L48.4081 47.4457L32.4804 52.1758L46.4836 43.2239L29.8682 43.2708L45.8232 38.6325L29.8682 33.9923L46.4836 34.0392L32.4804 25.0892L48.4081 29.8194L37.492 17.2832L51.4444 26.3133L44.5005 11.2076L55.3442 23.8045L52.9332 7.35153L59.7931 22.4983L62.1104 6.03162L64.4276 22.4983L71.2876 7.35153L68.8765 23.8045L79.7223 11.2076L72.7764 26.3133L86.7287 17.2832L75.8126 29.8194L91.7403 25.0892L77.7372 34.0392L94.3526 33.9923Z" fill="#9FDCFF"/>
</g>
<defs>
<linearGradient id="paint0_linear_19_2" x1="50" y1="0" x2="50" y2="120" gradientUnits="userSpaceOnUse">
<stop stop-color="#8794D6"/>
<stop offset="1" stop-color="#42ACE8" stop-opacity="0.65"/>
</linearGradient>
<linearGradient id="paint1_linear_19_2" x1="50" y1="0" x2="50" y2="120" gradientUnits="userSpaceOnUse">
<stop stop-color="#8794D6"/>
<stop offset="1" stop-color="#42ACE8" stop-opacity="0.65"/>
</linearGradient>
</defs>
</svg>
