<svg width="101" height="121" viewBox="0 0 101 121" fill="none" xmlns="http://www.w3.org/2000/svg">
<rect x="0.430908" y="0.288818" width="100" height="120" rx="5.0346" fill="url(#paint0_linear_81_1413)"/>
<mask id="mask0_81_1413" style="mask-type:alpha" maskUnits="userSpaceOnUse" x="0" y="0" width="101" height="121">
<rect x="0.430908" y="0.288818" width="100" height="120" rx="5.0346" fill="url(#paint1_linear_81_1413)"/>
</mask>
<g mask="url(#mask0_81_1413)">
<path d="M123.435 130.93L96.3578 140.276L123.435 149.618L95.237 149.524L119.001 167.554L91.971 158.027L110.496 183.276L86.8182 165.088L98.6059 195.512L80.1999 170.141L84.2916 203.275L72.6498 172.772L68.7172 205.937L64.7847 172.772L53.1429 203.275L57.2346 170.141L38.8318 195.512L50.6162 165.088L26.938 183.276L45.4635 158.027L18.433 167.554L42.1974 149.524L13.9998 149.618L41.0766 140.276L13.9998 130.93L42.1974 131.025L18.433 112.999L45.4635 122.526L26.938 97.2768L50.6162 115.464L38.8318 85.0402L57.2346 110.411L53.1429 77.2737L64.7847 107.78L68.7172 74.6152L72.6498 107.78L84.2916 77.2737L80.1999 110.411L98.6059 85.0402L86.8182 115.464L110.496 97.2768L91.971 122.526L119.001 112.999L95.237 131.025L123.435 130.93Z" fill="#94CCF5"/>
<path d="M73.1732 8.28938L46.9652 15.9115L73.1732 23.5305L45.8804 23.4534L68.8822 38.158L42.7191 30.3881L60.6501 50.9805L37.7317 36.1473L49.1411 60.9602L31.3257 40.2683L35.2861 67.2911L24.0179 42.414L20.2115 69.4625L16.4051 42.414L5.13688 67.2911L9.09729 40.2683L-8.71495 60.9602L2.6913 36.1473L-20.2271 50.9805L-2.29612 30.3881L-28.4593 38.158L-5.4574 23.4534L-32.7502 23.5305L-6.54218 15.9115L-32.7502 8.28938L-5.4574 8.36648L-28.4593 -6.33498L-2.29612 1.43492L-20.2271 -19.1574L2.6913 -4.32425L-8.71495 -29.1372L9.09729 -8.44528L5.13688 -35.4713L16.4051 -10.5909L20.2115 -37.6394L24.0179 -10.5909L35.2861 -35.4713L31.3257 -8.44528L49.1411 -29.1372L37.7317 -4.32425L60.6501 -19.1574L42.7191 1.43492L68.8822 -6.33498L45.8804 8.36648L73.1732 8.28938Z" fill="#94CCF5"/>
</g>
<defs>
<linearGradient id="paint0_linear_81_1413" x1="50.4309" y1="0.288818" x2="50.4309" y2="120.289" gradientUnits="userSpaceOnUse">
<stop stop-color="#8794D6"/>
<stop offset="1" stop-color="#42ACE8" stop-opacity="0.65"/>
</linearGradient>
<linearGradient id="paint1_linear_81_1413" x1="50.4309" y1="0.288818" x2="50.4309" y2="120.289" gradientUnits="userSpaceOnUse">
<stop stop-color="#8794D6"/>
<stop offset="1" stop-color="#42ACE8" stop-opacity="0.65"/>
</linearGradient>
</defs>
</svg>
