<svg width="102" height="122" viewBox="0 0 102 122" fill="none" xmlns="http://www.w3.org/2000/svg">
<rect x="0.430908" y="0.288818" width="100.692" height="120.831" rx="5.0346" fill="url(#paint0_linear_81_1430)"/>
<mask id="mask0_81_1430" style="mask-type:alpha" maskUnits="userSpaceOnUse" x="0" y="0" width="102" height="122">
<rect x="0.431152" y="0.288818" width="100.692" height="120.831" rx="5.0346" fill="url(#paint1_linear_81_1430)"/>
</mask>
<g mask="url(#mask0_81_1430)">
<path d="M93.2208 101.004L84.6538 103.495L93.2208 105.986L84.2992 105.96L91.8182 110.767L83.2659 108.227L89.1272 114.959L81.6356 110.11L85.3651 118.221L79.5416 111.457L80.8361 120.29L77.1527 112.158L75.9085 121L74.6643 112.158L70.9809 120.29L72.2755 111.457L66.4529 118.221L70.1814 110.11L62.6898 114.959L68.5511 108.227L59.9988 110.767L67.5178 105.96L58.5962 105.986L67.1632 103.495L58.5962 101.004L67.5178 101.029L59.9988 96.2231L68.5511 98.763L62.6898 92.0317L70.1814 96.8804L66.4529 88.7695L72.2755 95.5333L70.9809 86.699L74.6643 94.8319L75.9085 85.9902L77.1527 94.8319L80.8361 86.699L79.5416 95.5333L85.3651 88.7695L81.6356 96.8804L89.1272 92.0317L83.2659 98.763L91.8182 96.2231L84.2992 101.029L93.2208 101.004Z" fill="#94CCF5"/>
<path d="M108.875 38.3071L80.9472 46.4295L108.875 54.5485L79.7912 54.4664L104.303 70.1361L76.4225 61.8563L95.5303 83.8001L71.1077 67.9934L83.266 94.4348L64.2813 72.3849L68.5016 101.181L56.4938 74.6714L52.4377 103.495L48.3815 74.6714L36.3737 101.181L40.594 72.3849L21.6128 94.4348L33.7676 67.9934L9.34503 83.8001L28.4529 61.8563L0.572605 70.1361L25.0841 54.4664L-4 54.5485L23.9281 46.4295L-4 38.3071L25.0841 38.3893L0.572605 22.723L28.4529 31.0028L9.34503 9.05902L33.7676 24.8657L21.6128 -1.57574L40.594 20.4742L36.3737 -8.32557L48.3815 18.1877L52.4377 -10.636L56.4938 18.1877L68.5016 -8.32557L64.2813 20.4742L83.266 -1.57574L71.1077 24.8657L95.5303 9.05902L76.4225 31.0028L104.303 22.723L79.7912 38.3893L108.875 38.3071Z" fill="#A2DBCB"/>
</g>
<defs>
<linearGradient id="paint0_linear_81_1430" x1="50.777" y1="0.288818" x2="50.777" y2="121.119" gradientUnits="userSpaceOnUse">
<stop stop-color="#8794D6"/>
<stop offset="1" stop-color="#42ACE8" stop-opacity="0.65"/>
</linearGradient>
<linearGradient id="paint1_linear_81_1430" x1="50.7772" y1="0.288818" x2="50.7772" y2="121.119" gradientUnits="userSpaceOnUse">
<stop stop-color="#8794D6"/>
<stop offset="1" stop-color="#42ACE8" stop-opacity="0.65"/>
</linearGradient>
</defs>
</svg>
