<svg width="102" height="122" viewBox="0 0 102 122" fill="none" xmlns="http://www.w3.org/2000/svg">
<rect x="0.431152" y="0.288818" width="100.692" height="120.831" rx="5.0346" fill="url(#paint0_linear_81_1370)"/>
<mask id="mask0_81_1370" style="mask-type:alpha" maskUnits="userSpaceOnUse" x="0" y="0" width="102" height="122">
<rect x="0.431152" y="0.288818" width="100.692" height="120.831" rx="5.0346" fill="url(#paint1_linear_81_1370)"/>
</mask>
<g mask="url(#mask0_81_1370)">
<path d="M118.529 20.4577L94.7621 27.0007L118.529 33.541L93.7784 33.4748L114.638 46.0976L90.9115 39.4277L107.173 57.1046L86.3886 44.3715L96.7355 65.6715L80.5792 47.9091L84.1708 71.106L73.952 49.751L70.5001 72.97L67.0483 49.751L56.8295 71.106L60.4211 47.9091L44.2677 65.6715L54.6117 44.3715L33.8277 57.1046L50.0888 39.4277L26.3623 46.0976L47.2219 33.4748L22.4709 33.541L46.2382 27.0007L22.4709 20.4577L47.2219 20.5239L26.3623 7.90386L50.0888 14.5737L33.8277 -3.10316L54.6117 9.62991L44.2677 -11.67L60.4211 6.09234L56.8295 -17.1073L67.0483 4.25048L70.5001 -18.9685L73.952 4.25048L84.1708 -17.1073L80.5792 6.09234L96.7355 -11.67L86.3886 9.62991L107.173 -3.10316L90.9115 14.5737L114.638 7.90386L93.7784 20.5239L118.529 20.4577Z" fill="#E9A2C8"/>
<path d="M51.0963 75.3645L42.3557 77.7708L51.0963 80.176L41.9939 80.1517L49.6652 84.7938L40.9396 82.3409L46.9197 88.8417L39.2762 84.159L43.0814 91.9923L37.1398 85.46L38.4606 93.9909L34.7026 86.1374L33.4331 94.6763L32.1637 86.1374L28.4056 93.9909L29.7265 85.46L23.786 91.9923L27.59 84.159L19.9466 88.8417L25.9267 82.3409L17.2011 84.7938L24.8724 80.1517L15.77 80.176L24.5106 77.7708L15.77 75.3645L24.8724 75.3889L17.2011 70.7478L25.9267 73.2007L19.9466 66.6998L27.59 71.3825L23.786 63.5493L29.7265 70.0816L28.4056 61.5497L32.1637 69.4042L33.4331 60.8652L34.7026 69.4042L38.4606 61.5497L37.1398 70.0816L43.0814 63.5493L39.2762 71.3825L46.9197 66.6998L40.9396 73.2007L49.6652 70.7478L41.9939 75.3889L51.0963 75.3645Z" fill="#E9A2C8"/>
</g>
<defs>
<linearGradient id="paint0_linear_81_1370" x1="50.7772" y1="0.288818" x2="50.7772" y2="121.119" gradientUnits="userSpaceOnUse">
<stop stop-color="#8794D6"/>
<stop offset="1" stop-color="#42ACE8" stop-opacity="0.65"/>
</linearGradient>
<linearGradient id="paint1_linear_81_1370" x1="50.7772" y1="0.288818" x2="50.7772" y2="121.119" gradientUnits="userSpaceOnUse">
<stop stop-color="#8794D6"/>
<stop offset="1" stop-color="#42ACE8" stop-opacity="0.65"/>
</linearGradient>
</defs>
</svg>
