<svg width="102" height="122" viewBox="0 0 102 122" fill="none" xmlns="http://www.w3.org/2000/svg">
<rect x="0.430908" y="0.288818" width="100.692" height="120.831" rx="5.0346" fill="url(#paint0_linear_81_1381)"/>
<mask id="mask0_81_1381" style="mask-type:alpha" maskUnits="userSpaceOnUse" x="0" y="0" width="102" height="122">
<rect x="0.430908" y="0.288818" width="100.692" height="120.831" rx="5.0346" fill="url(#paint1_linear_81_1381)"/>
</mask>
<g mask="url(#mask0_81_1381)">
<g filter="url(#filter0_f_81_1381)">
<path d="M106.705 52.8991L79.3137 60.8653L106.705 68.8282L78.1799 68.7476L102.22 84.1161L74.876 75.9954L93.6164 97.5173L69.6634 82.0146L81.5879 107.948L62.9682 86.3217L67.1074 114.564L55.3305 88.5642L51.3523 116.834L47.3741 88.5642L35.5972 114.564L39.7364 86.3217L21.1201 107.948L33.0412 82.0146L9.08821 97.5173L27.8286 75.9954L0.484444 84.1161L24.5247 68.7476L-4.00024 68.8282L23.3909 60.8653L-4.00024 52.8991L24.5247 52.9797L0.484444 37.6146L27.8286 45.7352L9.08821 24.2133L33.0412 39.7161L21.1201 13.783L39.7364 35.409L35.5972 7.16297L47.3741 33.1665L51.3523 4.89697L55.3305 33.1665L67.1074 7.16297L62.9682 35.409L81.5879 13.783L69.6634 39.7161L93.6164 24.2133L74.876 45.7352L102.22 37.6146L78.1799 52.9797L106.705 52.8991Z" fill="white"/>
</g>
<path d="M106.705 52.8991L79.3137 60.8653L106.705 68.8282L78.1799 68.7476L102.22 84.1161L74.876 75.9954L93.6164 97.5173L69.6634 82.0146L81.5879 107.948L62.9682 86.3217L67.1074 114.564L55.3305 88.5642L51.3523 116.834L47.3741 88.5642L35.5972 114.564L39.7364 86.3217L21.1201 107.948L33.0412 82.0146L9.08821 97.5173L27.8286 75.9954L0.484444 84.1161L24.5247 68.7476L-4.00024 68.8282L23.3909 60.8653L-4.00024 52.8991L24.5247 52.9797L0.484444 37.6146L27.8286 45.7352L9.08821 24.2133L33.0412 39.7161L21.1201 13.783L39.7364 35.409L35.5972 7.16297L47.3741 33.1665L51.3523 4.89697L55.3305 33.1665L67.1074 7.16297L62.9682 35.409L81.5879 13.783L69.6634 39.7161L93.6164 24.2133L74.876 45.7352L102.22 37.6146L78.1799 52.9797L106.705 52.8991Z" fill="#99D2F9"/>
</g>
<defs>
<filter id="filter0_f_81_1381" x="-5.14248" y="3.75474" width="112.99" height="114.221" filterUnits="userSpaceOnUse" color-interpolation-filters="sRGB">
<feFlood flood-opacity="0" result="BackgroundImageFix"/>
<feBlend mode="normal" in="SourceGraphic" in2="BackgroundImageFix" result="shape"/>
<feGaussianBlur stdDeviation="0.571116" result="effect1_foregroundBlur_81_1381"/>
</filter>
<linearGradient id="paint0_linear_81_1381" x1="50.777" y1="0.288818" x2="50.777" y2="121.119" gradientUnits="userSpaceOnUse">
<stop stop-color="#8794D6"/>
<stop offset="1" stop-color="#42ACE8" stop-opacity="0.65"/>
</linearGradient>
<linearGradient id="paint1_linear_81_1381" x1="50.777" y1="0.288818" x2="50.777" y2="121.119" gradientUnits="userSpaceOnUse">
<stop stop-color="#8794D6"/>
<stop offset="1" stop-color="#42ACE8" stop-opacity="0.65"/>
</linearGradient>
</defs>
</svg>
