<svg width="102" height="122" viewBox="0 0 102 122" fill="none" xmlns="http://www.w3.org/2000/svg">
<rect x="0.431152" y="0.288818" width="100.692" height="120.831" rx="5.0346" fill="url(#paint0_linear_81_1387)"/>
<mask id="mask0_81_1387" style="mask-type:alpha" maskUnits="userSpaceOnUse" x="0" y="0" width="102" height="122">
<rect x="0.431152" y="0.288818" width="100.692" height="120.831" rx="5.0346" fill="url(#paint1_linear_81_1387)"/>
</mask>
<g mask="url(#mask0_81_1387)">
<path d="M127.479 23.4723L101.899 30.9116L127.479 38.3478L100.841 38.2725L123.291 52.6245L97.7552 45.041L115.256 65.1393L92.8874 50.662L104.023 74.8797L86.6351 54.6841L90.5005 81.0587L79.5025 56.7783L75.7875 83.178L72.0724 56.7783L61.0745 81.0587L64.9399 54.6841L47.5549 74.8797L58.6876 50.662L36.3189 65.1393L53.8198 45.041L28.2842 52.6245L50.7343 38.2725L24.0962 38.3478L49.6756 30.9116L24.0962 23.4723L50.7343 23.5476L28.2842 9.19876L53.8198 16.7823L36.3189 -3.31607L58.6876 11.1613L47.5549 -13.0564L64.9399 7.13908L61.0745 -19.2386L72.0724 5.04491L75.7875 -21.3547L79.5025 5.04491L90.5005 -19.2386L86.6351 7.13908L104.023 -13.0564L92.8874 11.1613L115.256 -3.31607L97.7552 16.7823L123.291 9.19876L100.841 23.5476L127.479 23.4723Z" fill="#EAA2C8"/>
<path d="M89.9788 135.692L64.3994 143.132L89.9788 150.568L63.3406 150.492L85.7907 164.844L60.2552 157.261L77.756 177.359L55.3874 162.882L66.5232 187.1L49.1351 166.904L53.0005 193.279L42.0025 168.998L38.2875 195.398L34.5724 168.998L23.5745 193.279L27.4399 166.904L10.0549 187.1L21.1876 162.882L-1.18109 177.359L16.3198 157.261L-9.21576 164.844L13.2343 150.492L-13.4038 150.568L12.1756 143.132L-13.4038 135.692L13.2343 135.768L-9.21576 121.419L16.3198 129.002L-1.18109 108.904L21.1876 123.381L10.0549 99.1635L27.4399 119.359L23.5745 92.9813L34.5724 117.265L38.2875 90.8652L42.0025 117.265L53.0005 92.9813L49.1351 119.359L66.5232 99.1635L55.3874 123.381L77.756 108.904L60.2552 129.002L85.7907 121.419L63.3406 135.768L89.9788 135.692Z" fill="#A1D8C9"/>
</g>
<defs>
<linearGradient id="paint0_linear_81_1387" x1="50.7772" y1="0.288818" x2="50.7772" y2="121.119" gradientUnits="userSpaceOnUse">
<stop stop-color="#8794D6"/>
<stop offset="1" stop-color="#42ACE8" stop-opacity="0.65"/>
</linearGradient>
<linearGradient id="paint1_linear_81_1387" x1="50.7772" y1="0.288818" x2="50.7772" y2="121.119" gradientUnits="userSpaceOnUse">
<stop stop-color="#8794D6"/>
<stop offset="1" stop-color="#42ACE8" stop-opacity="0.65"/>
</linearGradient>
</defs>
</svg>
