<svg width="102" height="122" viewBox="0 0 102 122" fill="none" xmlns="http://www.w3.org/2000/svg">
<rect x="0.431152" y="0.288818" width="100.692" height="120.831" rx="5.0346" fill="url(#paint0_linear_81_1419)"/>
<mask id="mask0_81_1419" style="mask-type:alpha" maskUnits="userSpaceOnUse" x="0" y="0" width="102" height="122">
<rect x="0.431152" y="0.288818" width="100.692" height="120.831" rx="5.0346" fill="url(#paint1_linear_81_1419)"/>
</mask>
<g mask="url(#mask0_81_1419)">
<g filter="url(#filter0_f_81_1419)">
<path d="M106.192 86.7839L72.1915 96.6724L106.192 106.557L70.7842 106.457L100.625 125.534L66.683 115.453L89.9455 142.169L60.2126 122.925L75.0145 155.116L51.9018 128.271L57.0398 163.329L42.4211 131.055L37.483 166.146L32.5448 131.055L17.9261 163.329L23.0641 128.271L-0.0444121 155.116L14.7534 122.925L-14.9796 142.169L8.28298 115.453L-25.6595 125.534L4.18174 106.457L-31.2263 106.557L2.77441 96.6724L-31.2263 86.7839L4.18174 86.8839L-25.6595 67.8112L8.28298 77.8914L-14.9796 51.1762L14.7534 70.4198L-0.0444121 38.229L23.0641 65.0734L17.9261 30.0115L32.5448 62.2898L37.483 27.1987L42.4211 62.2898L57.0398 30.0115L51.9018 65.0734L75.0145 38.229L60.2126 70.4198L89.9455 51.1762L66.683 77.8914L100.625 67.8112L70.7842 86.8839L106.192 86.7839Z" fill="white"/>
</g>
<path d="M106.192 86.7839L72.1915 96.6724L106.192 106.557L70.7842 106.457L100.625 125.534L66.683 115.453L89.9455 142.169L60.2126 122.925L75.0145 155.116L51.9018 128.271L57.0398 163.329L42.4211 131.055L37.483 166.146L32.5448 131.055L17.9261 163.329L23.0641 128.271L-0.0444121 155.116L14.7534 122.925L-14.9796 142.169L8.28298 115.453L-25.6595 125.534L4.18174 106.457L-31.2263 106.557L2.77441 96.6724L-31.2263 86.7839L4.18174 86.8839L-25.6595 67.8112L8.28298 77.8914L-14.9796 51.1762L14.7534 70.4198L-0.0444121 38.229L23.0641 65.0734L17.9261 30.0115L32.5448 62.2898L37.483 27.1987L42.4211 62.2898L57.0398 30.0115L51.9018 65.0734L75.0145 38.229L60.2126 70.4198L89.9455 51.1762L66.683 77.8914L100.625 67.8112L70.7842 86.8839L106.192 86.7839Z" fill="#A2DBCB"/>
</g>
<defs>
<filter id="filter0_f_81_1419" x="-32.3685" y="26.0565" width="139.703" height="141.232" filterUnits="userSpaceOnUse" color-interpolation-filters="sRGB">
<feFlood flood-opacity="0" result="BackgroundImageFix"/>
<feBlend mode="normal" in="SourceGraphic" in2="BackgroundImageFix" result="shape"/>
<feGaussianBlur stdDeviation="0.571116" result="effect1_foregroundBlur_81_1419"/>
</filter>
<linearGradient id="paint0_linear_81_1419" x1="50.7772" y1="0.288818" x2="50.7772" y2="121.119" gradientUnits="userSpaceOnUse">
<stop stop-color="#8794D6"/>
<stop offset="1" stop-color="#42ACE8" stop-opacity="0.65"/>
</linearGradient>
<linearGradient id="paint1_linear_81_1419" x1="50.7772" y1="0.288818" x2="50.7772" y2="121.119" gradientUnits="userSpaceOnUse">
<stop stop-color="#8794D6"/>
<stop offset="1" stop-color="#42ACE8" stop-opacity="0.65"/>
</linearGradient>
</defs>
</svg>
