<svg width="102" height="122" viewBox="0 0 102 122" fill="none" xmlns="http://www.w3.org/2000/svg">
<rect x="0.430908" y="0.288818" width="100.692" height="120.831" rx="5.0346" fill="url(#paint0_linear_81_1475)"/>
<mask id="mask0_81_1475" style="mask-type:alpha" maskUnits="userSpaceOnUse" x="0" y="0" width="102" height="122">
<rect x="0.430908" y="0.289062" width="100.692" height="120.831" rx="5.0346" fill="url(#paint1_linear_81_1475)"/>
</mask>
<g mask="url(#mask0_81_1475)">
<path d="M72.4998 19.7327L47.5099 27.0005L72.4998 34.2653L46.4755 34.1918L68.4082 48.213L43.4612 40.8042L60.5587 60.4394L38.7056 46.2957L49.5847 69.9553L32.5974 50.2252L36.3737 75.9919L25.6292 52.2711L21.9998 78.0623L18.3703 52.2711L7.62583 75.9919L11.4022 50.2252L-5.58214 69.9553L5.29393 46.2957L-16.5592 60.4394L0.53833 40.8042L-24.4087 48.213L-2.47601 34.1918L-28.5002 34.2653L-3.51036 27.0005L-28.5002 19.7327L-2.47601 19.8062L-24.4087 5.78807L0.53833 13.1968L-16.5592 -6.43834L5.29393 7.70534L-5.58214 -15.9542L11.4022 3.77586L7.62583 -21.9939L18.3703 1.72996L21.9998 -24.0613L25.6292 1.72996L36.3737 -21.9939L32.5974 3.77586L49.5847 -15.9542L38.7056 7.70534L60.5587 -6.43834L43.4612 13.1968L68.4082 5.78807L46.4755 19.8062L72.4998 19.7327Z" fill="#FF9FC2"/>
<path d="M151.5 98.7327L126.51 106.001L151.5 113.265L125.476 113.192L147.408 127.213L122.461 119.804L139.559 139.439L117.706 125.296L128.585 148.955L111.597 129.225L115.374 154.992L104.629 131.271L101 157.062L97.3703 131.271L86.6258 154.992L90.4022 129.225L73.4179 148.955L84.2939 125.296L62.4408 139.439L79.5383 119.804L54.5913 127.213L76.524 113.192L50.4998 113.265L75.4896 106.001L50.4998 98.7327L76.524 98.8062L54.5913 84.7881L79.5383 92.1968L62.4408 72.5617L84.2939 86.7053L73.4179 63.0458L90.4022 82.7759L86.6258 57.0061L97.3703 80.73L101 54.9387L104.629 80.73L115.374 57.0061L111.597 82.7759L128.585 63.0458L117.706 86.7053L139.559 72.5617L122.461 92.1968L147.408 84.7881L125.476 98.8062L151.5 98.7327Z" fill="#F79FC4"/>
</g>
<defs>
<linearGradient id="paint0_linear_81_1475" x1="50.777" y1="0.288818" x2="50.777" y2="121.119" gradientUnits="userSpaceOnUse">
<stop stop-color="#8794D6"/>
<stop offset="1" stop-color="#42ACE8" stop-opacity="0.65"/>
</linearGradient>
<linearGradient id="paint1_linear_81_1475" x1="50.777" y1="0.289062" x2="50.777" y2="121.12" gradientUnits="userSpaceOnUse">
<stop stop-color="#8794D6"/>
<stop offset="1" stop-color="#42ACE8" stop-opacity="0.65"/>
</linearGradient>
</defs>
</svg>
