<svg width="102" height="122" viewBox="0 0 102 122" fill="none" xmlns="http://www.w3.org/2000/svg">
<rect x="0.430908" y="0.288818" width="100.692" height="120.831" rx="5.0346" fill="url(#paint0_linear_81_1441)"/>
<mask id="mask0_81_1441" style="mask-type:alpha" maskUnits="userSpaceOnUse" x="0" y="0" width="102" height="122">
<rect x="0.431396" y="0.289062" width="100.692" height="120.831" rx="5.0346" fill="url(#paint1_linear_81_1441)"/>
</mask>
<g mask="url(#mask0_81_1441)">
<path d="M122.251 91.4008L96.5788 98.867L122.251 106.33L95.5162 106.255L118.047 120.658L92.4196 113.047L109.984 133.218L87.5343 118.689L98.7103 142.994L81.2594 122.725L85.1387 149.195L74.1011 124.827L70.3726 151.322L66.6441 124.827L55.6065 149.195L59.4858 122.725L42.0381 142.994L53.2109 118.689L30.7615 133.218L48.3256 113.047L22.6978 120.658L45.229 106.255L18.4946 106.33L44.1664 98.867L18.4946 91.4008L45.229 91.4763L22.6978 77.0757L48.3256 84.6866L30.7615 64.5157L53.2109 79.0453L42.0381 54.7401L59.4858 75.0086L55.6065 48.5356L66.6441 72.9069L70.3726 46.4119L74.1011 72.9069L85.1387 48.5356L81.2594 75.0086L98.7103 54.7401L87.5343 79.0453L109.984 64.5157L92.4196 84.6866L118.047 77.0757L95.5162 91.4763L122.251 91.4008Z" fill="#94CCF5"/>
<path d="M58.5005 8.26367L40.1911 13.5886L58.5005 18.9114L39.4332 18.8575L55.5027 29.1304L37.2247 23.7023L49.7516 38.0884L33.7404 27.7257L41.7113 45.0605L29.2651 30.6047L32.0319 49.4833L24.1597 32.1037L21.5005 51.0003L18.8413 32.1037L10.9691 49.4833L13.7359 30.6047L1.29197 45.0605L9.26058 27.7257L-6.75063 38.0884L5.77628 23.7023L-12.5018 29.1304L3.56775 18.8575L-15.4995 18.9114L2.80991 13.5886L-15.4995 8.26367L3.56775 8.31753L-12.5018 -1.95317L5.77628 3.47502L-6.75063 -10.9111L9.26058 -0.548438L1.29197 -17.8832L13.7359 -3.42746L10.9691 -22.3083L18.8413 -4.92644L21.5005 -23.823L24.1597 -4.92644L32.0319 -22.3083L29.2651 -3.42746L41.7113 -17.8832L33.7404 -0.548438L49.7516 -10.9111L37.2247 3.47502L55.5027 -1.95317L39.4332 8.31753L58.5005 8.26367Z" fill="#F89FC4"/>
</g>
<defs>
<linearGradient id="paint0_linear_81_1441" x1="50.777" y1="0.288818" x2="50.777" y2="121.119" gradientUnits="userSpaceOnUse">
<stop stop-color="#8794D6"/>
<stop offset="1" stop-color="#42ACE8" stop-opacity="0.65"/>
</linearGradient>
<linearGradient id="paint1_linear_81_1441" x1="50.7774" y1="0.289062" x2="50.7774" y2="121.12" gradientUnits="userSpaceOnUse">
<stop stop-color="#8794D6"/>
<stop offset="1" stop-color="#42ACE8" stop-opacity="0.65"/>
</linearGradient>
</defs>
</svg>
