<svg width="102" height="122" viewBox="0 0 102 122" fill="none" xmlns="http://www.w3.org/2000/svg">
<rect x="0.431152" y="0.288818" width="100.692" height="120.831" rx="5.0346" fill="url(#paint0_linear_81_1469)"/>
<mask id="mask0_81_1469" style="mask-type:alpha" maskUnits="userSpaceOnUse" x="0" y="0" width="102" height="122">
<rect x="0.431152" y="0.288818" width="100.692" height="120.831" rx="5.0346" fill="url(#paint1_linear_81_1469)"/>
</mask>
<g mask="url(#mask0_81_1469)">
<path d="M82.5992 76.9681L61.1724 83.1996L82.5992 89.4286L60.2856 89.3656L79.091 101.388L57.701 95.0352L72.3608 111.871L53.6235 99.7437L62.9514 120.03L48.3862 103.113L51.6241 125.206L42.4116 104.867L39.2996 126.981L36.1877 104.867L26.9751 125.206L30.213 103.113L15.6504 120.03L24.9757 99.7437L6.23846 111.871L20.8982 95.0352L-0.491847 101.388L18.3136 89.3656L-4 89.4286L17.4268 83.1996L-4 76.9681L18.3136 77.0311L-0.491847 65.0117L20.8982 71.3641L6.23846 54.5286L24.9757 66.6556L15.6504 46.3695L30.213 63.2864L26.9751 41.1909L36.1877 61.5322L39.2996 39.4183L42.4116 61.5322L51.6241 41.1909L48.3862 63.2864L62.9514 46.3695L53.6235 66.6556L72.3608 54.5286L57.701 71.3641L79.091 65.0117L60.2856 77.0311L82.5992 76.9681Z" fill="#ADE5C0"/>
<path d="M95.4926 15.9198L86.979 18.3958L95.4926 20.8708L86.6266 20.8458L94.0987 25.6225L85.5997 23.0985L91.4245 29.7879L83.9796 24.9694L87.6859 33.0298L81.8986 26.3081L83.1851 35.0863L79.5247 27.0051L78.2882 35.7917L77.0517 27.0051L73.3912 35.0863L74.6778 26.3081L68.8915 33.0298L72.5968 24.9694L65.1518 29.7879L70.9767 23.0985L62.4777 25.6225L69.9497 20.8458L61.0837 20.8708L69.5973 18.3958L61.0837 15.9198L69.9497 15.9449L62.4777 11.1691L70.9767 13.6932L65.1518 7.00382L72.5968 11.8223L68.8915 3.76192L74.6778 10.4836L73.3912 1.70431L77.0517 9.78661L78.2882 1L79.5247 9.78661L83.1851 1.70431L81.8986 10.4836L87.6859 3.76192L83.9796 11.8223L91.4245 7.00382L85.5997 13.6932L94.0987 11.1691L86.6266 15.9449L95.4926 15.9198Z" fill="#ADE5C0"/>
</g>
<defs>
<linearGradient id="paint0_linear_81_1469" x1="50.7772" y1="0.288818" x2="50.7772" y2="121.119" gradientUnits="userSpaceOnUse">
<stop stop-color="#8794D6"/>
<stop offset="1" stop-color="#42ACE8" stop-opacity="0.65"/>
</linearGradient>
<linearGradient id="paint1_linear_81_1469" x1="50.7772" y1="0.288818" x2="50.7772" y2="121.119" gradientUnits="userSpaceOnUse">
<stop stop-color="#8794D6"/>
<stop offset="1" stop-color="#42ACE8" stop-opacity="0.65"/>
</linearGradient>
</defs>
</svg>
