<svg width="102" height="122" viewBox="0 0 102 122" fill="none" xmlns="http://www.w3.org/2000/svg">
<rect x="0.430908" y="0.288818" width="100.692" height="120.831" rx="5.0346" fill="url(#paint0_linear_81_1408)"/>
<mask id="mask0_81_1408" style="mask-type:alpha" maskUnits="userSpaceOnUse" x="0" y="0" width="102" height="122">
<rect x="0.431152" y="0.288818" width="100.692" height="120.831" rx="5.0346" fill="url(#paint1_linear_81_1408)"/>
</mask>
<g mask="url(#mask0_81_1408)">
<path d="M133.125 16.5477L104.156 24.9727L133.125 33.394L102.957 33.3088L128.382 49.5623L99.463 40.974L119.283 63.7352L93.9503 47.3398L106.561 74.7661L86.8696 51.8948L91.2471 81.7638L78.7921 54.2664L74.5848 84.1638L70.3775 54.2664L57.9225 81.7638L62.3 51.8948L42.6117 74.7661L55.2193 47.3398L29.887 63.7352L49.7066 40.974L20.7878 49.5623L46.2124 33.3088L16.0449 33.394L45.0133 24.9727L16.0449 16.5477L46.2124 16.6329L20.7878 0.383041L49.7066 8.9713L29.887 -13.7899L55.2193 2.60555L42.6117 -24.8208L62.3 -1.94952L57.9225 -31.822L70.3775 -4.32115L74.5848 -34.2185L78.7921 -4.32115L91.2471 -31.822L86.8696 -1.94952L106.561 -24.8208L93.9503 2.60555L119.283 -13.7899L99.463 8.9713L128.382 0.383041L102.957 16.6329L133.125 16.5477Z" fill="#FF9FC2"/>
</g>
<defs>
<linearGradient id="paint0_linear_81_1408" x1="50.777" y1="0.288818" x2="50.777" y2="121.119" gradientUnits="userSpaceOnUse">
<stop stop-color="#8794D6"/>
<stop offset="1" stop-color="#42ACE8" stop-opacity="0.65"/>
</linearGradient>
<linearGradient id="paint1_linear_81_1408" x1="50.7772" y1="0.288818" x2="50.7772" y2="121.119" gradientUnits="userSpaceOnUse">
<stop stop-color="#8794D6"/>
<stop offset="1" stop-color="#42ACE8" stop-opacity="0.65"/>
</linearGradient>
</defs>
</svg>
