<svg width="100" height="120" viewBox="0 0 100 120" fill="none" xmlns="http://www.w3.org/2000/svg">
<rect width="100" height="120" rx="5" fill="url(#paint0_linear_81_1181)"/>
<mask id="mask0_81_1181" style="mask-type:alpha" maskUnits="userSpaceOnUse" x="0" y="0" width="100" height="120">
<rect width="100" height="120" rx="5" fill="url(#paint1_linear_81_1181)"/>
</mask>
<g mask="url(#mask0_81_1181)">
<path d="M35 105.135L24.3607 108.229L35 111.322L23.9204 111.291L33.2581 117.26L22.6371 114.106L29.9162 122.466L20.6124 116.444L25.2441 126.517L18.0119 118.117L19.6196 129.087L15.0452 118.988L13.5 129.968L11.9548 118.988L7.38041 129.087L8.98816 118.117L1.75721 126.517L6.38762 116.444L-2.91619 122.466L4.36296 114.106L-6.25806 117.26L3.07963 111.291L-8 111.322L2.63926 108.229L-8 105.135L3.07963 105.166L-6.25806 99.1981L4.36296 102.352L-2.91619 93.9928L6.38762 100.014L1.75721 89.9415L8.98816 98.3414L7.38041 87.3701L11.9548 97.4704L13.5 86.49L15.0452 97.4704L19.6196 87.3701L18.0119 98.3414L25.2441 89.9415L20.6124 100.014L29.9162 93.9928L22.6371 102.352L33.2581 99.1981L23.9204 105.166L35 105.135Z" fill="#A0DBCE"/>
<path d="M127 25.0337L99.6088 33L127 40.9628L98.4751 40.8823L122.515 56.2507L95.1711 48.1301L113.912 69.652L89.9585 54.1492L101.883 80.0823L83.2634 58.4563L87.4026 86.699L75.6257 60.6988L71.6475 88.9683L67.6693 60.6988L55.8924 86.699L60.0316 58.4563L41.4152 80.0823L53.3364 54.1492L29.3834 69.652L48.1238 48.1301L20.7796 56.2507L44.8198 40.8823L16.2949 40.9628L43.6861 33L16.2949 25.0337L44.8198 25.1143L20.7796 9.7492L48.1238 17.8698L29.3834 -3.65205L53.3364 11.8507L41.4152 -14.0823L60.0316 7.54363L55.8924 -20.7024L67.6693 5.30114L71.6475 -22.9684L75.6257 5.30114L87.4026 -20.7024L83.2634 7.54363L101.883 -14.0823L89.9585 11.8507L113.912 -3.65205L95.1711 17.8698L122.515 9.7492L98.4751 25.1143L127 25.0337Z" fill="#9AD5FB"/>
</g>
<defs>
<linearGradient id="paint0_linear_81_1181" x1="50" y1="0" x2="50" y2="120" gradientUnits="userSpaceOnUse">
<stop stop-color="#8794D6"/>
<stop offset="1" stop-color="#42ACE8" stop-opacity="0.65"/>
</linearGradient>
<linearGradient id="paint1_linear_81_1181" x1="50" y1="0" x2="50" y2="120" gradientUnits="userSpaceOnUse">
<stop stop-color="#8794D6"/>
<stop offset="1" stop-color="#42ACE8" stop-opacity="0.65"/>
</linearGradient>
</defs>
</svg>
