<svg width="100" height="120" viewBox="0 0 100 120" fill="none" xmlns="http://www.w3.org/2000/svg">
<rect width="100" height="120" rx="5" fill="url(#paint0_linear_19_27)"/>
<mask id="mask0_19_27" style="mask-type:alpha" maskUnits="userSpaceOnUse" x="0" y="0" width="100" height="120">
<rect width="100" height="120" rx="5" fill="url(#paint1_linear_19_27)"/>
</mask>
<g mask="url(#mask0_19_27)">
<path d="M127 92.0337L99.6088 100L127 107.963L98.4751 107.882L122.515 123.251L95.1711 115.13L113.912 136.652L89.9585 121.149L101.883 147.082L83.2634 125.456L87.4026 153.699L75.6257 127.699L71.6475 155.968L67.6693 127.699L55.8924 153.699L60.0316 125.456L41.4152 147.082L53.3364 121.149L29.3834 136.652L48.1238 115.13L20.7796 123.251L44.8198 107.882L16.2949 107.963L43.6861 100L16.2949 92.0337L44.8198 92.1143L20.7796 76.7492L48.1238 84.8698L29.3834 63.3479L53.3364 78.8507L41.4152 52.9177L60.0316 74.5436L55.8924 46.2976L67.6693 72.3011L71.6475 44.0316L75.6257 72.3011L87.4026 46.2976L83.2634 74.5436L101.883 52.9177L89.9585 78.8507L113.912 63.3479L95.1711 84.8698L122.515 76.7492L98.4751 92.1143L127 92.0337Z" fill="#ADE5C0"/>
</g>
<defs>
<linearGradient id="paint0_linear_19_27" x1="50" y1="0" x2="50" y2="120" gradientUnits="userSpaceOnUse">
<stop stop-color="#8794D6"/>
<stop offset="1" stop-color="#42ACE8" stop-opacity="0.65"/>
</linearGradient>
<linearGradient id="paint1_linear_19_27" x1="50" y1="0" x2="50" y2="120" gradientUnits="userSpaceOnUse">
<stop stop-color="#8794D6"/>
<stop offset="1" stop-color="#42ACE8" stop-opacity="0.65"/>
</linearGradient>
</defs>
</svg>
