<svg width="100" height="120" viewBox="0 0 100 120" fill="none" xmlns="http://www.w3.org/2000/svg">
<rect width="100" height="120" rx="5" fill="url(#paint0_linear_19_37)"/>
<mask id="mask0_19_37" style="mask-type:alpha" maskUnits="userSpaceOnUse" x="0" y="0" width="100" height="120">
<rect width="100" height="120" rx="5" fill="url(#paint1_linear_19_37)"/>
</mask>
<g mask="url(#mask0_19_37)">
<path d="M105.353 32.0338L77.9614 40L105.353 47.9629L76.8276 47.8823L100.868 63.2508L73.5237 55.1301L92.2641 76.652L68.3111 61.1493L80.2356 87.0823L61.6159 65.4564L65.7551 93.699L53.9782 67.6988L50 95.9684L46.0218 67.6988L34.2449 93.699L38.3841 65.4564L19.7678 87.0823L31.6889 61.1493L7.73591 76.652L26.4763 55.1301L-0.867851 63.2508L23.1724 47.8823L-5.35254 47.9629L22.0386 40L-5.35254 32.0338L23.1724 32.1144L-0.867851 16.7493L26.4763 24.8699L7.73591 3.34801L31.6889 18.8508L19.7678 -7.08227L38.3841 14.5437L34.2449 -13.7023L46.0218 12.3012L50 -15.9683L53.9782 12.3012L65.7551 -13.7023L61.6159 14.5437L80.2356 -7.08227L68.3111 18.8508L92.2641 3.34801L73.5237 24.8699L100.868 16.7493L76.8276 32.1144L105.353 32.0338Z" fill="#A1DBCB"/>
</g>
<defs>
<linearGradient id="paint0_linear_19_37" x1="50" y1="0" x2="50" y2="120" gradientUnits="userSpaceOnUse">
<stop stop-color="#8794D6"/>
<stop offset="1" stop-color="#42ACE8" stop-opacity="0.65"/>
</linearGradient>
<linearGradient id="paint1_linear_19_37" x1="50" y1="0" x2="50" y2="120" gradientUnits="userSpaceOnUse">
<stop stop-color="#8794D6"/>
<stop offset="1" stop-color="#42ACE8" stop-opacity="0.65"/>
</linearGradient>
</defs>
</svg>
