<svg width="100" height="120" viewBox="0 0 100 120" fill="none" xmlns="http://www.w3.org/2000/svg">
<rect width="100" height="120" rx="5" fill="url(#paint0_linear_81_1239)"/>
<mask id="mask0_81_1239" style="mask-type:alpha" maskUnits="userSpaceOnUse" x="0" y="0" width="100" height="120">
<rect width="100" height="120" rx="5" fill="url(#paint1_linear_81_1239)"/>
</mask>
<g mask="url(#mask0_81_1239)">
<path d="M105.353 32.0339L77.9614 40.0001L105.353 47.963L76.8276 47.8824L100.868 63.2508L73.5237 55.1302L92.2641 76.6521L68.3111 61.1494L80.2356 87.0824L61.6159 65.4564L65.7551 93.6991L53.9782 67.6989L50 95.9684L46.0218 67.6989L34.2449 93.6991L38.3841 65.4564L19.7678 87.0824L31.6889 61.1494L7.73591 76.6521L26.4763 55.1302L-0.867851 63.2508L23.1724 47.8824L-5.35254 47.963L22.0386 40.0001L-5.35254 32.0339L23.1724 32.1144L-0.867851 16.7493L26.4763 24.87L7.73591 3.34807L31.6889 18.8508L19.7678 -7.08221L38.3841 14.5438L34.2449 -13.7023L46.0218 12.3013L50 -15.9683L53.9782 12.3013L65.7551 -13.7023L61.6159 14.5438L80.2356 -7.08221L68.3111 18.8508L92.2641 3.34807L73.5237 24.87L100.868 16.7493L76.8276 32.1144L105.353 32.0339Z" fill="#A1DBCB"/>
</g>
<defs>
<linearGradient id="paint0_linear_81_1239" x1="50" y1="0" x2="50" y2="120" gradientUnits="userSpaceOnUse">
<stop stop-color="#8794D6"/>
<stop offset="1" stop-color="#42ACE8" stop-opacity="0.65"/>
</linearGradient>
<linearGradient id="paint1_linear_81_1239" x1="50" y1="0" x2="50" y2="120" gradientUnits="userSpaceOnUse">
<stop stop-color="#8794D6"/>
<stop offset="1" stop-color="#42ACE8" stop-opacity="0.65"/>
</linearGradient>
</defs>
</svg>
