<svg width="40" height="40" viewBox="0 0 40 40" fill="none" xmlns="http://www.w3.org/2000/svg">
<path d="M19.9999 8.125C17.9357 8.12762 15.9568 8.94877 14.4972 10.4084C13.0376 11.868 12.2165 13.8469 12.2139 15.911H16.1722C16.1722 13.7993 17.8901 12.0833 19.9999 12.0833C22.1097 12.0833 23.8276 13.7993 23.8276 15.911C23.8276 17.0946 22.8756 17.9535 21.421 19.1292C20.9457 19.5014 20.4893 19.8971 20.0533 20.3147C18.0781 22.2879 18.0207 24.3839 18.0207 24.6174V25.9375H21.9791L21.9771 24.6847C21.9791 24.653 22.0424 23.9207 22.8499 23.1152C23.1468 22.8183 23.5208 22.5215 23.9088 22.2088C25.4505 20.9599 27.784 19.0737 27.784 15.911C27.7824 13.8469 26.9619 11.8677 25.5025 10.4079C24.0431 8.94815 22.0641 8.1271 19.9999 8.125ZM18.0207 27.9167H21.9791V31.875H18.0207V27.9167Z" fill="#F09F6E"/>
<path d="M19.9999 0.208344C9.08679 0.208344 0.208252 9.08689 0.208252 20C0.208252 30.9131 9.08679 39.7917 19.9999 39.7917C30.913 39.7917 39.7916 30.9131 39.7916 20C39.7916 9.08689 30.913 0.208344 19.9999 0.208344ZM19.9999 35.8333C11.2698 35.8333 4.16659 28.7301 4.16659 20C4.16659 11.2699 11.2698 4.16668 19.9999 4.16668C28.73 4.16668 35.8333 11.2699 35.8333 20C35.8333 28.7301 28.73 35.8333 19.9999 35.8333Z" fill="url(#paint0_linear_357_12)"/>
<defs>
<linearGradient id="paint0_linear_357_12" x1="-6.71883" y1="-4.73957" x2="54.6353" y2="56.6146" gradientUnits="userSpaceOnUse">
<stop stop-color="#F09B6E"/>
<stop offset="1" stop-color="#F3C667"/>
</linearGradient>
</defs>
</svg>
