<svg width="22" height="24" viewBox="0 0 22 24" fill="none" xmlns="http://www.w3.org/2000/svg">
<path d="M3.01623 23.789H19.5203C20.1456 23.789 20.7453 23.5406 21.1875 23.0985C21.6296 22.6563 21.878 22.0566 21.878 21.4313V10.8216C21.8789 10.6664 21.8492 10.5126 21.7905 10.369C21.7318 10.2254 21.6454 10.0947 21.5361 9.98457L12.1053 0.553681C11.8844 0.334117 11.5856 0.210876 11.2742 0.210876C10.9627 0.210876 10.6639 0.334117 10.4431 0.553681L1.01217 9.98457C0.900778 10.0938 0.812163 10.224 0.751456 10.3676C0.690749 10.5113 0.659156 10.6656 0.658508 10.8216V21.4313C0.658508 22.0566 0.90691 22.6563 1.34907 23.0985C1.79123 23.5406 2.39092 23.789 3.01623 23.789ZM8.91054 21.4313V15.537H13.626V21.4313H8.91054ZM3.01623 11.3049L11.2683 3.05287L19.5203 11.3049V21.4313H15.9837V15.537C15.9837 14.9117 15.7353 14.312 15.2931 13.8699C14.851 13.4277 14.2513 13.1793 13.626 13.1793H8.91054C8.28523 13.1793 7.68554 13.4277 7.24338 13.8699C6.80122 14.312 6.55282 14.9117 6.55282 15.537V21.4313H3.01623V11.3049Z" fill="#ED8F6F"/>
</svg>
