<svg width="22" height="23" viewBox="0 0 22 23" fill="none" xmlns="http://www.w3.org/2000/svg">
<path fill-rule="evenodd" clip-rule="evenodd" d="M21.2373 3.11619V17.4173C21.2369 18.1178 20.9772 18.8 20.4958 19.3652C20.0145 19.9304 19.3364 20.3493 18.5597 20.5612C17.7831 20.7731 16.9481 20.7671 16.1757 20.544C15.4033 20.3209 14.7335 19.8923 14.2632 19.3203C13.7929 18.7482 13.5466 18.0624 13.5598 17.362C13.5731 16.6616 13.8452 15.983 14.3368 15.4243C14.8285 14.8657 15.5141 14.4561 16.2946 14.2547C17.075 14.0533 17.9097 14.0706 18.678 14.3041V5.31636H8.44067V19.6175C8.44025 20.318 8.18056 21.0002 7.69919 21.5654C7.21783 22.1306 6.53975 22.5495 5.7631 22.7614C4.98644 22.9733 4.15149 22.9673 3.37908 22.7442C2.60667 22.5211 1.93686 22.0925 1.46658 21.5205C0.996309 20.9484 0.749966 20.2626 0.763202 19.5622C0.776439 18.8618 1.04857 18.1831 1.54021 17.6245C2.03185 17.0659 2.7175 16.6562 3.49794 16.4548C4.27837 16.2535 5.11311 16.2708 5.88135 16.5043V3.11619C5.88135 2.53267 6.15099 1.97304 6.63096 1.56043C7.11092 1.14782 7.7619 0.916016 8.44067 0.916016H18.678C19.3568 0.916016 20.0077 1.14782 20.4877 1.56043C20.9677 1.97304 21.2373 2.53267 21.2373 3.11619Z" fill="#EF966E"/>
</svg>
