<svg width="26" height="26" viewBox="0 0 26 26" fill="none" xmlns="http://www.w3.org/2000/svg">
<path d="M4.87412 1.24817H21.6625C23.5226 1.24817 25.0201 2.74569 25.0201 4.60584V21.3942C25.0201 23.2543 23.5226 24.7519 21.6625 24.7519H4.87412C3.01397 24.7519 1.51645 23.2543 1.51645 21.3942V4.60584C1.51645 2.74569 3.01397 1.24817 4.87412 1.24817Z" stroke="#ED8F6F" stroke-width="1.67884" stroke-linecap="round" stroke-linejoin="round"/>
<path d="M6.55295 6.28467H8.23178" stroke="#ED8F6F" stroke-width="1.67884" stroke-linecap="round" stroke-linejoin="round"/>
<path d="M9.91062 7.9635C9.46536 7.9635 9.03834 7.78663 8.7235 7.47179C8.40866 7.15694 8.23178 6.72992 8.23178 6.28467C8.23178 5.83942 8.40866 5.4124 8.7235 5.09755C9.03834 4.78271 9.46536 4.60583 9.91062 4.60583C10.3559 4.60583 10.7829 4.78271 11.0977 5.09755C11.4126 5.4124 11.5895 5.83942 11.5895 6.28467C11.5895 6.72992 11.4126 7.15694 11.0977 7.47179C10.7829 7.78663 10.3559 7.9635 9.91062 7.9635Z" stroke="#ED8F6F" stroke-width="1.67884" stroke-linecap="round" stroke-linejoin="round"/>
<path d="M11.5894 6.28467H19.9836" stroke="#ED8F6F" stroke-width="1.67884" stroke-linecap="round" stroke-linejoin="round"/>
<path d="M19.9836 13H18.3048" stroke="#ED8F6F" stroke-width="1.67884" stroke-linecap="round" stroke-linejoin="round"/>
<path d="M16.6259 14.6788C16.6259 14.2336 16.8028 13.8066 17.1177 13.4917C17.4325 13.1769 17.8595 13 18.3048 13C17.8595 13 17.4325 12.8231 17.1177 12.5083C16.8028 12.1934 16.6259 11.7664 16.6259 11.3212C16.6259 11.7664 16.4491 12.1934 16.1342 12.5083C15.8194 12.8231 15.3924 13 14.9471 13C15.3924 13 15.8194 13.1769 16.1342 13.4917C16.4491 13.8066 16.6259 14.2336 16.6259 14.6788Z" stroke="#ED8F6F" stroke-width="1.67884" stroke-linecap="round" stroke-linejoin="round"/>
<path d="M14.9471 13H6.55295" stroke="#ED8F6F" stroke-width="1.67884" stroke-linecap="round" stroke-linejoin="round"/>
<path d="M6.55295 19.7154H8.23178" stroke="#ED8F6F" stroke-width="1.67884" stroke-linecap="round" stroke-linejoin="round"/>
<path d="M9.91062 21.3942C9.46536 21.3942 9.03834 21.2173 8.7235 20.9024C8.40866 20.5876 8.23178 20.1606 8.23178 19.7153C8.23178 19.2701 8.40866 18.8431 8.7235 18.5282C9.03834 18.2134 9.46536 18.0365 9.91062 18.0365C10.3559 18.0365 10.7829 18.2134 11.0977 18.5282C11.4126 18.8431 11.5895 19.2701 11.5895 19.7153C11.5895 20.1606 11.4126 20.5876 11.0977 20.9024C10.7829 21.2173 10.3559 21.3942 9.91062 21.3942Z" stroke="#ED8F6F" stroke-width="1.67884" stroke-linecap="round" stroke-linejoin="round"/>
<path d="M11.5894 19.7154H19.9836" stroke="#ED8F6F" stroke-width="1.67884" stroke-linecap="round" stroke-linejoin="round"/>
</svg>
