<svg width="29" height="26" viewBox="0 0 29 26" fill="none" xmlns="http://www.w3.org/2000/svg">
<path d="M1.5 16.8479V8.70916C1.5 7.9199 2.0824 7.27914 2.8 7.27914H7.4618C7.63383 7.2785 7.80396 7.24101 7.96192 7.16893C8.11988 7.09685 8.26241 6.99168 8.3809 6.85976L12.2809 2.2012C13.0999 1.29919 14.5 1.93857 14.5 3.21322V22.3452C14.5 23.6295 13.083 24.2634 12.2692 23.3435L8.3822 18.711C8.26337 18.5754 8.1194 18.467 7.95927 18.3927C7.79913 18.3185 7.62625 18.2798 7.4514 18.2793H2.8C2.0824 18.2793 1.5 17.6385 1.5 16.8479Z" stroke="#EF966E" stroke-width="3" stroke-linecap="round" stroke-linejoin="round"/>
<path d="M18.8506 7.96655C20.5835 10.4113 20.5835 15.1469 18.8506 17.5917" stroke="#EF966E" stroke-width="3" stroke-linecap="round" stroke-linejoin="round"/>
<path d="M23.6001 3.15405C28.7845 8.39012 28.8157 17.2026 23.6001 22.4043" stroke="#EF966E" stroke-width="3" stroke-linecap="round" stroke-linejoin="round"/>
</svg>
