<svg width="25" height="22" viewBox="0 0 25 22" fill="none" xmlns="http://www.w3.org/2000/svg">
<path d="M22.6693 0.00225256C22.3729 0.0242591 22.082 0.0952212 21.8078 0.21237H21.8041C21.541 0.318843 20.29 0.855916 18.388 1.67001L11.5723 4.59941C6.6816 6.70059 1.87403 8.76973 1.87403 8.76973L1.93128 8.74712C1.93128 8.74712 1.59981 8.85831 1.25358 9.10046C1.03968 9.23936 0.85562 9.42111 0.712534 9.63471C0.542649 9.88911 0.406002 10.2783 0.456783 10.6806C0.539879 11.3609 0.971978 11.7689 1.2822 11.9941C1.59612 12.2221 1.89527 12.3286 1.89527 12.3286H1.90265L6.41107 13.8785C6.61328 14.5409 7.78493 18.4719 8.06653 19.3774C8.23272 19.9182 8.3943 20.2565 8.5965 20.5147C8.69437 20.6466 8.80886 20.7568 8.94643 20.8454C9.01794 20.8879 9.0942 20.9214 9.17355 20.9453L9.12739 20.934C9.14124 20.9377 9.15232 20.949 9.16248 20.9528C9.19941 20.9632 9.22434 20.9669 9.27142 20.9745C9.98513 21.195 10.5585 20.7427 10.5585 20.7427L10.5908 20.7163L13.2526 18.243L17.714 21.7358L17.8155 21.7801C18.7453 22.1966 19.687 21.9648 20.1847 21.5558C20.686 21.1441 20.8809 20.6174 20.8809 20.6174L20.9132 20.5326L24.3607 2.50859C24.4586 2.06386 24.4835 1.64739 24.3755 1.24317C24.2641 0.83408 24.0069 0.482233 23.6544 0.256655C23.3584 0.0730283 23.0152 -0.0156042 22.6693 0.00225256V0.00225256ZM22.576 1.93383C22.5723 1.99319 22.5834 1.9866 22.5576 2.10061V2.11097L19.1423 19.9475C19.1275 19.9729 19.1026 20.0285 19.0343 20.0841C18.9623 20.1425 18.905 20.1792 18.605 20.0577L13.1483 15.7884L9.85217 18.8545L10.5446 14.3412L19.4599 5.86106C19.8274 5.51243 19.7046 5.43894 19.7046 5.43894C19.7304 5.01117 19.1497 5.31362 19.1497 5.31362L7.90773 12.4209L7.90403 12.402L2.51572 10.5506V10.5468L2.50187 10.544C2.51131 10.5408 2.52056 10.537 2.52957 10.5327L2.55911 10.5176L2.58773 10.5072C2.58773 10.5072 7.39899 8.43807 12.2897 6.33689C14.7382 5.28441 17.2052 4.2244 19.1026 3.40654C21 2.59339 22.4024 1.99696 22.4818 1.96492C22.5576 1.93477 22.5215 1.93477 22.576 1.93477V1.93383Z" fill="#F4D364"/>
</svg>
