<svg width="39" height="46" viewBox="0 0 39 46" fill="none" xmlns="http://www.w3.org/2000/svg">
<rect x="0.966797" y="0.870605" width="37.4126" height="44.8951" rx="1.87063" fill="url(#paint0_linear_37_316)"/>
<mask id="mask0_37_316" style="mask-type:alpha" maskUnits="userSpaceOnUse" x="0" y="0" width="39" height="46">
<rect x="0.966797" y="0.870605" width="37.4126" height="44.8951" rx="1.87063" fill="url(#paint1_linear_37_316)"/>
</mask>
<g mask="url(#mask0_37_316)">
<path d="M41.3723 8.84178L35.1703 10.6455L41.3723 12.4485L34.9136 12.4303L40.3569 15.9101L34.1655 14.0714L38.4088 18.9445L32.9852 15.4343L35.6852 21.3061L31.4692 16.4095L32.4065 22.8043L29.7399 16.9172L28.8391 23.3182L27.9383 16.9172L25.2718 22.8043L26.209 16.4095L21.9938 21.3061L24.693 15.4343L19.2695 18.9445L23.5128 14.0714L17.3214 15.9101L22.7647 12.4303L16.3059 12.4485L22.508 10.6455L16.3059 8.84178L22.7647 8.86003L17.3214 5.38098L23.5128 7.2197L19.2695 2.3466L24.693 5.85681L21.9938 -0.0150757L26.209 4.88158L25.2718 -1.51402L27.9383 4.37383L28.8391 -2.0271L29.7399 4.37383L32.4065 -1.51402L31.4692 4.88158L35.6852 -0.0150757L32.9852 5.85681L38.4088 2.3466L34.1655 7.2197L40.3569 5.38098L34.9136 8.86003L41.3723 8.84178Z" fill="#9BD5FB"/>
<path d="M15.1836 31.3775L10.5847 32.715L15.1836 34.0519L10.3944 34.0384L14.4306 36.6187L9.83963 35.2553L12.9861 38.8687L8.96446 36.2659L10.9665 40.6199L7.84038 36.989L8.53533 41.7308L6.55804 37.3655L5.89012 42.1118L5.2222 37.3655L3.24491 41.7308L3.93986 36.989L0.814263 40.6199L2.81577 36.2659L-1.20583 38.8687L1.9406 35.2553L-2.65036 36.6187L1.38588 34.0384L-3.40332 34.0519L1.19553 32.715L-3.40332 31.3775L1.38588 31.391L-2.65036 28.8113L1.9406 30.1747L-1.20583 26.5613L2.81577 29.1641L0.814263 24.8101L3.93986 28.441L3.24491 23.6986L5.2222 28.0645L5.89012 23.3182L6.55804 28.0645L8.53533 23.6986L7.84038 28.441L10.9665 24.8101L8.96446 29.1641L12.9861 26.5613L9.83963 30.1747L14.4306 28.8113L10.3944 31.391L15.1836 31.3775Z" fill="#9BD5FB"/>
</g>
<defs>
<linearGradient id="paint0_linear_37_316" x1="19.6731" y1="0.870605" x2="19.6731" y2="45.7657" gradientUnits="userSpaceOnUse">
<stop stop-color="#8794D6"/>
<stop offset="1" stop-color="#42ACE8" stop-opacity="0.65"/>
</linearGradient>
<linearGradient id="paint1_linear_37_316" x1="19.6731" y1="0.870605" x2="19.6731" y2="45.7657" gradientUnits="userSpaceOnUse">
<stop stop-color="#8794D6"/>
<stop offset="1" stop-color="#42ACE8" stop-opacity="0.65"/>
</linearGradient>
</defs>
</svg>
