<svg width="31" height="31" viewBox="0 0 31 31" fill="none" xmlns="http://www.w3.org/2000/svg">
<rect x="0.675415" y="0.548828" width="29.9953" height="30.0198" rx="3.74126" fill="#208D66"/>
<path d="M15.7421 23.864C11.1726 23.864 7.45496 20.1416 7.45496 15.5708H9.74361C9.74361 16.7582 10.0954 17.919 10.7546 18.9064C11.4138 19.8937 12.3507 20.6633 13.4469 21.1177C14.5431 21.5721 15.7493 21.691 16.913 21.4593C18.0767 21.2277 19.1457 20.6559 19.9846 19.8162C20.8236 18.9765 21.395 17.9067 21.6265 16.7421C21.8579 15.5774 21.7391 14.3702 21.2851 13.2731C20.831 12.1761 20.0621 11.2384 19.0756 10.5787C18.089 9.91893 16.9292 9.5668 15.7427 9.5668V7.2793C20.3122 7.2793 24.0298 11.0018 24.0298 15.5732C24.0298 20.1446 20.3116 23.864 15.7421 23.864Z" fill="#FCE93D"/>
<path d="M15.7619 21.5831C14.1672 21.5831 12.6378 20.9491 11.5102 19.8205C10.3825 18.692 9.74902 17.1613 9.74902 15.5653C9.74902 13.9693 10.3825 12.4387 11.5102 11.3101C12.6378 10.1816 14.1672 9.54755 15.7619 9.54755V11.8381C14.7742 11.8381 13.8269 12.2307 13.1285 12.9297C12.43 13.6287 12.0377 14.5768 12.0377 15.5653C12.0377 16.5538 12.43 17.5019 13.1285 18.2009C13.8269 18.8999 14.7742 19.2926 15.7619 19.2926V21.5831Z" fill="#0000FF"/>
<path d="M15.6798 26.0789V23.7902C20.2103 23.7902 23.8985 20.1013 23.8985 15.5647C23.8985 11.0282 20.2127 7.33932 15.6798 7.33932C11.1469 7.33932 7.46106 11.0282 7.46106 15.5647H5.1748C5.1748 9.76793 9.88768 5.05182 15.6798 5.05182C21.4719 5.05182 26.1847 9.76793 26.1847 15.5647C26.1847 21.3616 21.4719 26.0789 15.6798 26.0789Z" fill="#FD4B01"/>
</svg>
