<svg width="39" height="46" viewBox="0 0 39 46" fill="none" xmlns="http://www.w3.org/2000/svg">
<rect x="0.812988" y="0.507019" width="37.4126" height="44.8951" rx="1.87063" fill="url(#paint0_linear_37_355)"/>
<rect x="4.52161" y="7.82159" width="29.9953" height="30.0198" rx="3.74126" fill="#208D66"/>
<path d="M19.5883 31.1368C15.0188 31.1368 11.3011 27.4143 11.3011 22.8435H13.5898C13.5898 24.031 13.9416 25.1918 14.6008 26.1791C15.26 27.1665 16.1969 27.936 17.2931 28.3905C18.3893 28.8449 19.5955 28.9638 20.7592 28.7321C21.9229 28.5005 22.9919 27.9286 23.8308 27.089C24.6698 26.2493 25.2412 25.1795 25.4727 24.0148C25.7041 22.8502 25.5853 21.643 25.1313 20.5459C24.6772 19.4488 23.9083 18.5111 22.9218 17.8514C21.9352 17.1917 20.7754 16.8396 19.5889 16.8396V14.5521C24.1584 14.5521 27.876 18.2745 27.876 22.8459C27.876 27.4173 24.1578 31.1368 19.5883 31.1368Z" fill="#FCE93D"/>
<path d="M19.6081 28.8558C18.0134 28.8558 16.484 28.2218 15.3563 27.0933C14.2287 25.9647 13.5952 24.4341 13.5952 22.8381C13.5952 21.2421 14.2287 19.7114 15.3563 18.5829C16.484 17.4543 18.0134 16.8203 19.6081 16.8203V19.1108C18.6204 19.1108 17.6731 19.5035 16.9747 20.2025C16.2762 20.9015 15.8839 21.8495 15.8839 22.8381C15.8839 23.8266 16.2762 24.7746 16.9747 25.4736C17.6731 26.1726 18.6204 26.5653 19.6081 26.5653V28.8558Z" fill="#0000FF"/>
<path d="M19.5258 33.3516V31.0629C24.0563 31.0629 27.7446 27.3741 27.7446 22.8375C27.7446 18.3009 24.0587 14.6121 19.5258 14.6121C14.993 14.6121 11.3071 18.3009 11.3071 22.8375H9.02087C9.02087 17.0407 13.7337 12.3246 19.5258 12.3246C25.3179 12.3246 30.0308 17.0407 30.0308 22.8375C30.0308 28.6343 25.3179 33.3516 19.5258 33.3516Z" fill="#FD4B01"/>
<defs>
<linearGradient id="paint0_linear_37_355" x1="19.5193" y1="0.507019" x2="19.5193" y2="45.4021" gradientUnits="userSpaceOnUse">
<stop stop-color="#8794D6" stop-opacity="0.6"/>
<stop offset="1" stop-color="#42ACE8" stop-opacity="0.24"/>
</linearGradient>
</defs>
</svg>
