<svg width="39" height="46" viewBox="0 0 39 46" fill="none" xmlns="http://www.w3.org/2000/svg">
<rect x="0.812988" y="0.5979" width="37.4126" height="44.8951" rx="1.87063" fill="url(#paint0_linear_37_270)"/>
<mask id="mask0_37_270" style="mask-type:alpha" maskUnits="userSpaceOnUse" x="0" y="0" width="39" height="46">
<rect x="0.812988" y="0.5979" width="37.4126" height="44.8951" rx="1.87063" fill="url(#paint1_linear_37_270)"/>
</mask>
<g mask="url(#mask0_37_270)">
<path d="M36.1127 13.3153L30.1435 15.0513L36.1127 16.7866L29.8965 16.7691L35.1354 20.1182L29.1764 18.3486L33.2604 23.0387L28.0405 19.6603L30.6391 25.3117L26.5815 20.5989L27.4835 26.7536L24.917 21.0876L24.0501 27.2482L23.1831 21.0876L20.6167 26.7536L21.5187 20.5989L17.4617 25.3117L20.0597 19.6603L14.8397 23.0387L18.9237 18.3486L12.9647 20.1182L18.2037 16.7691L11.9874 16.7866L17.9566 15.0513L11.9874 13.3153L18.2037 13.3329L12.9647 9.98444L18.9237 11.7541L14.8397 7.06399L20.0597 10.4424L17.4617 4.79098L21.5187 9.50379L20.6167 3.34831L23.1831 9.0151L24.0501 2.85449L24.917 9.0151L27.4835 3.34831L26.5815 9.50379L30.6391 4.79098L28.0405 10.4424L33.2604 7.06399L29.1764 11.7541L35.1354 9.98444L29.8965 13.3329L36.1127 13.3153Z" fill="#9FDCFF"/>
</g>
<defs>
<linearGradient id="paint0_linear_37_270" x1="19.5193" y1="0.5979" x2="19.5193" y2="45.493" gradientUnits="userSpaceOnUse">
<stop stop-color="#8794D6"/>
<stop offset="1" stop-color="#42ACE8" stop-opacity="0.65"/>
</linearGradient>
<linearGradient id="paint1_linear_37_270" x1="19.5193" y1="0.5979" x2="19.5193" y2="45.493" gradientUnits="userSpaceOnUse">
<stop stop-color="#8794D6"/>
<stop offset="1" stop-color="#42ACE8" stop-opacity="0.65"/>
</linearGradient>
</defs>
</svg>
