<svg width="39" height="46" viewBox="0 0 39 46" fill="none" xmlns="http://www.w3.org/2000/svg">
<rect x="0.659058" y="0.234253" width="37.4126" height="44.8951" rx="1.87063" fill="url(#paint0_linear_37_285)"/>
<mask id="mask0_37_285" style="mask-type:alpha" maskUnits="userSpaceOnUse" x="0" y="0" width="39" height="46">
<rect x="0.659058" y="0.234253" width="37.4126" height="44.8951" rx="1.87063" fill="url(#paint1_linear_37_285)"/>
</mask>
<g mask="url(#mask0_37_285)">
<path d="M13.7536 39.568L9.77313 40.7256L13.7536 41.8827L9.60838 41.871L13.1018 44.1044L9.12825 42.9243L11.8516 46.0518L8.37077 43.799L10.1036 47.5675L7.39785 44.4249L7.99934 48.529L6.28795 44.7507L5.70985 48.8588L5.13174 44.7507L3.42035 48.529L4.02185 44.4249L1.31656 47.5675L3.04892 43.799L-0.431878 46.0518L2.29144 42.9243L-1.68216 44.1044L1.81131 41.871L-2.33386 41.8827L1.64656 40.7256L-2.33386 39.568L1.81131 39.5797L-1.68216 37.3469L2.29144 38.5269L-0.431878 35.3994L3.04892 37.6522L1.31656 33.8837L4.02185 37.0263L3.42035 32.9217L5.13174 36.7005L5.70985 32.5924L6.28795 36.7005L7.99934 32.9217L7.39785 37.0263L10.1036 33.8837L8.37077 37.6522L11.8516 35.3994L9.12825 38.5269L13.1018 37.3469L9.60838 39.5797L13.7536 39.568Z" fill="#A0DBCE"/>
<path d="M48.1731 9.60001L37.9254 12.5804L48.1731 15.5595L37.5012 15.5294L46.4953 21.2791L36.2651 18.2409L43.2764 26.2928L34.315 20.4929L38.7762 30.1951L31.8101 22.1043L33.3587 32.6706L28.9527 22.9432L27.4643 33.5196L25.976 22.9432L21.5699 32.6706L23.1185 22.1043L16.1536 30.1951L20.6137 20.4929L11.6522 26.2928L18.6635 18.2409L8.43333 21.2791L17.4274 15.5294L6.75549 15.5595L17.0032 12.5804L6.75549 9.60001L17.4274 9.63015L8.43333 3.88167L18.6635 6.91981L11.6522 -1.13209L20.6137 4.66789L16.1536 -5.03432L23.1185 3.05651L21.5699 -7.51106L25.976 2.21753L27.4643 -8.35883L28.9527 2.21753L33.3587 -7.51106L31.8101 3.05651L38.7762 -5.03432L34.315 4.66789L43.2764 -1.13209L36.2651 6.91981L46.4953 3.88167L37.5012 9.63015L48.1731 9.60001Z" fill="#9AD5FB"/>
</g>
<defs>
<linearGradient id="paint0_linear_37_285" x1="19.3654" y1="0.234253" x2="19.3654" y2="45.1294" gradientUnits="userSpaceOnUse">
<stop stop-color="#8794D6"/>
<stop offset="1" stop-color="#42ACE8" stop-opacity="0.65"/>
</linearGradient>
<linearGradient id="paint1_linear_37_285" x1="19.3654" y1="0.234253" x2="19.3654" y2="45.1294" gradientUnits="userSpaceOnUse">
<stop stop-color="#8794D6"/>
<stop offset="1" stop-color="#42ACE8" stop-opacity="0.65"/>
</linearGradient>
</defs>
</svg>
