<svg width="38" height="46" viewBox="0 0 38 46" fill="none" xmlns="http://www.w3.org/2000/svg">
<rect x="0.120605" y="0.870605" width="37.4126" height="44.8951" rx="1.87063" fill="url(#paint0_linear_37_322)"/>
<mask id="mask0_37_322" style="mask-type:alpha" maskUnits="userSpaceOnUse" x="0" y="0" width="38" height="46">
<rect x="0.120605" y="0.870605" width="37.4126" height="44.8951" rx="1.87063" fill="url(#paint1_linear_37_322)"/>
</mask>
<g mask="url(#mask0_37_322)">
<path d="M26.8706 7.87878L17.5212 10.5979L26.8706 13.3158L17.1342 13.2883L25.3398 18.534L16.0065 15.7622L22.4031 23.1082L14.2273 17.8167L18.2975 26.6684L11.9421 19.2868L13.3549 28.9268L9.33509 20.0522L7.97722 29.7014L6.61935 20.0522L2.59956 28.9268L4.01239 19.2868L-2.34188 26.6684L1.72714 17.8167L-6.44869 23.1082L-0.0520563 15.7622L-9.38539 18.534L-1.1798 13.2883L-10.9161 13.3158L-1.56678 10.5979L-10.9161 7.87878L-1.1798 7.90628L-9.38539 2.66174L-0.0520563 5.43354L-6.44869 -1.91248L1.72714 3.37904L-2.34188 -5.47262L4.01239 1.90892L2.59956 -7.73223L6.61935 1.14349L7.97722 -8.50568L9.33509 1.14349L13.3549 -7.73223L11.9421 1.90892L18.2975 -5.47262L14.2273 3.37904L22.4031 -1.91248L16.0065 5.43354L25.3398 2.66174L17.1342 7.90628L26.8706 7.87878Z" fill="#FF9FC2"/>
<path d="M56.4266 37.4347L47.0772 40.1538L56.4266 42.8718L46.6903 42.8443L54.8959 48.09L45.5625 45.3182L51.9592 52.6642L43.7833 47.3727L47.8535 56.2243L41.4981 48.8428L42.9109 58.4828L38.8911 49.6082L37.5333 59.2574L36.1754 49.6082L32.1556 58.4828L33.5684 48.8428L27.2141 56.2243L31.2832 47.3727L23.1073 52.6642L29.504 45.3182L20.1706 48.09L28.3762 42.8443L18.6399 42.8718L27.9893 40.1538L18.6399 37.4347L28.3762 37.4622L20.1706 32.2177L29.504 34.9895L23.1073 27.6435L31.2832 32.935L27.2141 24.0833L33.5684 31.4649L32.1556 21.8237L36.1754 30.6995L37.5333 21.0503L38.8911 30.6995L42.9109 21.8237L41.4981 31.4649L47.8535 24.0833L43.7833 32.935L51.9592 27.6435L45.5625 34.9895L54.8959 32.2177L46.6903 37.4622L56.4266 37.4347Z" fill="#FF9FC2"/>
</g>
<defs>
<linearGradient id="paint0_linear_37_322" x1="18.8269" y1="0.870605" x2="18.8269" y2="45.7657" gradientUnits="userSpaceOnUse">
<stop stop-color="#8794D6"/>
<stop offset="1" stop-color="#42ACE8" stop-opacity="0.65"/>
</linearGradient>
<linearGradient id="paint1_linear_37_322" x1="18.8269" y1="0.870605" x2="18.8269" y2="45.7657" gradientUnits="userSpaceOnUse">
<stop stop-color="#8794D6"/>
<stop offset="1" stop-color="#42ACE8" stop-opacity="0.65"/>
</linearGradient>
</defs>
</svg>
