<svg width="39" height="46" viewBox="0 0 39 46" fill="none" xmlns="http://www.w3.org/2000/svg">
<rect x="0.659058" y="0.870605" width="37.4126" height="44.8951" rx="1.87063" fill="url(#paint0_linear_37_291)"/>
<mask id="mask0_37_291" style="mask-type:alpha" maskUnits="userSpaceOnUse" x="0" y="0" width="39" height="46">
<rect x="0.659058" y="0.870605" width="37.4126" height="44.8951" rx="1.87063" fill="url(#paint1_linear_37_291)"/>
</mask>
<g mask="url(#mask0_37_291)">
<path d="M33.9317 21.2219L26.7236 23.3182L33.9317 25.4137L26.4252 25.3925L32.7515 29.4368L25.5558 27.2998L30.4874 32.9634L24.184 28.8837L27.322 35.7082L22.4222 30.0172L23.5114 37.4494L20.4123 30.6073L19.3654 38.0466L18.3185 30.6073L15.2193 37.4494L16.3086 30.0172L11.4096 35.7082L14.5467 28.8837L8.24337 32.9634L13.175 27.2998L5.97924 29.4368L12.3055 25.3925L4.79907 25.4137L12.0072 23.3182L4.79907 21.2219L12.3055 21.2431L5.97924 17.1996L13.175 19.3366L8.24337 13.673L14.5467 17.7527L11.4096 10.9283L16.3086 16.6192L15.2193 9.18615L18.3185 16.0291L19.3654 8.58984L20.4123 16.0291L23.5114 9.18615L22.4222 16.6192L27.322 10.9283L24.184 17.7527L30.4874 13.673L25.5558 19.3366L32.7515 17.1996L26.4252 21.2431L33.9317 21.2219Z" fill="#9BD6FB"/>
</g>
<defs>
<linearGradient id="paint0_linear_37_291" x1="19.3654" y1="0.870605" x2="19.3654" y2="45.7657" gradientUnits="userSpaceOnUse">
<stop stop-color="#8794D6"/>
<stop offset="1" stop-color="#42ACE8" stop-opacity="0.65"/>
</linearGradient>
<linearGradient id="paint1_linear_37_291" x1="19.3654" y1="0.870605" x2="19.3654" y2="45.7657" gradientUnits="userSpaceOnUse">
<stop stop-color="#8794D6"/>
<stop offset="1" stop-color="#42ACE8" stop-opacity="0.65"/>
</linearGradient>
</defs>
</svg>
