<svg width="39" height="46" viewBox="0 0 39 46" fill="none" xmlns="http://www.w3.org/2000/svg">
<rect x="0.659058" y="0.507019" width="37.4126" height="44.8951" rx="1.87063" fill="url(#paint0_linear_37_328)"/>
<mask id="mask0_37_328" style="mask-type:alpha" maskUnits="userSpaceOnUse" x="0" y="0" width="39" height="46">
<rect x="0.659058" y="0.507019" width="37.4126" height="44.8951" rx="1.87063" fill="url(#paint1_linear_37_328)"/>
</mask>
<g mask="url(#mask0_37_328)">
<path d="M25.3514 19.9742L15.1036 22.9545L25.3514 25.9336L14.6794 25.9035L23.6735 31.6532L13.4433 28.6151L20.4546 36.667L11.4932 30.867L15.9545 40.5692L8.98835 32.4784L10.5369 43.0447L6.13088 33.3174L4.64254 43.8937L3.15419 33.3174L-1.25186 43.0447L0.296721 32.4784L-6.66813 40.5692L-2.20812 30.867L-11.1696 36.667L-4.15827 28.6151L-14.3884 31.6532L-5.39438 25.9035L-16.0663 25.9336L-5.81854 22.9545L-16.0663 19.9742L-5.39438 20.0043L-14.3884 14.2558L-4.15827 17.294L-11.1696 9.24206L-2.20812 15.042L-6.66813 5.33982L0.296721 13.4307L-1.25186 2.86309L3.15419 12.5917L4.64254 2.01532L6.13088 12.5917L10.5369 2.86309L8.98835 13.4307L15.9545 5.33982L11.4932 15.042L20.4546 9.24206L13.4433 17.294L23.6735 14.2558L14.6794 20.0043L25.3514 19.9742Z" fill="#FF9FC2"/>
</g>
<defs>
<linearGradient id="paint0_linear_37_328" x1="19.3654" y1="0.507019" x2="19.3654" y2="45.4021" gradientUnits="userSpaceOnUse">
<stop stop-color="#8794D6"/>
<stop offset="1" stop-color="#42ACE8" stop-opacity="0.65"/>
</linearGradient>
<linearGradient id="paint1_linear_37_328" x1="19.3654" y1="0.507019" x2="19.3654" y2="45.4021" gradientUnits="userSpaceOnUse">
<stop stop-color="#8794D6"/>
<stop offset="1" stop-color="#42ACE8" stop-opacity="0.65"/>
</linearGradient>
</defs>
</svg>
