<svg width="39" height="46" viewBox="0 0 39 46" fill="none" xmlns="http://www.w3.org/2000/svg">
<rect x="0.966797" y="0.507019" width="37.4126" height="44.8951" rx="1.87063" fill="url(#paint0_linear_37_306)"/>
<mask id="mask0_37_306" style="mask-type:alpha" maskUnits="userSpaceOnUse" x="0" y="0" width="39" height="46">
<rect x="0.966797" y="0.507019" width="37.4126" height="44.8951" rx="1.87063" fill="url(#paint1_linear_37_306)"/>
</mask>
<g mask="url(#mask0_37_306)">
<path d="M25.6591 19.9742L15.4114 22.9545L25.6591 25.9336L14.9872 25.9035L23.9813 31.6532L13.7511 28.6151L20.7624 36.667L11.8009 30.867L16.2622 40.5692L9.29609 32.4784L10.8447 43.0447L6.43862 33.3174L4.95028 43.8937L3.46193 33.3174L-0.944121 43.0447L0.60446 32.4784L-6.36039 40.5692L-1.90038 30.867L-10.8618 36.667L-3.85053 28.6151L-14.0807 31.6532L-5.08664 25.9035L-15.7585 25.9336L-5.5108 22.9545L-15.7585 19.9742L-5.08664 20.0043L-14.0807 14.2558L-3.85053 17.294L-10.8618 9.24206L-1.90038 15.042L-6.36039 5.33982L0.60446 13.4307L-0.944121 2.86309L3.46193 12.5917L4.95028 2.01532L6.43862 12.5917L10.8447 2.86309L9.29609 13.4307L16.2622 5.33982L11.8009 15.042L20.7624 9.24206L13.7511 17.294L23.9813 14.2558L14.9872 20.0043L25.6591 19.9742Z" fill="#FF9FC2"/>
</g>
<defs>
<linearGradient id="paint0_linear_37_306" x1="19.6731" y1="0.507019" x2="19.6731" y2="45.4021" gradientUnits="userSpaceOnUse">
<stop stop-color="#8794D6"/>
<stop offset="1" stop-color="#42ACE8" stop-opacity="0.65"/>
</linearGradient>
<linearGradient id="paint1_linear_37_306" x1="19.6731" y1="0.507019" x2="19.6731" y2="45.4021" gradientUnits="userSpaceOnUse">
<stop stop-color="#8794D6"/>
<stop offset="1" stop-color="#42ACE8" stop-opacity="0.65"/>
</linearGradient>
</defs>
</svg>
