<svg width="80" height="81" viewBox="0 0 80 81" fill="none" xmlns="http://www.w3.org/2000/svg">
<rect x="0.126953" y="0.385498" width="79.8696" height="80" rx="8.47999" fill="#6050CE"/>
<path d="M40.0331 68.488C55.5442 68.488 68.1184 55.8932 68.1184 40.3568C68.1184 24.8204 55.5442 12.2256 40.0331 12.2256C24.522 12.2256 11.9478 24.8204 11.9478 40.3568C11.9478 55.8932 24.522 68.488 40.0331 68.488Z" stroke="#E47976" stroke-width="0.55455" stroke-miterlimit="10"/>
<path d="M40.0329 52.6895C46.833 52.6895 52.3456 47.1679 52.3456 40.3567C52.3456 33.5455 46.833 28.0239 40.0329 28.0239C33.2328 28.0239 27.7202 33.5455 27.7202 40.3567C27.7202 47.1679 33.2328 52.6895 40.0329 52.6895Z" stroke="#E47976" stroke-width="0.55455" stroke-miterlimit="10"/>
<path d="M40.0325 60.6784C51.4025 60.6784 60.6197 51.4461 60.6197 40.0576C60.6197 28.669 51.4025 19.4368 40.0325 19.4368C28.6625 19.4368 19.4453 28.669 19.4453 40.0576C19.4453 51.4461 28.6625 60.6784 40.0325 60.6784Z" stroke="#E47976" stroke-width="0.55455" stroke-miterlimit="10"/>
<path d="M40.0332 12.2256V68.488" stroke="#E47976" stroke-width="0.55455" stroke-miterlimit="10"/>
<path d="M68.1184 40.3569H11.9478" stroke="#E47976" stroke-width="0.55455" stroke-miterlimit="10"/>
<path d="M59.8935 20.4656L20.1743 60.2496" stroke="#E47976" stroke-width="0.55455" stroke-miterlimit="10"/>
<path d="M59.8935 60.2496L20.1743 20.4656" stroke="#E47976" stroke-width="0.55455" stroke-miterlimit="10"/>
<path d="M65.2703 28.0112L14.7959 52.7024" stroke="#E47976" stroke-width="0.55455" stroke-miterlimit="10"/>
<path d="M52.3585 65.6352L27.7075 15.0784" stroke="#E47976" stroke-width="0.55455" stroke-miterlimit="10"/>
<path d="M66.5928 49.5022L13.4731 31.2126" stroke="#E47976" stroke-width="0.55455" stroke-miterlimit="10"/>
<path d="M30.9038 66.9601L49.1636 13.7537" stroke="#E47976" stroke-width="0.55455" stroke-miterlimit="10"/>
</svg>
