<svg width="81" height="81" viewBox="0 0 81 81" fill="none" xmlns="http://www.w3.org/2000/svg">
<rect x="0.972168" y="0.385498" width="80" height="80" rx="8.47999" fill="#FB423D"/>
<path d="M14.7319 40.3471V14.1455" stroke="#E8AED4" stroke-width="0.166365" stroke-miterlimit="10"/>
<path d="M16.748 40.3471V14.1455" stroke="#E8AED4" stroke-width="0.388185" stroke-miterlimit="10"/>
<path d="M18.7637 40.3471V14.1455" stroke="#E8AED4" stroke-width="0.388185" stroke-miterlimit="10"/>
<path d="M20.7803 40.3471V14.1455" stroke="#E8AED4" stroke-width="0.388185" stroke-miterlimit="10"/>
<path d="M22.7939 40.3471V14.1455" stroke="#E8AED4" stroke-width="0.388185" stroke-miterlimit="10"/>
<path d="M24.8101 40.3471V14.1455" stroke="#E8AED4" stroke-width="0.388185" stroke-miterlimit="10"/>
<path d="M26.8262 40.3471V14.1455" stroke="#E8AED4" stroke-width="0.388185" stroke-miterlimit="10"/>
<path d="M28.8423 40.3471V14.1455" stroke="#E8AED4" stroke-width="0.388185" stroke-miterlimit="10"/>
<path d="M30.8584 40.3471V14.1455" stroke="#E8AED4" stroke-width="0.388185" stroke-miterlimit="10"/>
<path d="M32.8726 40.3471V14.1455" stroke="#E8AED4" stroke-width="0.388185" stroke-miterlimit="10"/>
<path d="M34.8892 40.3471V14.1455" stroke="#E8AED4" stroke-width="0.388185" stroke-miterlimit="10"/>
<path d="M36.9048 40.3471V14.1455" stroke="#E8AED4" stroke-width="0.388185" stroke-miterlimit="10"/>
<path d="M38.9209 40.3471V14.1455" stroke="#E8AED4" stroke-width="0.388185" stroke-miterlimit="10"/>
<path d="M40.9365 40.3471V14.1455" stroke="#E8AED4" stroke-width="0.166365" stroke-miterlimit="10"/>
<path d="M67.1399 14.1455H14.7319V66.5535H67.1399V14.1455Z" stroke="#002BB5" stroke-width="0.388185" stroke-miterlimit="10"/>
<path d="M67.1399 40.3489H14.7319" stroke="#002BB5" stroke-width="0.166365" stroke-miterlimit="10"/>
<path d="M40.9365 66.5519V14.1455" stroke="#002BB5" stroke-width="0.166365" stroke-miterlimit="10"/>
<path d="M38.252 63.7455H17.292V56.2146L27.7727 43.5854L38.252 56.2146V63.7455Z" fill="#F6F47C"/>
<path d="M63.7192 54.5349L58.7324 54.6174L63.0487 57.1146L58.2242 55.8489L61.7049 59.417L57.4014 56.8985L59.7902 61.2715L56.3266 57.6863L57.4455 62.5429L55.0796 58.157L54.8447 63.133L53.75 58.2722L52.1812 63.0022L52.4403 58.0262L49.6515 62.1575L51.2445 57.436L47.4435 60.6614L50.2522 56.5444L45.721 58.6263L49.5376 55.4195L44.6121 56.203L49.1547 54.1438L44.1992 53.5707L49.129 52.8113L44.5124 50.9241L49.465 51.5214L45.5288 48.461L50.1355 50.3709L47.1731 46.362L51.0936 49.4437L49.3226 44.7849L52.2652 48.808L51.8196 43.8448L53.5663 48.5122L54.476 43.613L54.8988 48.5777L57.0982 44.1065L56.1629 49L59.4884 45.2869L57.2676 49.7481L61.4728 47.0688L58.1274 50.7663L62.9007 49.32L58.6826 51.9779L63.6694 51.8713L58.889 53.2934L63.7192 54.5349Z" stroke="#E8AED4" stroke-width="0.33273" stroke-miterlimit="10"/>
<path d="M48.9081 36.4671C51.1102 36.4671 52.8953 34.6819 52.8953 32.4799C52.8953 30.2778 51.1102 28.4927 48.9081 28.4927C46.706 28.4927 44.9209 30.2778 44.9209 32.4799C44.9209 34.6819 46.706 36.4671 48.9081 36.4671Z" fill="#F6F47C"/>
<path d="M58.9926 36.4671C61.1946 36.4671 62.9798 34.6819 62.9798 32.4799C62.9798 30.2778 61.1946 28.4927 58.9926 28.4927C56.7905 28.4927 55.0054 30.2778 55.0054 32.4799C55.0054 34.6819 56.7905 36.4671 58.9926 36.4671Z" fill="#F8C6F3"/>
<path d="M48.9081 26C51.1102 26 52.8953 24.2149 52.8953 22.0128C52.8953 19.8108 51.1102 18.0256 48.9081 18.0256C46.706 18.0256 44.9209 19.8108 44.9209 22.0128C44.9209 24.2149 46.706 26 48.9081 26Z" fill="#F6F47C"/>
<path d="M58.9926 26C61.1946 26 62.9798 24.2149 62.9798 22.0128C62.9798 19.8108 61.1946 18.0256 58.9926 18.0256C56.7905 18.0256 55.0054 19.8108 55.0054 22.0128C55.0054 24.2149 56.7905 26 58.9926 26Z" fill="#F6F47C"/>
</svg>
