<svg width="81" height="81" viewBox="0 0 81 81" fill="none" xmlns="http://www.w3.org/2000/svg">
<rect x="0.793945" y="0.385498" width="79.9349" height="80" rx="8.47999" fill="#F95E47"/>
<path d="M26.8094 69.624C22.4537 69.624 18.2763 67.8923 15.1963 64.8098C12.1163 61.7273 10.386 57.5465 10.386 53.1872V51.4112C10.386 49.2314 11.2513 47.1408 12.7914 45.5994C14.3316 44.058 16.4204 43.192 18.5985 43.192V43.192C20.7766 43.192 22.8655 44.058 24.4056 45.5994C25.9458 47.1408 26.811 49.2314 26.811 51.4112L26.811 69.624H26.8094Z" fill="#C4C42A"/>
<path d="M48.7499 69.624C44.3941 69.624 40.2168 67.8923 37.1368 64.8098C34.0568 61.7273 32.3265 57.5465 32.3265 53.1872V51.4112C32.3265 49.2314 33.1917 47.1408 34.7319 45.5994C36.272 44.058 38.3609 43.192 40.539 43.192C42.7171 43.192 44.8059 44.058 46.3461 45.5994C47.8862 47.1408 48.7515 49.2314 48.7515 51.4112V69.624H48.7499Z" fill="#115ABF"/>
<path d="M71.2821 69.624C66.9263 69.624 62.749 67.8923 59.669 64.8098C56.589 61.7273 54.8587 57.5465 54.8587 53.1872V51.4112C54.8587 49.2314 55.7239 47.1408 57.2641 45.5994C58.8042 44.058 60.8931 43.192 63.0712 43.192C65.2493 43.192 67.3382 44.058 68.8783 45.5994C70.4185 47.1408 71.2837 49.2314 71.2837 51.4112V69.624H71.2821Z" fill="#C4C42A"/>
<path d="M26.8094 37.5378C24.6527 37.5378 22.517 37.1127 20.5245 36.2867C18.5319 35.4606 16.7214 34.2499 15.1963 32.7236C13.6713 31.1973 12.4615 29.3853 11.6362 27.3911C10.8108 25.3969 10.386 23.2596 10.386 21.101V19.325C10.386 17.1452 11.2513 15.0546 12.7914 13.5132C14.3316 11.9718 16.4204 11.1058 18.5985 11.1058V11.1058C20.7766 11.1058 22.8655 11.9718 24.4056 13.5132C25.9458 15.0546 26.811 17.1452 26.811 19.325L26.811 37.5378H26.8094Z" fill="#79BDD8"/>
<path d="M48.7499 37.5378C46.5931 37.5378 44.4575 37.1127 42.4649 36.2867C40.4723 35.4606 38.6618 34.2499 37.1368 32.7236C35.6117 31.1973 34.402 29.3853 33.5766 27.3911C32.7513 25.3969 32.3265 23.2596 32.3265 21.101V19.325C32.3265 17.1452 33.1917 15.0546 34.7319 13.5132C36.272 11.9718 38.3609 11.1058 40.539 11.1058C42.7171 11.1058 44.8059 11.9718 46.3461 13.5132C47.8862 15.0546 48.7515 17.1452 48.7515 19.325V37.5378H48.7499Z" fill="#FC8BCC"/>
<path d="M71.2821 37.5378C66.9263 37.5378 62.749 35.8061 59.669 32.7236C56.589 29.6411 54.8587 25.4604 54.8587 21.101V19.325C54.8587 17.1452 55.7239 15.0546 57.2641 13.5132C58.8042 11.9718 60.8931 11.1058 63.0712 11.1058C65.2493 11.1058 67.3382 11.9718 68.8783 13.5132C70.4185 15.0546 71.2837 17.1452 71.2837 19.325V37.5378H71.2821Z" fill="#FC8BCC"/>
</svg>
