<svg width="81" height="81" viewBox="0 0 81 81" fill="none" xmlns="http://www.w3.org/2000/svg">
<rect x="0.883301" y="0.385498" width="80" height="80" rx="8.38" fill="#002BB5"/>
<g clip-path="url(#clip0_79_1035)">
<path d="M40.3281 15.1055H41.6081C44.001 15.1055 46.2959 16.056 47.9879 17.7481C49.68 19.4401 50.6305 21.735 50.6305 24.1279V26.6959C50.6305 29.0888 49.68 31.3836 47.9879 33.0757C46.2959 34.7677 44.001 35.7183 41.6081 35.7183H40.3281V15.1055V15.1055Z" fill="#F24D1D"/>
<path d="M25.4492 20.3987L26.4782 19.6373C28.4017 18.214 30.8119 17.613 33.1785 17.9667C35.5451 18.3204 37.6742 19.5998 39.0976 21.5233L40.6251 23.5876C41.331 24.5398 41.8423 25.6216 42.1299 26.7715C42.4175 27.9213 42.4757 29.1165 42.3013 30.2888C42.1268 31.4612 41.7231 32.5876 41.1131 33.6039C40.5032 34.6201 39.699 35.5062 38.7465 36.2116L37.7175 36.9729L25.4518 20.3968L25.4492 20.3987Z" fill="#FF8577"/>
<path d="M16.6377 33.512L17.0119 32.2879C17.7115 29.9996 19.2915 28.0829 21.4043 26.9595C23.5171 25.8361 25.9897 25.598 28.278 26.2976L30.7338 27.0485C33.0221 27.7481 34.9388 29.328 36.0622 31.4408C37.1856 33.5536 37.4237 36.0262 36.7241 38.3145L36.3498 39.5386L16.6377 33.512Z" fill="#FFC700"/>
<path d="M17.3525 49.2825L16.9253 48.0759C16.1265 45.8203 16.2565 43.3397 17.2867 41.1799C18.3168 39.0201 20.1628 37.358 22.4184 36.5592L24.8391 35.702C27.0941 34.903 29.5741 35.0324 31.7337 36.0615C33.8934 37.0907 35.5559 38.9354 36.3557 41.1901L36.7829 42.3967L17.3509 49.2779L17.3525 49.2825Z" fill="#A837DD"/>
<path d="M27.3149 61.5437L26.2538 60.8279C24.27 59.4898 22.899 57.4185 22.4424 55.0696C21.9858 52.7207 22.4811 50.2866 23.8191 48.3028L25.2551 46.1738C26.5933 44.1937 28.6624 42.8254 31.0082 42.3692C33.3541 41.913 35.7852 42.4061 37.7679 43.7404L38.829 44.4562L27.307 61.5383L27.3149 61.5437Z" fill="#11A858"/>
<path d="M42.6045 65.4712L41.3257 65.527C38.9351 65.6314 36.6009 64.7818 34.8367 63.1652C33.0725 61.5486 32.0227 59.2974 31.9184 56.9068L31.8063 54.3412C31.702 51.9506 32.5515 49.6164 34.1681 47.8522C35.7847 46.088 38.036 45.0382 40.4266 44.9338L41.7054 44.878L42.6045 65.4712Z" fill="#F24D1D"/>
<path d="M57.2393 59.5317L56.2445 60.3373C54.3849 61.8432 52.0032 62.5487 49.6234 62.2985C47.2436 62.0484 45.0607 60.8632 43.5548 59.0035L41.9387 57.0078C40.4328 55.1482 39.7273 52.7665 39.9775 50.3867C40.2276 48.007 41.4128 45.824 43.2725 44.3181L44.2672 43.5126L57.2393 59.5317Z" fill="#FF8577"/>
<path d="M53.5854 18.5132L54.6768 19.182C56.7171 20.4323 58.1771 22.4418 58.7358 24.7686C59.2944 27.0954 58.9058 29.5488 57.6555 31.589L56.3137 33.7786C55.0634 35.8189 53.0539 37.2789 50.7271 37.8375C48.4003 38.3961 45.9469 38.0076 43.9067 36.7573L42.8153 36.0885L53.5854 18.5132Z" fill="#11A858"/>
<path d="M63.8901 28.5645L64.3696 29.7512C65.266 31.9699 65.2443 34.4538 64.3094 36.6564C63.3744 38.8591 61.6027 40.6002 59.3841 41.4965L56.9971 42.4609C54.7785 43.3573 52.2946 43.3356 50.0919 42.4007C47.8893 41.4657 46.1482 39.694 45.2518 37.4753L44.7723 36.2885L63.8901 28.5645Z" fill="#A837DD"/>
<path d="M65.292 44.2947L64.9715 45.5339C64.3724 47.8506 62.8775 49.8344 60.8157 51.0488C58.7539 52.2633 56.2941 52.609 53.9775 52.0099L51.4913 51.3669C49.1746 50.7678 47.1908 49.2729 45.9763 47.2111C44.7618 45.1493 44.4161 42.6895 45.0153 40.3729L45.3358 39.1336L65.292 44.2947Z" fill="#FEC700"/>
</g>
<defs>
<clipPath id="clip0_79_1035">
<rect width="48.888" height="50.4304" fill="white" transform="translate(16.4033 15.1055)"/>
</clipPath>
</defs>
</svg>
