<svg width="81" height="81" viewBox="0 0 81 81" fill="none" xmlns="http://www.w3.org/2000/svg">
<rect x="0.793945" y="0.385498" width="79.9349" height="80" rx="8.34565" fill="#47D6CE"/>
<path d="M40.8083 12.2414L13.9038 11.7454V13.7822L40.8083 13.2862L67.7351 12.7902V12.7374L40.8083 12.2414Z" fill="#C43F53"/>
<path d="M40.8083 14.3676L13.9038 13.9084V15.8716L40.8083 15.4124L67.7351 14.9564V14.8252L40.8083 14.3676Z" fill="#C43F53"/>
<path d="M40.8083 16.4943L13.9038 16.0735V17.9615L40.8083 17.5391L67.7351 17.1231V16.9119L40.8083 16.4943Z" fill="#C43F53"/>
<path d="M40.8083 18.6206L13.9038 18.2366V20.051L40.8083 19.6654L67.7351 19.2878V18.9982L40.8083 18.6206Z" fill="#C43F53"/>
<path d="M40.8083 20.7469L13.9038 20.3997V22.1405L40.8083 21.7917L67.7351 21.4541V21.0861L40.8083 20.7469Z" fill="#C43F53"/>
<path d="M40.8083 22.8734L13.9038 22.563V24.2302L40.8083 23.9182L67.7351 23.619V23.1742L40.8083 22.8734Z" fill="#C43F53"/>
<path d="M40.8083 24.9998L13.9038 24.7278V26.3182L40.8083 26.0446L67.7351 25.7854V25.2606L40.8083 24.9998Z" fill="#C43F53"/>
<path d="M40.8083 27.1261L13.9038 26.8909V28.4077L40.8083 28.1725L67.7351 27.9501V27.3485L40.8083 27.1261Z" fill="#C43F53"/>
<path d="M40.8083 29.2543L13.9038 29.0559V30.4975L40.8083 30.2991L67.7351 30.1151V29.4367L40.8083 29.2543Z" fill="#C43F53"/>
<path d="M40.8083 31.379L13.9038 31.219V32.5854L40.8083 32.4254L67.7351 32.2798V31.5246L40.8083 31.379Z" fill="#C43F53"/>
<path d="M40.8083 33.507L13.9038 33.3838V34.6734L40.8083 34.5518L67.7351 34.4446V33.6126L40.8083 33.507Z" fill="#C43F53"/>
<path d="M40.8083 35.6334L13.9038 35.5486V36.763L40.8083 36.6782L67.7351 36.6094V35.7006L40.8083 35.6334Z" fill="#C43F53"/>
<path d="M40.8083 37.7597L13.9038 37.7117V38.8509L40.8083 38.8045L67.7351 38.7741V37.7885L40.8083 37.7597Z" fill="#C43F53"/>
<path d="M40.8083 39.8863L13.9038 39.8767V40.9391L40.8083 40.9311L67.7351 40.9391V39.8767L40.8083 39.8863Z" fill="#C43F53"/>
<path d="M40.8083 42.0126L13.9038 42.0414V43.0286L40.8083 43.0574L67.7351 43.1038V41.9646L40.8083 42.0126Z" fill="#C43F53"/>
<path d="M40.8083 44.139L13.9038 44.2062V45.1166L40.8083 45.1838L67.7351 45.2686V44.0542L40.8083 44.139Z" fill="#C43F53"/>
<path d="M40.8083 46.2653L13.9038 46.3709V47.2045L40.8083 47.3101L67.7351 47.4333V46.1421L40.8083 46.2653Z" fill="#C43F53"/>
<path d="M40.8083 48.3918L13.9038 48.5358V49.2926L40.8083 49.4366L67.7351 49.5966V48.2302L40.8083 48.3918Z" fill="#C43F53"/>
<path d="M40.8083 50.5182L13.9038 50.7006V51.3806L40.8083 51.563L67.7351 51.7614V50.3198L40.8083 50.5182Z" fill="#C43F53"/>
<path d="M40.8083 52.6444L13.9038 52.8652V53.4668L40.8083 53.6892L67.7351 53.926V52.4092L40.8083 52.6444Z" fill="#C43F53"/>
<path d="M40.8083 54.7709L13.9038 55.0317V55.5549L40.8083 55.8157L67.7351 56.0893V54.4973L40.8083 54.7709Z" fill="#C43F53"/>
<path d="M40.8083 56.8973L13.9038 57.1965V57.6429L40.8083 57.9421L67.7351 58.2525V56.5869L40.8083 56.8973Z" fill="#C43F53"/>
<path d="M40.8083 59.0238L13.9038 59.363V59.731L40.8083 60.0686L67.7351 60.4174V58.675L40.8083 59.0238Z" fill="#C43F53"/>
<path d="M40.8083 61.1502L13.9038 61.5278V61.8174L40.8083 62.195L67.7351 62.5807V60.7646L40.8083 61.1502Z" fill="#C43F53"/>
<path d="M40.8083 63.2766L13.9038 63.6942V63.9054L40.8083 64.3214L67.7351 64.7438V62.8542L40.8083 63.2766Z" fill="#C43F53"/>
<path d="M40.8083 65.4028L13.9038 65.8588V65.9916L40.8083 66.4476L67.7351 66.9068V64.9436L40.8083 65.4028Z" fill="#C43F53"/>
<path d="M40.8083 67.5294L13.9038 68.0254V68.0798L40.8083 68.5742L67.7351 69.0718V67.0334L40.8083 67.5294Z" fill="#C43F53"/>
</svg>
