<svg width="81" height="81" viewBox="0 0 81 81" fill="none" xmlns="http://www.w3.org/2000/svg">
<rect x="0.550781" y="0.385498" width="79.8696" height="80" rx="8.38" fill="#F7D1DD"/>
<path d="M14.8487 65.8256L72.2749 65.8256L65.8325 72.2256L14.8487 72.2256L14.8487 65.8256Z" fill="#184DF7"/>
<path d="M65.9449 65.8257L65.9449 10.4114L72.2749 16.8713L72.2749 65.8257L65.9449 65.8257Z" fill="#AB64FF"/>
<path d="M42.9675 13.1947L56.1773 23.9374L40.2841 30.0248L42.9675 13.1947Z" fill="#F1F58F"/>
<rect width="9.10953" height="17.5915" rx="4.55476" transform="matrix(0.839069 0.544025 -0.542775 0.839878 47.3867 38.991)" fill="#11A858"/>
<path d="M19.2501 22.2034L23.5773 23.4297L26.3574 26.9653L26.5283 31.4596L24.0248 35.1962L19.8032 36.7476L15.476 35.5213L12.696 31.9857L12.5251 27.4913L15.0285 23.7548L19.2501 22.2034Z" fill="#FE6600"/>
</svg>
