<svg width="81" height="81" viewBox="0 0 81 81" fill="none" xmlns="http://www.w3.org/2000/svg">
<rect x="0.915527" y="0.385498" width="79.9349" height="80" rx="8.47999" fill="#208D66"/>
<path d="M41.0654 62.5181C28.8881 62.5181 18.981 52.5981 18.981 40.4173H25.08C25.08 43.5818 26.0176 46.6752 27.7743 49.3064C29.531 51.9376 32.0278 53.9884 34.949 55.1994C37.8702 56.4104 41.0847 56.7272 44.1859 56.1098C47.287 55.4925 50.1356 53.9686 52.3714 51.731C54.6073 49.4934 56.1299 46.6424 56.7467 43.5387C57.3636 40.435 57.047 37.218 55.837 34.2943C54.627 31.3707 52.5779 28.8719 49.9488 27.1138C47.3198 25.3557 44.2289 24.4173 41.067 24.4173V18.3213C53.2443 18.3213 63.1514 28.2413 63.1514 40.4237C63.1514 52.6061 53.2427 62.5181 41.0654 62.5181Z" fill="#FCE93D"/>
<path d="M41.1185 56.4398C36.8687 56.4398 32.793 54.7502 29.788 51.7427C26.7829 48.7352 25.0947 44.6562 25.0947 40.403C25.0947 36.1498 26.7829 32.0708 29.788 29.0633C32.793 26.0558 36.8687 24.3662 41.1185 24.3662V30.4702C38.4863 30.4702 35.9619 31.5167 34.1006 33.3794C32.2394 35.2422 31.1938 37.7687 31.1938 40.403C31.1938 43.0373 32.2394 45.5638 34.1006 47.4266C35.9619 49.2893 38.4863 50.3358 41.1185 50.3358V56.4398Z" fill="#0000FF"/>
<path d="M40.8996 68.4207V62.3215C52.9729 62.3215 62.8017 52.4911 62.8017 40.4015C62.8017 28.3119 52.9793 18.4815 40.8996 18.4815C28.8198 18.4815 18.9974 28.3119 18.9974 40.4015H12.9048C12.9048 24.9535 25.4642 12.3855 40.8996 12.3855C56.335 12.3855 68.8943 24.9535 68.8943 40.4015C68.8943 55.8495 56.335 68.4207 40.8996 68.4207Z" fill="#FD4B01"/>
</svg>
