<svg width="81" height="81" viewBox="0 0 81 81" fill="none" xmlns="http://www.w3.org/2000/svg">
<rect x="0.640137" y="0.385498" width="79.9348" height="80" rx="8.29626" fill="#FA70CA"/>
<path d="M26.6455 27.5774V10.5103L9.59221 10.5103V27.5774H26.6455Z" fill="#8AC6D2"/>
<path d="M71.6509 49.8271V71.8335H49.664V66.8975C49.664 64.6563 50.1051 62.4369 50.9621 60.3662C51.8191 58.2955 53.0752 56.4141 54.6588 54.8292C56.2423 53.2444 58.1223 51.9872 60.1913 51.1295C62.2603 50.2718 64.4778 49.8304 66.7173 49.8304H71.6493L71.6509 49.8271Z" fill="#11A858"/>
<path d="M26.652 72.2224L71.5961 25.8336L71.5354 25.7728H71.6505V8.70557H54.5972V8.82077L54.5364 8.75997L9.62266 55.12H9.59229V72.1872H26.6168L26.652 72.2224Z" fill="#FFC700"/>
</svg>
