<svg width="81" height="81" viewBox="0 0 81 81" fill="none" xmlns="http://www.w3.org/2000/svg">
<rect x="0.858887" y="0.385498" width="79.8045" height="80" rx="8.47999" fill="#B50B65"/>
<path d="M66.589 23.5472V46.216C66.589 52.7056 64.0173 58.9293 59.4398 63.5181C54.8622 68.1069 48.6536 70.6848 42.18 70.6848V70.6848C35.7074 70.6831 29.5005 68.1044 24.9243 63.5158C20.3481 58.9272 17.7773 52.7044 17.7773 46.216V10.1472" stroke="#FD4B01" stroke-width="0.775737" stroke-miterlimit="10"/>
<path d="M42.9956 65.5759C36.3073 65.5759 29.8929 62.9125 25.1636 58.1716C20.4343 53.4306 17.7773 47.0006 17.7773 40.2959" stroke="#FD4B01" stroke-width="0.775737" stroke-miterlimit="10"/>
<path d="M42.9956 60.552C36.3073 60.552 29.8929 57.8885 25.1636 53.1476C20.4343 48.4067 17.7773 41.9766 17.7773 35.272" stroke="#FD4B01" stroke-width="0.775737" stroke-miterlimit="10"/>
<path d="M42.9956 55.5263C36.3073 55.5263 29.8929 52.8629 25.1636 48.122C20.4343 43.3811 17.7773 36.951 17.7773 30.2463" stroke="#FD4B01" stroke-width="0.775737" stroke-miterlimit="10"/>
<path d="M42.9956 50.4943C36.3073 50.4943 29.8929 47.8309 25.1636 43.09C20.4343 38.3491 17.7773 31.919 17.7773 25.2144" stroke="#FD4B01" stroke-width="0.775737" stroke-miterlimit="10"/>
<path d="M42.9956 45.9104C36.3073 45.9104 29.8929 43.2469 25.1636 38.506C20.4343 33.7651 17.7773 27.335 17.7773 20.6304" stroke="#FD4B01" stroke-width="0.775737" stroke-miterlimit="10"/>
<path d="M42.9956 40.4497C36.3073 40.4497 29.8929 37.7863 25.1636 33.0453C20.4343 28.3044 17.7773 21.8743 17.7773 15.1697" stroke="#FD4B01" stroke-width="0.775737" stroke-miterlimit="10"/>
<path d="M42.9956 35.4255C36.3073 35.4255 29.8929 32.7621 25.1636 28.0212C20.4343 23.2803 17.7773 16.8502 17.7773 10.1455" stroke="#FD4B01" stroke-width="0.775737" stroke-miterlimit="10"/>
<path d="M58.6234 57.2608L47.2065 50.6528V63.8688L58.6234 57.2608Z" fill="#CF84F0"/>
<path d="M58.6234 44.0448L47.2065 37.4368V50.6528L58.6234 44.0448Z" fill="#CF84F0"/>
<path d="M58.6234 30.8272L47.2065 24.2192V37.4368L58.6234 30.8272Z" fill="#CF84F0"/>
<path d="M58.6234 17.6112L47.2065 11.0032V24.2192L58.6234 17.6112Z" fill="#CF84F0"/>
</svg>
