<svg width="81" height="81" viewBox="0 0 81 81" fill="none" xmlns="http://www.w3.org/2000/svg">
<rect x="0.883301" y="0.385498" width="80" height="80" rx="8.47999" fill="#0B80BD"/>
<path d="M49.7291 40.3231L49.6907 41.1967C49.6571 41.4863 49.6091 41.7743 49.5691 42.0639C49.5291 42.3535 49.4347 42.6319 49.3691 42.9167C49.3035 43.2015 49.1835 43.4719 49.0907 43.7487C48.5372 45.1977 47.6375 46.4893 46.4701 47.5106C45.3028 48.532 43.9032 49.2522 42.3935 49.6084C40.8838 49.9645 39.3099 49.9458 37.8092 49.5539C36.3084 49.162 34.9263 48.4088 33.7835 47.3599C32.8157 46.4675 32.0436 45.3838 31.5163 44.1775C30.9885 42.9611 30.7162 41.6492 30.7163 40.3231L30.7723 39.3343C30.8139 39.0143 30.8715 38.6799 30.9227 38.3551C30.9739 38.0303 31.0923 37.7151 31.1771 37.3951C31.2619 37.0751 31.4091 36.7759 31.5275 36.4687C32.0564 35.2639 32.8289 34.1815 33.7963 33.2895C34.7538 32.4182 35.8762 31.7474 37.0971 31.3167C39.4306 30.5157 41.9836 30.6492 44.2208 31.6894C46.458 32.7295 48.2056 34.5955 49.0971 36.8959C49.1899 37.1743 49.2939 37.4479 49.3771 37.7279C49.4603 38.0079 49.5163 38.2975 49.5771 38.5823C49.6379 38.8671 49.6651 39.1583 49.6987 39.4479L49.7291 40.3231ZM49.4939 40.3231C49.495 38.6114 48.9875 36.938 48.036 35.5151C47.0845 34.0922 45.7318 32.984 44.1495 32.3311C42.5672 31.6782 40.8266 31.51 39.1486 31.8479C37.4705 32.1857 35.9307 33.0144 34.7243 34.2287C33.5225 35.4371 32.7048 36.974 32.3743 38.6459C32.0437 40.3178 32.215 42.0502 32.8666 43.625C33.5183 45.1998 34.6211 46.5467 36.0363 47.4963C37.4516 48.4458 39.116 48.9556 40.8203 48.9615C43.116 48.9654 45.3193 48.0574 46.9458 46.4372C48.5723 44.817 49.4888 42.6173 49.4939 40.3215V40.3231Z" fill="#DEAF45"/>
<path d="M50.8896 40.3232C50.9031 41.6486 50.6558 42.9637 50.1616 44.1936C49.9151 44.8098 49.6159 45.4034 49.2672 45.968C48.9119 46.5333 48.5026 47.0628 48.0448 47.5488C47.0985 48.5724 45.959 49.3988 44.6921 49.9803C43.4251 50.5617 42.0557 50.8869 40.6626 50.937C39.2695 50.9871 37.8802 50.7612 36.5747 50.2723C35.2693 49.7833 34.0734 49.041 33.056 48.088C32.5331 47.5914 32.0594 47.0454 31.6416 46.4576C31.2189 45.868 30.8621 45.2338 30.5776 44.5664C29.9963 43.2285 29.6963 41.7852 29.6963 40.3264C29.6963 38.8676 29.9963 37.4244 30.5776 36.0864C31.1599 34.7587 32.0033 33.5616 33.0576 32.5664C34.0761 31.6162 35.272 30.8762 36.5768 30.3889C37.8817 29.9015 39.2699 29.6764 40.6619 29.7263C42.054 29.7762 43.4224 30.1003 44.689 30.6799C45.9556 31.2595 47.0955 32.0833 48.0432 33.104C48.5008 33.5893 48.9097 34.1182 49.264 34.6832C49.6132 35.2478 49.913 35.8415 50.16 36.4576C50.6543 37.6859 50.9022 38.9993 50.8896 40.3232V40.3232ZM50.5888 40.3232C50.593 37.9005 49.696 35.5627 48.0721 33.7647C46.4483 31.9666 44.2137 30.8368 41.803 30.595C39.3923 30.3532 36.9778 31.0166 35.0292 32.4563C33.0806 33.8959 31.737 36.0089 31.2599 38.3843C30.7828 40.7596 31.2062 43.2275 32.4479 45.3079C33.6895 47.3884 35.6605 48.9327 37.9776 49.6405C40.2947 50.3483 42.7922 50.1689 44.9844 49.1374C47.1766 48.1058 48.9068 46.2957 49.8384 44.0592C50.3312 42.8752 50.5862 41.6057 50.5888 40.3232V40.3232Z" fill="#DEAF45"/>
<path d="M52.0447 40.3231C52.0564 41.7998 51.7775 43.2644 51.2238 44.6335C50.6771 46.0136 49.8705 47.2759 48.8478 48.3519C47.5216 49.7622 45.8651 50.8202 44.0278 51.4304C42.1904 52.0405 40.2301 52.1837 38.3237 51.847C36.4172 51.5103 34.6245 50.7043 33.1074 49.5016C31.5903 48.299 30.3964 46.7376 29.6334 44.9583C29.0033 43.4945 28.6782 41.9176 28.6782 40.3239C28.6782 38.7302 29.0033 37.1533 29.6334 35.6895C30.2644 34.2362 31.18 32.924 32.3263 31.8303C33.4413 30.7753 34.7533 29.9504 36.1874 29.4029C37.6215 28.8553 39.1494 28.5958 40.6839 28.6392C42.2183 28.6826 43.7292 29.028 45.13 29.6557C46.5308 30.2835 47.7942 31.1812 48.8478 32.2975C49.3595 32.8345 49.8181 33.4197 50.2174 34.0447C50.6105 34.6702 50.9473 35.3293 51.2238 36.0143C51.7775 37.3828 52.0564 38.8469 52.0447 40.3231V40.3231ZM51.6878 40.3231C51.6908 37.6284 50.6914 35.029 48.8842 33.0302C47.0769 31.0315 44.5908 29.7764 41.9095 29.5089C39.2281 29.2414 36.5431 29.9807 34.3766 31.583C32.2101 33.1853 30.7169 35.5361 30.1875 38.1783C29.658 40.8204 30.1301 43.565 31.512 45.8784C32.8939 48.1918 35.0867 49.9085 37.6641 50.6948C40.2415 51.4811 43.0193 51.2807 45.4571 50.1326C47.895 48.9846 49.8187 46.9709 50.8542 44.4831C51.4029 43.1647 51.6862 41.7511 51.6878 40.3231V40.3231Z" fill="#DEAF45"/>
<path d="M53.1949 40.3233C53.205 41.9503 52.8946 43.5634 52.2813 45.0705C51.6748 46.5877 50.7811 47.9736 49.6493 49.1521C48.1917 50.68 46.3776 51.8221 44.3697 52.4758C42.3618 53.1296 40.223 53.2745 38.1452 52.8977C36.0675 52.5208 34.1158 51.634 32.4654 50.3167C30.815 48.9994 29.5175 47.2929 28.6893 45.3505C28.0115 43.7614 27.6621 42.0517 27.6621 40.3241C27.6621 38.5965 28.0115 36.8867 28.6893 35.2977C29.369 33.7171 30.3574 32.2881 31.5965 31.0945C33.4339 29.3394 35.7521 28.171 38.2558 27.7379C40.7596 27.3048 43.3355 27.6266 45.6557 28.6625C46.4078 29.001 47.1249 29.4126 47.7965 29.8913C48.4619 30.3679 49.083 30.9034 49.6525 31.4913C50.7839 32.6698 51.678 34.0549 52.2861 35.5713C52.8982 37.0802 53.207 38.695 53.1949 40.3233V40.3233ZM52.7917 40.3233C52.7935 37.3573 51.6921 34.4968 49.7018 32.2978C47.7115 30.0989 44.9744 28.7188 42.023 28.4258C39.0716 28.1329 36.1167 28.9481 33.733 30.713C31.3493 32.4778 29.7071 35.066 29.1258 37.9744C28.5446 40.8828 29.0657 43.9035 30.588 46.449C32.1103 48.9944 34.5248 50.8828 37.3621 51.7468C40.1994 52.6108 43.2566 52.3887 45.9392 51.1237C48.6219 49.8587 50.7381 47.6412 51.8765 44.9025C52.4804 43.4511 52.793 41.8952 52.7965 40.3233H52.7917Z" fill="#DEAF45"/>
<path d="M54.3394 40.3232C54.3454 43.942 52.9337 47.419 50.4067 50.0094C47.8798 52.5997 44.4388 54.0972 40.821 54.1808C38.0447 54.2506 35.3116 53.4835 32.9772 51.9791C30.6427 50.4747 28.8149 48.3028 27.7314 45.7456C27.0045 44.0306 26.6299 42.1868 26.6299 40.324C26.6299 38.4613 27.0045 36.6175 27.7314 34.9024C28.8187 32.3487 30.6473 30.1799 32.9806 28.6766C35.3139 27.1734 38.0446 26.4049 40.8194 26.4704C44.434 26.5614 47.87 28.0605 50.3953 30.6482C52.9205 33.2359 54.3352 36.7076 54.3378 40.3232H54.3394ZM53.901 40.3232C53.9015 37.0834 52.697 33.9591 50.5219 31.558C48.3467 29.1569 45.3563 27.6505 42.1322 27.3318C38.908 27.0131 35.6806 27.9049 33.0774 29.8337C30.4743 31.7625 28.6815 34.5905 28.0477 37.7678C27.4138 40.945 27.9843 44.2445 29.6481 47.0245C31.3119 49.8045 33.9501 51.8664 37.0497 52.8092C40.1494 53.7521 43.4889 53.5084 46.4189 52.1257C49.3488 50.743 51.6599 48.3201 52.9026 45.328C53.5606 43.7414 53.8999 42.0409 53.901 40.3232V40.3232Z" fill="#DEAF45"/>
<path d="M55.4799 40.3233C55.483 43.7724 54.2924 47.1163 52.1104 49.7874C49.9284 52.4586 46.8893 54.2925 43.509 54.9778C40.1286 55.6631 36.6153 55.1576 33.5652 53.5471C30.5152 51.9367 28.1164 49.3204 26.7759 46.1425C25.6053 43.372 25.2976 40.3128 25.8931 37.3647C26.4885 34.4166 27.9594 31.7166 30.1135 29.6177C32.2193 27.5694 34.8821 26.1871 37.769 25.6436C40.656 25.1 43.6391 25.4193 46.3456 26.5616C49.0521 27.7038 51.362 29.6184 52.9865 32.0659C54.6111 34.5135 55.4784 37.3856 55.4799 40.3233ZM55.0159 40.3233C55.0165 36.8049 53.7086 33.412 51.3465 30.8045C48.9843 28.1969 45.7368 26.5611 42.2355 26.215C38.7342 25.869 35.2293 26.8376 32.4024 28.9323C29.5756 31.0271 27.6289 34.0983 26.9408 37.5488C26.2527 40.9992 26.8725 44.5823 28.6797 47.6011C30.4868 50.6199 33.3521 52.8587 36.7184 53.8822C40.0846 54.9056 43.7112 54.6406 46.8928 53.1385C50.0744 51.6364 52.5837 49.0048 53.9327 45.7553C54.6458 44.0329 55.0139 42.1874 55.0159 40.3233V40.3233Z" fill="#DEAF45"/>
<path d="M56.6144 40.3232C56.6263 42.402 56.2279 44.4627 55.4421 46.3873C54.6564 48.3119 53.4986 50.0627 52.0352 51.5392C50.5723 53.0326 48.8335 54.2281 46.9152 55.0592C43.9949 56.3116 40.7683 56.6681 37.645 56.0836C34.5217 55.499 31.6425 53.9997 29.3728 51.776C27.8563 50.2802 26.6521 48.498 25.8301 46.5328C25.0082 44.5677 24.585 42.4588 24.585 40.3287C24.585 38.1987 25.0082 36.0898 25.8301 34.1247C26.6521 32.1596 27.8563 30.3773 29.3728 28.8816C31.6438 26.6583 34.5241 25.1596 37.6481 24.5756C40.7721 23.9917 43.9992 24.3488 46.92 25.6016C48.8372 26.431 50.5758 27.6236 52.04 29.1136C53.5032 30.5899 54.6609 32.3403 55.4466 34.2646C56.2324 36.189 56.6309 38.2494 56.6192 40.3279L56.6144 40.3232ZM56.1344 40.3232C56.133 36.531 54.7213 32.8748 52.1739 30.0657C49.6265 27.2565 46.1254 25.4951 42.3514 25.1239C38.5775 24.7527 34.8003 25.7983 31.7545 28.0574C28.7086 30.3165 26.6117 33.6275 25.8715 37.3468C25.1313 41.066 25.8007 44.9276 27.7496 48.1807C29.6984 51.4338 32.7874 53.8459 36.4159 54.948C40.0445 56.05 43.9532 55.7633 47.382 54.1435C50.8109 52.5237 53.5148 49.6866 54.968 46.184C55.7373 44.3257 56.1337 42.3343 56.1344 40.3232V40.3232Z" fill="#DEAF45"/>
<path d="M57.7442 40.3233C57.753 42.5486 57.3231 44.7537 56.4792 46.8128C55.6353 48.8718 54.3938 50.7444 52.8258 52.3233C50.4569 54.731 47.4282 56.3834 44.1215 57.0722C40.8148 57.761 37.3782 57.4553 34.245 56.1937C32.1474 55.3518 30.2383 54.1008 28.629 52.5137C27.0165 50.9189 25.7363 49.0201 24.8626 46.9272C23.9889 44.8343 23.5391 42.5889 23.5391 40.3209C23.5391 38.053 23.9889 35.8075 24.8626 33.7146C25.7363 31.6217 27.0165 29.7229 28.629 28.1281C31.0291 25.7523 34.0793 24.1407 37.3945 23.4966C40.7096 22.8526 44.1413 23.2049 47.2564 24.5091C50.3716 25.8134 53.0306 28.0111 54.898 30.825C56.7654 33.639 57.7574 36.943 57.749 40.3201L57.7442 40.3233ZM57.2642 40.3233C57.2621 36.2527 55.7463 32.3284 53.0115 29.3134C50.2767 26.2983 46.5183 24.4081 42.4672 24.0102C38.4162 23.6123 34.3619 24.7352 31.0927 27.1605C27.8236 29.5859 25.5732 33.1403 24.7792 37.1327C23.9852 41.1251 24.7043 45.2701 26.7967 48.7617C28.889 52.2533 32.2052 54.8421 36.1002 56.0245C39.9953 57.2069 44.1909 56.8986 47.8712 55.1594C51.5515 53.4202 54.4535 50.3745 56.013 46.6145C56.8367 44.6194 57.2602 42.4818 57.2594 40.3233H57.2642Z" fill="#DEAF45"/>
<path d="M58.877 40.3231C58.8843 42.6961 58.4238 45.0472 57.5219 47.2421C56.6201 49.4371 55.2945 51.4327 53.621 53.1151C51.0948 55.6708 47.8684 57.4212 44.3487 58.1456C40.829 58.8699 37.1736 58.5359 33.8434 57.1855C31.6188 56.2848 29.5951 54.9513 27.8898 53.2623C26.1704 51.5795 24.8017 49.5723 23.8631 47.357C22.9245 45.1417 22.4346 42.7622 22.4216 40.3563C22.4087 37.9504 22.8731 35.5658 23.7879 33.3405C24.7027 31.1153 26.0497 29.0935 27.751 27.3923C29.4524 25.6911 31.4742 24.3442 33.6995 23.4296C35.9248 22.5149 38.3094 22.0507 40.7153 22.0637C43.1213 22.0768 45.5007 22.5669 47.7159 23.5056C49.9312 24.4444 51.9383 25.8131 53.621 27.5327C55.2946 29.2147 56.6202 31.2101 57.5221 33.4048C58.424 35.5995 58.8844 37.9504 58.877 40.3231V40.3231ZM58.397 40.3231C58.3969 35.9673 56.7768 31.7672 53.8516 28.5398C50.9265 25.3123 46.9055 23.2881 42.5707 22.8609C38.2359 22.4337 33.8971 23.6341 30.3983 26.2285C26.8994 28.823 24.4906 32.626 23.6402 36.898C22.7899 41.17 23.5589 45.6056 25.7976 49.3421C28.0363 53.0785 31.5847 55.8488 35.7527 57.1141C39.9207 58.3794 44.4103 58.0492 48.3483 56.1878C52.2864 54.3265 55.3914 51.0669 57.0594 47.0431C57.9418 44.9126 58.3963 42.6292 58.397 40.3231Z" fill="#DEAF45"/>
<path d="M59.987 40.3232C59.9907 44.1292 58.8665 47.8509 56.7564 51.0184C54.6463 54.1859 51.6449 56.6571 48.1313 58.12C44.6176 59.5829 40.7493 59.9718 37.0148 59.2377C33.2803 58.5035 29.847 56.6792 27.1486 53.9952C25.1214 51.9837 23.5663 49.547 22.5959 46.8611C21.6255 44.1753 21.2639 41.3073 21.5373 38.4646C21.8107 35.622 22.7122 32.8755 24.1767 30.4238C25.6412 27.9721 27.6321 25.8764 30.0055 24.2881C32.379 22.6999 35.0756 21.6588 37.9005 21.2401C40.7255 20.8214 43.6082 21.0355 46.3402 21.867C49.0723 22.6985 51.5855 24.1266 53.6982 26.0481C55.811 27.9695 57.4704 30.3364 58.5566 32.9776C59.5101 35.3087 59.9961 37.8046 59.987 40.3232V40.3232ZM59.523 40.3232C59.5204 35.6889 57.7943 31.2212 54.6805 27.7889C51.5666 24.3567 47.2876 22.2051 42.6755 21.7526C38.0633 21.3002 33.4478 22.5792 29.7263 25.3409C26.0048 28.1026 23.4434 32.1497 22.5402 36.6951C21.637 41.2405 22.4566 45.9594 24.8395 49.9341C27.2224 53.9088 30.9984 56.8552 35.4332 58.2004C39.8679 59.5456 44.6445 59.1934 48.8339 57.2123C53.0234 55.2312 56.3264 51.7628 58.1006 47.4816C59.037 45.2113 59.5182 42.779 59.5166 40.3232H59.523Z" fill="#DEAF45"/>
<path d="M61.1021 40.3232C61.0874 45.3562 59.2013 50.2038 55.8106 53.9232C52.42 57.6426 47.7671 59.968 42.757 60.4471C37.7469 60.9262 32.7377 59.5247 28.7035 56.5153C24.6694 53.5058 21.8988 49.1036 20.9306 44.1646C19.9623 39.2257 20.8656 34.1031 23.4648 29.7932C26.064 25.4833 30.1732 22.2942 34.9934 20.8461C39.8135 19.398 45 19.7945 49.5441 21.9583C54.0881 24.1222 57.665 27.8988 59.5789 32.5536C60.5909 35.0187 61.1084 37.6586 61.1021 40.3232V40.3232ZM60.6637 40.3232C60.6629 35.4015 58.8315 30.6559 55.5258 27.0095C52.2201 23.3632 47.6763 21.0766 42.7782 20.5946C37.8801 20.1126 32.9778 21.4697 29.0247 24.4017C25.0717 27.3338 22.3504 31.6314 21.3903 36.4586C20.4301 41.2858 21.2997 46.2976 23.8299 50.5192C26.36 54.7408 30.3699 57.8705 35.0796 59.2996C39.7894 60.7286 44.8623 60.3549 49.3118 58.251C53.7612 56.1472 57.2692 52.4637 59.1533 47.9168C60.1506 45.5094 60.6638 42.9291 60.6637 40.3232V40.3232Z" fill="#DEAF45"/>
<path d="M59.8018 50.1333C57.3549 54.8396 53.2451 58.4677 48.2716 60.312C43.2981 62.1563 37.8164 62.085 32.8926 60.1118C27.9688 58.1387 23.9548 54.4048 21.6313 49.6363C19.3077 44.8679 18.8407 39.4057 20.3211 34.312C21.8014 29.2183 25.1233 24.8572 29.6407 22.0768C34.1581 19.2965 39.5481 18.2956 44.7625 19.2689C49.9769 20.2421 54.6429 23.1199 57.8532 27.3426C61.0635 31.5653 62.5886 36.831 62.1319 42.1157C61.8881 44.9151 61.0964 47.6393 59.8018 50.1333V50.1333ZM59.4436 49.9481C61.8333 45.3266 62.4188 39.9815 61.0861 34.9523C59.7535 29.9232 56.5981 25.5693 52.2335 22.7376C47.8689 19.9058 42.6071 18.7985 37.4714 19.6311C32.3357 20.4636 27.6932 23.1764 24.4467 27.242C21.2002 31.3075 19.5818 36.4352 19.9061 41.6278C20.2305 46.8205 22.4746 51.7068 26.2018 55.3367C29.9291 58.9666 34.8731 61.0806 40.0725 61.2674C45.2719 61.4543 50.355 59.7008 54.3332 56.3478C56.4397 54.5702 58.1761 52.3957 59.4436 49.9481V49.9481Z" fill="#DEAF45"/>
<path d="M57.0208 55.8914C53.1485 59.9088 47.9204 62.3423 42.3533 62.7188C36.7862 63.0953 31.2781 61.3877 26.9001 57.9283C22.5222 54.4688 19.5874 49.5047 18.6665 44.0014C17.7456 38.4981 18.9045 32.849 21.9177 28.1528C24.9309 23.4565 29.5831 20.0488 34.9695 18.5924C40.3559 17.136 46.0914 17.735 51.0606 20.2729C56.0299 22.8108 59.8776 27.1062 61.8555 32.3237C63.8333 37.5412 63.8 43.3079 61.7619 48.5021C60.6815 51.2523 59.0705 53.7631 57.0208 55.8914V55.8914ZM56.7636 55.6441C60.5643 51.6859 62.7571 46.4556 62.9155 40.9704C63.0739 35.4851 61.1866 30.137 57.6205 25.9661C54.0545 21.7952 49.0647 19.0996 43.6215 18.4036C38.1783 17.7076 32.6708 19.0609 28.17 22.2003C23.6692 25.3398 20.4969 30.0409 19.27 35.3895C18.0431 40.7381 18.8492 46.3519 21.5317 51.1391C24.2142 55.9263 28.5813 59.5447 33.7837 61.2906C38.986 63.0366 44.6518 62.7853 49.6792 60.5857C52.3417 59.4187 54.7488 57.7397 56.7636 55.6441V55.6441Z" fill="#DEAF45"/>
<path d="M61.0757 52.3852C58.0749 57.4042 53.3148 61.1278 47.721 62.8318C42.1271 64.5359 36.0995 64.0987 30.8101 61.6052C25.5208 59.1117 21.3478 54.7401 19.1028 49.3406C16.8577 43.9411 16.701 37.8997 18.6632 32.391C20.6253 26.8824 24.566 22.3004 29.719 19.5361C34.872 16.7717 40.8689 16.0226 46.5435 17.4344C52.2181 18.8463 57.1649 22.3181 60.4218 27.1747C63.6788 32.0314 65.0131 37.9258 64.1652 43.7116C63.7147 46.7776 62.6649 49.7248 61.0757 52.3852V52.3852ZM60.8174 52.2312C63.7725 47.2699 64.7768 41.3869 63.635 35.7262C62.4931 30.0655 59.2868 25.0319 54.6396 21.6041C49.9923 18.1763 44.2362 16.5994 38.4908 17.1801C32.7454 17.7608 27.4213 20.4575 23.554 24.7459C19.6866 29.0343 17.5523 34.6078 17.5663 40.3825C17.5803 46.1572 19.7415 51.7202 23.6296 55.9898C27.5177 60.2595 32.8548 62.9304 38.6029 63.4833C44.3511 64.0362 50.0994 62.4314 54.7301 58.9812C57.182 57.1519 59.2503 54.8584 60.8174 52.2312V52.2312Z" fill="#DEAF45"/>
<path d="M63.5906 49.8394C61.2238 55.4825 56.8429 60.0437 51.2998 62.636C45.7567 65.2283 39.4476 65.6664 33.5993 63.865C27.7511 62.0637 22.7819 58.1517 19.658 52.8899C16.534 47.628 15.4787 41.3923 16.6972 35.3956C17.9157 29.3988 21.321 24.0695 26.2507 20.4441C31.1805 16.8187 37.2824 15.1563 43.3699 15.7802C49.4573 16.4041 55.0952 19.2698 59.187 23.8198C63.2789 28.3699 65.5322 34.2791 65.5089 40.3984C65.4952 43.6408 64.8433 46.8488 63.5906 49.8394V49.8394ZM63.3736 49.7486C65.7113 44.1552 65.8851 37.8922 63.8613 32.1778C61.8375 26.4633 57.7607 21.7058 52.4237 18.8304C47.0867 15.9551 40.8711 15.1675 34.9856 16.6207C29.1001 18.0739 23.9654 21.6641 20.5802 26.6931C17.1949 31.7221 15.801 37.8304 16.6696 43.8302C17.5382 49.8299 20.6072 55.2921 25.2797 59.1546C29.9521 63.0171 35.8942 65.0037 41.9502 64.7281C48.0062 64.4526 53.7432 61.9345 58.0456 57.6637C60.3245 55.4009 62.1359 52.7119 63.3766 49.7498L63.3736 49.7486Z" fill="#DEAF45"/>
<path d="M40.8211 66.0207C55.0135 66.0207 66.5187 54.5155 66.5187 40.3231C66.5187 26.1307 55.0135 14.6255 40.8211 14.6255C26.6287 14.6255 15.1235 26.1307 15.1235 40.3231C15.1235 54.5155 26.6287 66.0207 40.8211 66.0207Z" stroke="#DEAF45" stroke-width="0.055455" stroke-miterlimit="10"/>
</svg>
