<svg width="100" height="120" viewBox="0 0 100 120" fill="none" xmlns="http://www.w3.org/2000/svg">
<rect width="100" height="120" rx="5" fill="url(#paint0_linear_37_8)"/>
<rect x="9.94604" y="19.8801" width="80.2398" height="80.2398" rx="10" fill="#0B80BD"/>
<path d="M58.9389 59.9375L58.9004 60.8137C58.8667 61.1041 58.8186 61.393 58.7784 61.6835C58.7383 61.9739 58.6436 62.2532 58.5778 62.5388C58.5121 62.8245 58.3917 63.0957 58.2986 63.3733C57.7435 64.8266 56.8411 66.1221 55.6702 67.1465C54.4993 68.1709 53.0956 68.8933 51.5814 69.2505C50.0672 69.6077 48.4885 69.589 46.9833 69.1959C45.478 68.8028 44.0917 68.0473 42.9455 66.9953C41.9748 66.1002 41.2004 65.0133 40.6715 63.8034C40.1421 62.5833 39.869 61.2675 39.8691 59.9375L39.9253 58.9457C39.967 58.6247 40.0248 58.2893 40.0762 57.9635C40.1275 57.6378 40.2463 57.3216 40.3313 57.0007C40.4164 56.6797 40.564 56.3796 40.6828 56.0715C41.2133 54.863 41.9881 53.7774 42.9584 52.8828C43.9188 52.0088 45.0445 51.336 46.2691 50.904C48.6096 50.1006 51.1703 50.2345 53.4142 51.2778C55.6581 52.321 57.4109 54.1926 58.305 56.5C58.3981 56.7792 58.5024 57.0536 58.5859 57.3345C58.6693 57.6153 58.7255 57.9058 58.7865 58.1914C58.8475 58.4771 58.8747 58.7691 58.9084 59.0596L58.9389 59.9375ZM58.703 59.9375C58.7041 58.2206 58.1951 56.5421 57.2408 55.115C56.2864 53.6878 54.9297 52.5763 53.3426 51.9214C51.7556 51.2666 50.0098 51.0979 48.3267 51.4368C46.6436 51.7756 45.0991 52.6068 43.8892 53.8248C42.6837 55.0368 41.8636 56.5782 41.5321 58.2552C41.2005 59.9321 41.3724 61.6696 42.0259 63.2492C42.6795 64.8287 43.7856 66.1796 45.2051 67.1321C46.6246 68.0845 48.294 68.5958 50.0034 68.6017C52.306 68.6056 54.5159 67.6949 56.1473 66.0698C57.7787 64.4448 58.6979 62.2385 58.703 59.9358V59.9375Z" fill="#DEAF45"/>
<path d="M60.1023 59.9374C60.1159 61.2668 59.8678 62.5858 59.3721 63.8194C59.1249 64.4374 58.8248 65.0328 58.475 65.5991C58.1187 66.1661 57.7081 66.6971 57.249 67.1847C56.2998 68.2113 55.157 69.0402 53.8862 69.6234C52.6155 70.2066 51.2419 70.5327 49.8446 70.583C48.4473 70.6333 47.0539 70.4067 45.7445 69.9163C44.4352 69.4259 43.2357 68.6813 42.2152 67.7255C41.6907 67.2274 41.2156 66.6798 40.7966 66.0902C40.3726 65.4988 40.0148 64.8627 39.7294 64.1933C39.1463 62.8513 38.8455 61.4038 38.8455 59.9406C38.8455 58.4774 39.1463 57.0299 39.7294 55.6879C40.3134 54.3562 41.1594 53.1555 42.2168 52.1574C43.2384 51.2043 44.4378 50.4621 45.7466 49.9733C47.0554 49.4845 48.4478 49.2586 49.844 49.3087C51.2402 49.3588 52.6127 49.6838 53.8831 50.2652C55.1535 50.8465 56.2968 51.6728 57.2474 52.6966C57.7063 53.1833 58.1164 53.7138 58.4718 54.2805C58.8221 54.8468 59.1228 55.4422 59.3705 56.0602C59.8663 57.2921 60.1149 58.6095 60.1023 59.9374ZM59.8006 59.9374C59.8048 57.5074 58.9051 55.1626 57.2764 53.3592C55.6476 51.5558 53.4064 50.4226 50.9885 50.18C48.5705 49.9375 46.1488 50.6029 44.1944 52.0469C42.2399 53.4909 40.8923 55.6102 40.4138 57.9926C39.9352 60.3751 40.3599 62.8504 41.6053 64.9371C42.8506 67.0238 44.8275 68.5727 47.1516 69.2826C49.4756 69.9925 51.9806 69.8126 54.1794 68.778C56.3782 67.7433 58.1135 65.9278 59.0479 63.6846C59.5422 62.497 59.798 61.2238 59.8006 59.9374Z" fill="#DEAF45"/>
<path d="M61.2609 59.9374C61.2727 61.4186 60.993 62.8876 60.4377 64.2607C59.8893 65.645 59.0803 66.9111 58.0545 67.9903C56.7243 69.4048 55.0628 70.466 53.22 71.078C51.3772 71.69 49.411 71.8336 47.4988 71.4959C45.5866 71.1581 43.7886 70.3497 42.2669 69.1435C40.7452 67.9372 39.5478 66.3712 38.7825 64.5865C38.1505 63.1184 37.8245 61.5367 37.8245 59.9382C37.8245 58.3398 38.1505 56.7581 38.7825 55.2899C39.4154 53.8323 40.3337 52.5162 41.4834 51.4192C42.6018 50.361 43.9178 49.5336 45.3562 48.9844C46.7945 48.4352 48.3271 48.175 49.8661 48.2185C51.4052 48.262 52.9205 48.6085 54.3256 49.2381C55.7306 49.8677 56.9977 50.7681 58.0545 51.8878C58.5677 52.4264 59.0277 53.0133 59.4282 53.6402C59.8225 54.2675 60.1603 54.9286 60.4377 55.6157C60.993 56.9883 61.2727 58.4568 61.2609 59.9374ZM60.903 59.9374C60.906 57.2347 59.9037 54.6274 58.091 52.6227C56.2783 50.618 53.7848 49.3591 51.0954 49.0908C48.406 48.8225 45.7129 49.564 43.5399 51.1711C41.3669 52.7783 39.8693 55.1361 39.3382 57.7862C38.8072 60.4362 39.2807 63.1891 40.6667 65.5094C42.0528 67.8297 44.2522 69.5516 46.8373 70.3402C49.4224 71.1289 52.2085 70.9279 54.6536 69.7764C57.0988 68.6249 59.0283 66.6051 60.067 64.1099C60.6173 62.7876 60.9014 61.3697 60.903 59.9374Z" fill="#DEAF45"/>
<path d="M62.4148 59.9374C62.4249 61.5693 62.1135 63.1873 61.4984 64.6988C60.8901 66.2206 59.9937 67.6106 58.8585 68.7927C57.3966 70.3252 55.577 71.4707 53.5631 72.1264C51.5492 72.7821 49.4039 72.9275 47.3199 72.5495C45.236 72.1716 43.2784 71.282 41.6231 69.9608C39.9677 68.6396 38.6663 66.928 37.8357 64.9797C37.1559 63.3858 36.8054 61.671 36.8054 59.9382C36.8054 58.2055 37.1559 56.4906 37.8357 54.8968C38.5175 53.3115 39.5088 51.8782 40.7516 50.6809C42.5945 48.9207 44.9197 47.7487 47.4309 47.3143C49.9421 46.8799 52.5258 47.2027 54.853 48.2417C55.6073 48.5812 56.3265 48.994 57.0002 49.4741C57.6675 49.9522 58.2905 50.4893 58.8617 51.0789C59.9965 52.261 60.8933 53.6503 61.5033 55.1712C62.1172 56.6846 62.4269 58.3042 62.4148 59.9374ZM62.0104 59.9374C62.0121 56.9626 60.9074 54.0935 58.9112 51.8879C56.9149 49.6824 54.1697 48.2981 51.2094 48.0043C48.2491 47.7105 45.2854 48.5282 42.8945 50.2983C40.5037 52.0684 38.8566 54.6644 38.2735 57.5816C37.6905 60.4987 38.2133 63.5284 39.7401 66.0815C41.2669 68.6346 43.6887 70.5286 46.5345 71.3952C49.3803 72.2618 52.4467 72.039 55.1373 70.7702C57.828 69.5014 59.9506 67.2773 61.0924 64.5303C61.6981 63.0747 62.0117 61.5141 62.0152 59.9374H62.0104Z" fill="#DEAF45"/>
<path d="M63.5624 59.9374C63.5684 63.567 62.1524 67.0545 59.6179 69.6526C57.0834 72.2507 53.6321 73.7526 50.0035 73.8365C47.2188 73.9066 44.4775 73.1371 42.1361 71.6282C39.7946 70.1193 37.9613 67.9409 36.8746 65.3761C36.1455 63.6558 35.7698 61.8066 35.7698 59.9382C35.7698 58.0699 36.1455 56.2206 36.8746 54.5004C37.9652 51.9389 39.7992 49.7636 42.1395 48.2559C44.4798 46.7481 47.2187 45.9773 50.0019 46.0431C53.6272 46.1343 57.0736 47.6379 59.6064 50.2333C62.1392 52.8288 63.5582 56.3109 63.5608 59.9374H63.5624ZM63.1227 59.9374C63.1231 56.6878 61.9151 53.5542 59.7334 51.1459C57.5517 48.7376 54.5523 47.2267 51.3185 46.9071C48.0847 46.5874 44.8476 47.4818 42.2366 49.4164C39.6257 51.351 37.8275 54.1875 37.1918 57.3743C36.5561 60.5611 37.1282 63.8704 38.797 66.6587C40.4658 69.4471 43.1119 71.5152 46.2209 72.4608C49.3298 73.4065 52.6793 73.1621 55.6181 71.7753C58.5568 70.3884 60.8748 67.9582 62.1213 64.9572C62.7812 63.3658 63.1215 61.6602 63.1227 59.9374Z" fill="#DEAF45"/>
<path d="M64.7065 59.9374C64.7095 63.3969 63.5154 66.7508 61.3269 69.43C59.1383 72.1092 56.0901 73.9485 52.6996 74.6359C49.3092 75.3233 45.7853 74.8162 42.7261 73.2009C39.6669 71.5856 37.2609 68.9616 35.9164 65.7741C34.7423 62.9953 34.4337 59.9269 35.0309 56.97C35.6281 54.013 37.1034 51.305 39.264 49.1997C41.3761 47.1453 44.0469 45.7589 46.9425 45.2137C49.8381 44.6686 52.8301 44.9888 55.5447 46.1345C58.2594 47.2802 60.5762 49.2004 62.2056 51.6554C63.8351 54.1103 64.7049 56.991 64.7065 59.9374ZM64.2411 59.9374C64.2417 56.4085 62.9298 53.0055 60.5606 50.3901C58.1914 47.7747 54.9341 46.134 51.4223 45.7869C47.9105 45.4399 44.3951 46.4113 41.5598 48.5124C38.7245 50.6134 36.7719 53.6938 36.0818 57.1546C35.3917 60.6154 36.0133 64.2092 37.8259 67.2371C39.6384 70.2649 42.5123 72.5105 45.8887 73.537C49.265 74.5635 52.9024 74.2976 56.0936 72.7911C59.2848 71.2845 61.8016 68.645 63.1546 65.3857C63.8699 63.6582 64.239 61.8071 64.2411 59.9374Z" fill="#DEAF45"/>
<path d="M65.8442 59.9375C65.8561 62.0225 65.4566 64.0894 64.6684 66.0198C63.8803 67.9502 62.7191 69.7062 61.2513 71.1871C59.784 72.685 58.04 73.884 56.1159 74.7176C53.1869 75.9738 49.9506 76.3314 46.818 75.7451C43.6853 75.1588 40.7975 73.655 38.521 71.4246C36.9999 69.9243 35.792 68.1368 34.9677 66.1658C34.1433 64.1947 33.7188 62.0795 33.7188 59.9431C33.7188 57.8066 34.1433 55.6914 34.9677 53.7204C35.792 51.7494 36.9999 49.9618 38.521 48.4616C40.7988 46.2316 43.6876 44.7285 46.821 44.1427C49.9544 43.557 53.1912 43.9152 56.1208 45.1717C58.0437 46.0037 59.7875 47.1998 61.2561 48.6943C62.7237 50.175 63.8848 51.9307 64.6729 53.8608C65.4611 55.7909 65.8607 57.8575 65.849 59.9423L65.8442 59.9375ZM65.3628 59.9375C65.3613 56.1339 63.9454 52.4668 61.3904 49.6492C58.8354 46.8317 55.3238 45.065 51.5385 44.6927C47.7532 44.3204 43.9647 45.3691 40.9097 47.6349C37.8547 49.9008 35.7515 53.2218 35.0091 56.9522C34.2667 60.6826 34.9381 64.5557 36.8928 67.8186C38.8475 71.0814 41.9458 73.5008 45.5852 74.6061C49.2246 75.7115 53.145 75.4239 56.5841 73.7992C60.0233 72.1746 62.7353 69.329 64.1929 65.8158C64.9645 63.952 65.362 61.9547 65.3628 59.9375Z" fill="#DEAF45"/>
<path d="M66.9773 59.9374C66.9862 62.1694 66.555 64.3811 65.7086 66.4464C64.8621 68.5116 63.6169 70.3897 62.0442 71.9734C59.6682 74.3883 56.6304 76.0457 53.3138 76.7365C49.9972 77.4274 46.5503 77.1208 43.4077 75.8554C41.3038 75.011 39.389 73.7562 37.7748 72.1644C36.1575 70.5648 34.8735 68.6603 33.9972 66.5611C33.1209 64.4619 32.6697 62.2098 32.6697 59.935C32.6697 57.6603 33.1209 55.4081 33.9972 53.3089C34.8735 51.2098 36.1575 49.3052 37.7748 47.7057C40.1822 45.3228 43.2415 43.7063 46.5666 43.0603C49.8917 42.4143 53.3337 42.7677 56.4582 44.0759C59.5826 45.384 62.2496 47.5883 64.1226 50.4107C65.9956 53.2331 66.9906 56.5469 66.9821 59.9342L66.9773 59.9374ZM66.4959 59.9374C66.4938 55.8547 64.9734 51.9186 62.2304 48.8945C59.4874 45.8704 55.7178 43.9745 51.6546 43.5754C47.5914 43.1763 43.5249 44.3026 40.246 46.7352C36.967 49.1678 34.7099 52.7329 33.9135 56.7372C33.1171 60.7416 33.8384 64.899 35.937 68.4011C38.0357 71.9032 41.3618 74.4997 45.2685 75.6857C49.1752 76.8717 53.3834 76.5624 57.0747 74.818C60.7661 73.0736 63.6768 70.0188 65.2409 66.2475C66.0671 64.2464 66.4919 62.1024 66.4911 59.9374H66.4959Z" fill="#DEAF45"/>
<path d="M68.1135 59.9374C68.1208 62.3175 67.6589 64.6757 66.7544 66.8772C65.8498 69.0787 64.5203 71.0803 62.8418 72.7678C60.308 75.3311 57.0719 77.0867 53.5416 77.8133C50.0113 78.5398 46.345 78.2048 43.0049 76.8504C40.7736 75.9469 38.7438 74.6094 37.0334 72.9154C35.3088 71.2275 33.9361 69.2143 32.9946 66.9924C32.0532 64.7704 31.5618 62.3838 31.5488 59.9707C31.5359 57.5576 32.0017 55.1658 32.9192 52.9339C33.8367 50.702 35.1878 48.6742 36.8942 46.9679C38.6006 45.2616 40.6285 43.9106 42.8605 42.9932C45.0925 42.0758 47.4842 41.6102 49.8974 41.6233C52.3105 41.6364 54.6971 42.128 56.919 43.0695C59.1409 44.0111 61.154 45.384 62.8418 47.1087C64.5204 48.7957 65.85 50.7971 66.7545 52.9983C67.6591 55.1996 68.1209 57.5576 68.1135 59.9374ZM67.6321 59.9374C67.632 55.5686 66.007 51.3559 63.0731 48.1187C60.1392 44.8816 56.1061 42.8513 51.7583 42.4229C47.4105 41.9944 43.0587 43.1984 39.5494 45.8006C36.04 48.4028 33.624 52.2172 32.7711 56.502C31.9182 60.7868 32.6895 65.2357 34.9349 68.9834C37.1803 72.7311 40.7394 75.5097 44.9198 76.7787C49.1003 78.0478 53.6034 77.7167 57.5533 75.8497C61.5031 73.9827 64.6174 70.7134 66.2905 66.6776C67.1755 64.5406 67.6313 62.2504 67.6321 59.9374Z" fill="#DEAF45"/>
<path d="M69.227 59.9374C69.2307 63.7548 68.1031 67.4877 65.9867 70.6647C63.8703 73.8417 60.8599 76.3203 57.3357 77.7876C53.8116 79.2548 49.9317 79.6449 46.186 78.9086C42.4402 78.1723 38.9967 76.3425 36.2902 73.6504C34.2569 71.6329 32.6972 69.1889 31.7239 66.495C30.7505 63.801 30.3878 60.9245 30.662 58.0733C30.9362 55.2221 31.8405 52.4674 33.3094 50.0083C34.7783 47.5493 36.7752 45.4473 39.1557 43.8543C41.5362 42.2613 44.2409 41.2171 47.0744 40.7971C49.9078 40.3771 52.7991 40.5919 55.5394 41.4259C58.2796 42.2599 60.8004 43.6923 62.9194 45.6195C65.0385 47.5467 66.7029 49.9207 67.7923 52.5698C68.7487 54.9079 69.2361 57.4113 69.227 59.9374ZM68.7617 59.9374C68.759 55.2892 67.0278 50.8082 63.9046 47.3656C60.7814 43.923 56.4896 41.765 51.8636 41.3112C47.2376 40.8574 42.6082 42.1402 38.8756 44.9102C35.143 47.6802 32.5739 51.7394 31.668 56.2984C30.7621 60.8575 31.5841 65.5905 33.9742 69.5771C36.3643 73.5637 40.1516 76.519 44.5996 77.8682C49.0476 79.2174 53.8385 78.8641 58.0405 76.8771C62.2426 74.8901 65.5555 71.4113 67.335 67.1173C68.2742 64.8401 68.7568 62.4006 68.7552 59.9374H68.7617Z" fill="#DEAF45"/>
<path d="M70.3458 59.9374C70.331 64.9855 68.4392 69.8476 65.0384 73.5781C61.6376 77.3087 56.9708 79.6411 51.9457 80.1216C46.9205 80.6021 41.8963 79.1965 37.85 76.178C33.8038 73.1595 31.0249 68.7441 30.0538 63.7903C29.0826 58.8365 29.9886 53.6986 32.5956 49.3758C35.2026 45.053 39.3241 41.8544 44.1587 40.4019C48.9933 38.9495 54.1954 39.3471 58.753 41.5175C63.3107 43.6878 66.8983 47.4757 68.818 52.1445C69.833 54.6169 70.3521 57.2648 70.3458 59.9374ZM69.906 59.9374C69.9052 55.0009 68.0684 50.2411 64.7527 46.5838C61.4371 42.9265 56.8797 40.6331 51.9669 40.1497C47.0541 39.6662 42.1371 41.0273 38.1722 43.9682C34.2073 46.9091 31.4779 51.2195 30.5149 56.0612C29.5518 60.9029 30.424 65.9297 32.9617 70.1639C35.4995 74.3982 39.5214 77.5373 44.2453 78.9706C48.9691 80.404 54.0572 80.0291 58.52 77.919C62.9828 75.8088 66.5013 72.1142 68.3911 67.5538C69.3914 65.1391 69.9061 62.5511 69.906 59.9374Z" fill="#DEAF45"/>
<path d="M69.0411 69.7768C66.5869 74.4973 62.4648 78.1362 57.4764 79.9861C52.4879 81.8359 46.9898 81.7643 42.0513 79.7852C37.1127 77.8062 33.0867 74.0611 30.7562 69.2784C28.4257 64.4956 27.9573 59.017 29.4421 53.9081C30.9268 48.7991 34.2587 44.4249 38.7896 41.6363C43.3205 38.8476 48.7267 37.8437 53.9567 38.8199C59.1867 39.796 63.8668 42.6824 67.0867 46.9178C70.3067 51.1531 71.8363 56.4346 71.3782 61.7352C71.1337 64.543 70.3396 67.2753 69.0411 69.7768ZM68.6819 69.591C71.0787 64.9557 71.6659 59.5946 70.3293 54.5504C68.9927 49.5061 65.8278 45.1392 61.4502 42.299C57.0725 39.4587 51.7949 38.3481 46.6438 39.1832C41.4927 40.0182 36.8363 42.7391 33.58 46.8169C30.3238 50.8946 28.7005 56.0377 29.0259 61.2459C29.3513 66.4541 31.602 71.3551 35.3404 74.9959C39.0789 78.6366 44.0378 80.7569 49.2527 80.9443C54.4677 81.1318 59.566 79.373 63.5562 76.0099C65.669 74.227 67.4106 72.046 68.6819 69.591Z" fill="#DEAF45"/>
<path d="M66.2521 75.5523C62.3682 79.5817 57.1244 82.0226 51.5406 82.4002C45.9569 82.7778 40.4322 81.0651 36.0411 77.5953C31.6501 74.1254 28.7065 69.1465 27.7828 63.6267C26.8592 58.1069 28.0215 52.4409 31.0438 47.7305C34.066 43.0202 38.7322 39.6023 44.1347 38.1415C49.5372 36.6808 55.2899 37.2815 60.2741 39.8271C65.2582 42.3726 69.1175 46.6808 71.1013 51.914C73.0851 57.1471 73.0516 62.931 71.0074 68.1409C69.9238 70.8993 68.308 73.4176 66.2521 75.5523ZM65.9941 75.3043C69.8062 71.3342 72.0056 66.0882 72.1645 60.5865C72.3233 55.0849 70.4304 49.7207 66.8536 45.5373C63.2769 41.3539 58.2722 38.6503 52.8126 37.9522C47.3531 37.2541 41.8291 38.6114 37.3148 41.7602C32.8005 44.9091 29.6187 49.6243 28.3881 54.9889C27.1575 60.3536 27.9661 65.9842 30.6566 70.7857C33.3472 75.5873 37.7273 79.2165 42.9453 80.9677C48.1633 82.7189 53.846 82.4669 58.8885 80.2606C61.5589 79.0901 63.9733 77.4061 65.9941 75.3043Z" fill="#DEAF45"/>
<path d="M70.3193 72.0355C67.3095 77.0696 62.5351 80.8043 56.9245 82.5135C51.3139 84.2226 45.2682 83.7841 39.963 81.2831C34.6578 78.7821 30.4723 74.3975 28.2205 68.9818C25.9687 63.5661 25.8116 57.5065 27.7796 51.9814C29.7476 46.4563 33.7001 41.8606 38.8685 39.0879C44.037 36.3153 50.0518 35.5639 55.7435 36.98C61.4351 38.396 66.3967 41.8782 69.6634 46.7495C72.9301 51.6207 74.2684 57.5327 73.418 63.3359C72.9661 66.4111 71.9132 69.3672 70.3193 72.0355ZM70.0601 71.881C73.0241 66.9049 74.0314 61.0042 72.8862 55.3266C71.7409 49.6489 68.525 44.6002 63.8638 41.1621C59.2026 37.724 53.4293 36.1424 47.6667 36.7249C41.904 37.3073 36.564 40.0121 32.685 44.3134C28.8061 48.6146 26.6654 54.2048 26.6794 59.9968C26.6935 65.7888 28.8611 71.3685 32.7609 75.6509C36.6607 79.9334 42.0137 82.6123 47.7791 83.1668C53.5445 83.7214 59.3101 82.1119 63.9546 78.6512C66.4138 76.8165 68.4884 74.5161 70.0601 71.881Z" fill="#DEAF45"/>
<path d="M72.841 69.4821C70.4671 75.1421 66.0731 79.717 60.5133 82.3171C54.9536 84.9172 48.6255 85.3565 42.7598 83.5498C36.8941 81.7431 31.9099 77.8194 28.7766 72.5418C25.6433 67.2641 24.5848 61.0098 25.807 54.995C27.0292 48.9802 30.4446 43.635 35.3892 39.9987C40.3337 36.3624 46.454 34.6951 52.5596 35.3209C58.6653 35.9467 64.3201 38.8209 68.4242 43.3846C72.5283 47.9483 74.7884 53.8752 74.765 60.0129C74.7512 63.265 74.0974 66.4825 72.841 69.4821ZM72.6233 69.391C74.968 63.7809 75.1424 57.4992 73.1125 51.7676C71.0826 46.036 66.9936 41.2642 61.6406 38.3802C56.2876 35.4963 50.0533 34.7063 44.1502 36.1638C38.2471 37.6214 33.097 41.2224 29.7016 46.2665C26.3062 51.3106 24.9081 57.4372 25.7793 63.4549C26.6505 69.4726 29.7287 74.9512 34.4152 78.8252C39.1017 82.6993 45.0615 84.6919 51.1357 84.4155C57.2098 84.1391 62.9641 81.6135 67.2794 77.3298C69.5651 75.0603 71.3819 72.3632 72.6263 69.3923L72.6233 69.391Z" fill="#DEAF45"/>
<path d="M50.0034 85.712C64.2383 85.712 75.778 74.1723 75.778 59.9374C75.778 45.7025 64.2383 34.1628 50.0034 34.1628C35.7685 34.1628 24.2288 45.7025 24.2288 59.9374C24.2288 74.1723 35.7685 85.712 50.0034 85.712Z" stroke="#DEAF45" stroke-width="0.0653951" stroke-miterlimit="10"/>
<defs>
<linearGradient id="paint0_linear_37_8" x1="50" y1="0" x2="50" y2="120" gradientUnits="userSpaceOnUse">
<stop stop-color="#8794D6" stop-opacity="0.6"/>
<stop offset="1" stop-color="#42ACE8" stop-opacity="0.24"/>
</linearGradient>
</defs>
</svg>
