<svg width="81" height="81" viewBox="0 0 81 81" fill="none" xmlns="http://www.w3.org/2000/svg">
<rect x="0.972168" y="0.385498" width="80" height="80" rx="8.38" fill="#AB64FF"/>
<path d="M16.6576 38.6225V40.3601H21.5056V8.86572H8.01123V26.7745C10.5219 27.5784 12.7123 29.1592 14.2663 31.2887C15.8204 33.4182 16.6578 35.9863 16.6576 38.6225V38.6225Z" fill="#FF7744"/>
<path d="M16.621 42.0975V40.3599H11.7729V71.8542H25.2673V53.9455C22.7567 53.1415 20.5663 51.5608 19.0122 49.4313C17.4582 47.3018 16.6208 44.7337 16.621 42.0975V42.0975Z" fill="#72BB54"/>
<path d="M32.9023 38.6225V40.3601H37.7502V8.86572H24.2559V26.7745C26.7664 27.5787 28.9566 29.1595 30.5106 31.2889C32.0646 33.4183 32.9021 35.9863 32.9023 38.6225V38.6225Z" fill="#72BB54"/>
<path d="M32.8662 42.0975V40.3599H28.0166V71.8542H41.5126V53.9455C39.0019 53.1415 36.8115 51.5608 35.2575 49.4313C33.7035 47.3018 32.8661 44.7337 32.8662 42.0975V42.0975Z" fill="#FF7744"/>
<path d="M49.1044 38.6225V40.3601H53.954V8.86572H40.458V26.7745C42.9687 27.5784 45.159 29.1592 46.7131 31.2887C48.2671 33.4182 49.1045 35.9863 49.1044 38.6225V38.6225Z" fill="#FF7744"/>
<path d="M49.0667 42.0975V40.3599H44.2188V71.8542H57.7131V53.9455C55.2026 53.1413 53.0124 51.5605 51.4584 49.4311C49.9043 47.3017 49.0669 44.7336 49.0667 42.0975V42.0975Z" fill="#72BB54"/>
<path d="M65.2913 38.6225V40.3601H70.1409V8.86572H56.6465V26.7745C59.1569 27.5787 61.3469 29.1596 62.9006 31.289C64.4544 33.4185 65.2915 35.9865 65.2913 38.6225Z" fill="#72BB54"/>
<path d="M65.2561 42.0975V40.3599H60.4033V71.8542H73.8977V53.9455C71.388 53.1407 69.1986 51.5596 67.6455 49.4302C66.0924 47.3008 65.2557 44.7331 65.2561 42.0975Z" fill="#FF7744"/>
</svg>
