<svg width="100" height="120" viewBox="0 0 100 120" fill="none" xmlns="http://www.w3.org/2000/svg">
<rect width="100" height="120" rx="5" fill="url(#paint0_linear_37_9)"/>
<rect x="9.97803" y="19.8801" width="80.0438" height="80.2398" rx="10" fill="#B50B65"/>
<path d="M75.9052 43.1111V65.8479C75.9052 72.3569 73.3259 78.5993 68.7346 83.2018C64.1433 87.8044 57.9161 90.39 51.423 90.39V90.39C44.9311 90.3883 38.7056 87.8019 34.1157 83.1995C29.5258 78.5972 26.9473 72.3558 26.9473 65.8479V29.671" stroke="#FD4B01" stroke-width="0.914786" stroke-miterlimit="10"/>
<path d="M52.2411 85.2659C45.5328 85.2659 39.0992 82.5945 34.3557 77.8394C29.6121 73.0843 26.9473 66.6349 26.9473 59.9102" stroke="#FD4B01" stroke-width="0.914786" stroke-miterlimit="10"/>
<path d="M52.2411 80.2268C45.5328 80.2268 39.0992 77.5554 34.3557 72.8003C29.6121 68.0451 26.9473 61.5958 26.9473 54.871" stroke="#FD4B01" stroke-width="0.914786" stroke-miterlimit="10"/>
<path d="M52.2411 75.1862C45.5328 75.1862 39.0992 72.5148 34.3557 67.7597C29.6121 63.0046 26.9473 56.5552 26.9473 49.8304" stroke="#FD4B01" stroke-width="0.914786" stroke-miterlimit="10"/>
<path d="M52.2411 70.1392C45.5328 70.1392 39.0992 67.4678 34.3557 62.7126C29.6121 57.9575 26.9473 51.5082 26.9473 44.7834" stroke="#FD4B01" stroke-width="0.914786" stroke-miterlimit="10"/>
<path d="M52.2411 65.5414C45.5328 65.5414 39.0992 62.87 34.3557 58.1149C29.6121 53.3597 26.9473 46.9104 26.9473 40.1856" stroke="#FD4B01" stroke-width="0.914786" stroke-miterlimit="10"/>
<path d="M52.2411 60.0642C45.5328 60.0642 39.0992 57.3928 34.3557 52.6376C29.6121 47.8825 26.9473 41.4332 26.9473 34.7084" stroke="#FD4B01" stroke-width="0.914786" stroke-miterlimit="10"/>
<path d="M52.2411 55.0252C45.5328 55.0252 39.0992 52.3538 34.3557 47.5986C29.6121 42.8435 26.9473 36.3941 26.9473 29.6694" stroke="#FD4B01" stroke-width="0.914786" stroke-miterlimit="10"/>
<path d="M67.9152 76.9258L56.4641 70.298V83.5536L67.9152 76.9258Z" fill="#CF84F0"/>
<path d="M67.9152 63.6702L56.4641 57.0424V70.298L67.9152 63.6702Z" fill="#CF84F0"/>
<path d="M67.9152 50.413L56.4641 43.7852V57.0424L67.9152 50.413Z" fill="#CF84F0"/>
<path d="M67.9152 37.1573L56.4641 30.5295V43.7851L67.9152 37.1573Z" fill="#CF84F0"/>
<defs>
<linearGradient id="paint0_linear_37_9" x1="50" y1="0" x2="50" y2="120" gradientUnits="userSpaceOnUse">
<stop stop-color="#8794D6" stop-opacity="0.6"/>
<stop offset="1" stop-color="#42ACE8" stop-opacity="0.24"/>
</linearGradient>
</defs>
</svg>
