<svg width="100" height="120" viewBox="0 0 100 120" fill="none" xmlns="http://www.w3.org/2000/svg">
<rect width="100" height="120" rx="5" fill="url(#paint0_linear_37_10)"/>
<rect x="9.94556" y="19.8801" width="80.0438" height="80.2398" rx="10" fill="#F1F58F"/>
<path d="M23.6675 73.1991C23.6673 69.741 24.3483 66.3167 25.6715 63.1218C26.9948 59.9268 28.9344 57.0239 31.3795 54.5786C33.8247 52.1333 36.7276 50.1937 39.9225 48.8704C43.1173 47.5471 46.5415 46.8661 49.9995 46.8663C64.543 46.8663 76.333 58.6552 76.333 73.1991" stroke="#B686B8" stroke-width="3.92051" stroke-miterlimit="10"/>
<path d="M29.6135 73.199C29.6135 67.7748 31.7614 62.5728 35.5846 58.7373C39.4079 54.9018 44.5933 52.747 50.0002 52.747C55.4071 52.747 60.5925 54.9018 64.4157 58.7373C68.239 62.5728 70.3868 67.7748 70.3868 73.199" stroke="#E16338" stroke-width="3.92051" stroke-miterlimit="10"/>
<path d="M35.2981 73.1991C35.2981 69.2999 36.847 65.5604 39.6042 62.8033C42.3613 60.0461 46.1008 58.4972 50 58.4972C53.8992 58.4972 57.6387 60.0461 60.3958 62.8033C63.153 65.5604 64.7019 69.2999 64.7019 73.1991" stroke="#E89670" stroke-width="3.92051" stroke-miterlimit="10"/>
<defs>
<linearGradient id="paint0_linear_37_10" x1="50" y1="0" x2="50" y2="120" gradientUnits="userSpaceOnUse">
<stop stop-color="#8794D6" stop-opacity="0.6"/>
<stop offset="1" stop-color="#42ACE8" stop-opacity="0.24"/>
</linearGradient>
</defs>
</svg>
