<svg width="81" height="80" viewBox="0 0 81 80" fill="none" xmlns="http://www.w3.org/2000/svg">
<rect width="80.0652" height="80" rx="10" fill="#FF0066"/>
<path d="M70.7152 15.4543L9.44775 18.5887V12.3199H70.7152V15.4543Z" fill="#02B784"/>
<path d="M70.7152 20.2031L9.44775 23.0528V17.0687L70.7152 17.3535V20.2031Z" fill="#02B784"/>
<path d="M70.7152 24.9519L9.44775 27.5151V21.8175L70.7152 22.3871V24.9519Z" fill="#02B784"/>
<path d="M70.7152 29.6992L9.44775 31.9792V26.5664L70.7152 27.4208V29.6992Z" fill="#02B784"/>
<path d="M70.7152 34.4479L9.44775 36.4431V31.3135L70.7152 32.4543V34.4479Z" fill="#02B784"/>
<path d="M70.7152 39.1967L9.44775 40.9055V36.0623L70.7152 37.4879V39.1967Z" fill="#02B784"/>
<path d="M70.7152 43.9457L9.44775 45.3697V40.8113L70.7152 42.5201V43.9457Z" fill="#02B784"/>
<path d="M70.7152 48.6942L9.44775 49.8334V45.5598L70.7152 47.5534V48.6942Z" fill="#02B784"/>
<path d="M70.7152 53.4414L9.44775 54.2975V50.3086L70.7152 52.587V53.4414Z" fill="#02B784"/>
<path d="M70.7152 58.1903L9.44775 58.7599V55.0559L70.7152 57.6207V58.1903Z" fill="#02B784"/>
<path d="M70.7152 62.9391L9.44775 63.2239V59.8047L70.7152 62.6543V62.9391Z" fill="#02B784"/>
<path d="M70.7152 67.6878H9.44775V64.5535L70.7152 67.6878Z" fill="#02B784"/>
</svg>
