<svg width="80" height="81" viewBox="0 0 80 81" fill="none" xmlns="http://www.w3.org/2000/svg">
<rect x="0.15918" y="0.385498" width="79.8046" height="80" rx="8.47999" fill="#F1F58F"/>
<path d="M13.8394 53.5453C13.8392 50.0975 14.5181 46.6835 15.8374 43.4981C17.1567 40.3127 19.0905 37.4184 21.5284 34.9805C23.9663 32.5425 26.8605 30.6087 30.0458 29.2894C33.2311 27.97 36.645 27.2911 40.0927 27.2913C54.5927 27.2913 66.3475 39.0449 66.3475 53.5453" stroke="#B686B8" stroke-width="3.32459" stroke-miterlimit="10"/>
<path d="M19.7681 53.5454C19.7681 48.1374 21.9095 42.9509 25.7213 39.1269C29.5331 35.3029 34.7031 33.1545 40.0938 33.1545C45.4845 33.1545 50.6544 35.3029 54.4663 39.1269C58.2781 42.9509 60.4195 48.1374 60.4195 53.5454" stroke="#E16338" stroke-width="3.32459" stroke-miterlimit="10"/>
<path d="M25.4351 53.5454C25.4351 49.6579 26.9794 45.9296 29.7283 43.1807C32.4772 40.4318 36.2055 38.8875 40.093 38.8875C43.9806 38.8875 47.7089 40.4318 50.4578 43.1807C53.2067 45.9296 54.751 49.6579 54.751 53.5454" stroke="#E89670" stroke-width="3.32459" stroke-miterlimit="10"/>
</svg>
