<svg width="100" height="120" viewBox="0 0 100 120" fill="none" xmlns="http://www.w3.org/2000/svg">
<rect width="100" height="120" rx="5" fill="url(#paint0_linear_37_11)"/>
<rect x="9.91284" y="19.5511" width="80.1745" height="80.2398" rx="10" fill="#208D66"/>
<path d="M50.1846 81.8702C37.9708 81.8702 28.0339 71.9204 28.0339 59.7031H34.1513C34.1513 62.8771 35.0917 65.9798 36.8536 68.6189C38.6156 71.258 41.1198 73.3149 44.0498 74.5295C46.9798 75.7441 50.204 76.0619 53.3144 75.4427C56.4249 74.8235 59.282 73.2951 61.5245 71.0508C63.767 68.8064 65.2942 65.9469 65.9129 62.8339C66.5316 59.7209 66.2141 56.4942 65.0005 53.5618C63.7868 50.6295 61.7316 48.1231 59.0946 46.3597C56.4577 44.5964 53.3576 43.6552 50.1862 43.6552V37.5409C62.3999 37.5409 72.3367 47.4906 72.3367 59.7095C72.3367 71.9285 62.3983 81.8702 50.1846 81.8702Z" fill="#FCE93D"/>
<path d="M50.2373 75.7735C45.9748 75.7735 41.8869 74.0789 38.8728 71.0624C35.8588 68.0459 34.1655 63.9547 34.1655 59.6887C34.1655 55.4227 35.8588 51.3315 38.8728 48.315C41.8869 45.2985 45.9748 43.6038 50.2373 43.6038V49.7261C47.5972 49.7261 45.0652 50.7757 43.1984 52.6441C41.3316 54.5124 40.2829 57.0464 40.2829 59.6887C40.2829 62.3309 41.3316 64.8649 43.1984 66.7333C45.0652 68.6016 47.5972 69.6513 50.2373 69.6513V75.7735Z" fill="#0000FF"/>
<path d="M50.0177 87.7903V81.6728C62.1272 81.6728 71.9855 71.8129 71.9855 59.6871C71.9855 47.5612 62.1336 37.7014 50.0177 37.7014C37.9017 37.7014 28.0499 47.5612 28.0499 59.6871H21.939C21.939 44.1928 34.536 31.5871 50.0177 31.5871C65.4994 31.5871 78.0964 44.1928 78.0964 59.6871C78.0964 75.1814 65.4994 87.7903 50.0177 87.7903Z" fill="#FD4B01"/>
<defs>
<linearGradient id="paint0_linear_37_11" x1="50" y1="0" x2="50" y2="120" gradientUnits="userSpaceOnUse">
<stop stop-color="#8794D6" stop-opacity="0.6"/>
<stop offset="1" stop-color="#42ACE8" stop-opacity="0.24"/>
</linearGradient>
</defs>
</svg>
