<svg width="81" height="81" viewBox="0 0 81 81" fill="none" xmlns="http://www.w3.org/2000/svg">
<rect x="0.972168" y="0.385498" width="80" height="80" rx="8.08798" fill="#FADE00"/>
<path d="M29.7985 20.0353L20.623 10.8599L11.4476 20.0353L20.623 29.2107L29.7985 20.0353Z" fill="#72BB54"/>
<path d="M10.4121 30.2449C15.8276 30.2449 21.0213 32.3962 24.8507 36.2255C28.68 40.0549 30.8313 45.2486 30.8313 50.6641V50.6641H10.4121V30.2449Z" fill="#F34A0D"/>
<path d="M10.4121 50.6641C15.8276 50.6641 21.0213 52.8154 24.8507 56.6447C28.68 60.4741 30.8313 65.6678 30.8313 71.0833V71.0833H10.4121V50.6641Z" fill="#F34A0D"/>
<path d="M30.8315 9.82544H51.2507V30.2446C45.8352 30.2446 40.6415 28.0933 36.8122 24.264C32.9828 20.4347 30.8315 15.2409 30.8315 9.82544V9.82544Z" fill="#F34A0D"/>
<path d="M30.8315 30.2449C36.2471 30.2449 41.4408 32.3962 45.2701 36.2255C49.0994 40.0549 51.2507 45.2486 51.2507 50.6641V50.6641H30.8315V30.2449Z" fill="#F34A0D"/>
<path d="M30.8315 50.6641C36.2471 50.6641 41.4408 52.8154 45.2701 56.6447C49.0994 60.4741 51.2507 65.6678 51.2507 71.0833V71.0833H30.8315V50.6641Z" fill="#F34A0D"/>
<path d="M51.1567 9.82544H71.5759V30.2446C66.1604 30.2446 60.9667 28.0933 57.1374 24.264C53.308 20.4347 51.1567 15.2409 51.1567 9.82544Z" fill="#F34A0D"/>
<path d="M51.1567 30.2449C56.5722 30.2449 61.7659 32.3962 65.5953 36.2255C69.4246 40.0549 71.5759 45.2486 71.5759 50.6641H51.1567V30.2449Z" fill="#F34A0D"/>
<path d="M61.3662 69.2095C65.6122 69.2095 69.0542 65.7675 69.0542 61.5215C69.0542 57.2755 65.6122 53.8335 61.3662 53.8335C57.1203 53.8335 53.6782 57.2755 53.6782 61.5215C53.6782 65.7675 57.1203 69.2095 61.3662 69.2095Z" fill="#9642F4"/>
</svg>
