<svg width="81" height="81" viewBox="0 0 81 81" fill="none" xmlns="http://www.w3.org/2000/svg">
<rect x="0.48584" y="0.385498" width="80" height="80" rx="8.38" fill="#0054B6"/>
<path d="M26.5069 36.4403C26.5063 35.2233 26.2396 34.0211 25.7255 32.918C25.2113 31.815 24.4622 30.8377 23.5306 30.0546C22.599 29.2715 21.5074 28.7017 20.3324 28.3849C19.1573 28.0681 17.9272 28.0121 16.7282 28.2208C15.5292 28.4295 14.3904 28.8979 13.3915 29.5931C12.3926 30.2883 11.5578 31.1935 10.9456 32.2453C10.3334 33.2971 9.95855 34.4701 9.84739 35.682C9.73624 36.8939 9.89143 38.1155 10.3021 39.2611H26.0157C26.3412 38.3563 26.5074 37.4019 26.5069 36.4403V36.4403Z" fill="#D7B6B1"/>
<path d="M44.5888 15.4241C43.5485 15.4238 42.5173 15.6186 41.5488 15.9985V31.5441C42.6918 31.9915 43.9195 32.1814 45.1443 32.1002C46.3691 32.0189 47.5609 31.6685 48.6348 31.074C49.7087 30.4795 50.6382 29.6554 51.3572 28.6605C52.0762 27.6656 52.5669 26.5244 52.7944 25.3182C53.0218 24.112 52.9805 22.8704 52.6732 21.682C52.366 20.4936 51.8004 19.3875 51.0169 18.4427C50.2333 17.4979 49.2509 16.7375 48.1399 16.2157C47.0288 15.6939 45.8163 15.4236 44.5888 15.4241V15.4241Z" fill="#E3452F"/>
<path d="M36.6926 50.4849C35.4745 50.4855 34.2712 50.7529 33.1673 51.268C32.0634 51.7832 31.0857 52.5337 30.3027 53.4669C29.5197 54.4001 28.9505 55.4934 28.635 56.67C28.3194 57.8466 28.2653 59.078 28.4762 60.2778C28.6872 61.4775 29.1583 62.6166 29.8563 63.615C30.5543 64.6133 31.4623 65.4468 32.5167 66.0569C33.5711 66.667 34.7462 67.039 35.9596 67.1466C37.1731 67.2543 38.3953 67.095 39.5406 66.6801V50.9841C38.6276 50.6534 37.6638 50.4844 36.6926 50.4849V50.4849Z" fill="#409472"/>
<path d="M57.835 66.4083C62.445 66.4083 66.1822 62.6711 66.1822 58.0611C66.1822 53.451 62.445 49.7139 57.835 49.7139C53.225 49.7139 49.4878 53.451 49.4878 58.0611C49.4878 62.6711 53.225 66.4083 57.835 66.4083Z" fill="#FFFF00"/>
<path d="M39.3037 6.62573H6.72607V39.2033H39.3037V6.62573Z" stroke="white" stroke-width="0.549008" stroke-miterlimit="10"/>
<path d="M74.123 6.62573H41.5454V39.2033H74.123V6.62573Z" stroke="white" stroke-width="0.549008" stroke-miterlimit="10"/>
<path d="M39.3037 41.4255H6.72607V74.0031H39.3037V41.4255Z" stroke="white" stroke-width="0.549008" stroke-miterlimit="10"/>
<path d="M74.123 41.4255H41.5454V74.0031H74.123V41.4255Z" stroke="white" stroke-width="0.549008" stroke-miterlimit="10"/>
</svg>
