<svg width="100" height="120" viewBox="0 0 100 120" fill="none" xmlns="http://www.w3.org/2000/svg">
<rect width="100" height="120" rx="5" fill="url(#paint0_linear_37_13)"/>
<rect x="9.74829" y="19.9146" width="80.1745" height="80.2398" rx="10" fill="#F95E47"/>
<path d="M35.8419 89.3605C31.4731 89.3605 27.2832 87.6236 24.194 84.5319C21.1048 81.4401 19.3693 77.2468 19.3693 72.8745V71.0931C19.3693 68.9067 20.2371 66.8099 21.7819 65.2639C23.3266 63.7178 25.4218 62.8493 27.6064 62.8493C29.791 62.8493 31.8861 63.7178 33.4309 65.2639C34.9757 66.8099 35.8435 68.9067 35.8435 71.0931V89.3605H35.8419Z" fill="#C4C42A"/>
<path d="M57.8483 89.3605C53.4795 89.3605 49.2896 87.6236 46.2003 84.5319C43.1111 81.4401 41.3756 77.2468 41.3756 72.8745V71.0931C41.3756 68.9067 42.2435 66.8099 43.7882 65.2639C45.333 63.7178 47.4281 62.8493 49.6127 62.8493C51.7974 62.8493 53.8925 63.7178 55.4373 65.2639C56.982 66.8099 57.8499 68.9067 57.8499 71.0931V89.3605H57.8483Z" fill="#115ABF"/>
<path d="M80.4476 89.3605C76.0788 89.3605 71.8889 87.6236 68.7997 84.5319C65.7105 81.4401 63.975 77.2468 63.975 72.8745V71.0931C63.975 68.9067 64.8428 66.8099 66.3876 65.2639C67.9323 63.7178 70.0275 62.8493 72.2121 62.8493C74.3967 62.8493 76.4919 63.7178 78.0366 65.2639C79.5814 66.8099 80.4492 68.9067 80.4492 71.0931V89.3605H80.4476Z" fill="#C4C42A"/>
<path d="M35.8419 57.178C33.6787 57.178 31.5366 56.7516 29.5381 55.9231C27.5395 55.0946 25.7236 53.8802 24.194 52.3493C22.6644 50.8185 21.451 49.001 20.6232 47.0009C19.7953 45.0007 19.3693 42.8569 19.3693 40.6919V38.9106C19.3693 36.7242 20.2371 34.6273 21.7819 33.0813C23.3266 31.5353 25.4218 30.6668 27.6064 30.6668C29.791 30.6668 31.8861 31.5353 33.4309 33.0813C34.9757 34.6273 35.8435 36.7242 35.8435 38.9106V57.178H35.8419Z" fill="#79BDD8"/>
<path d="M57.8483 57.178C55.685 57.178 53.543 56.7516 51.5445 55.9231C49.5459 55.0946 47.73 53.8802 46.2003 52.3493C44.6707 50.8185 43.4574 49.001 42.6295 47.0009C41.8017 45.0007 41.3756 42.8569 41.3756 40.6919V38.9106C41.3756 36.7242 42.2435 34.6273 43.7882 33.0813C45.333 31.5353 47.4281 30.6668 49.6127 30.6668C51.7974 30.6668 53.8925 31.5353 55.4373 33.0813C56.982 34.6273 57.8499 36.7242 57.8499 38.9106V57.178H57.8483Z" fill="#FC8BCC"/>
<path d="M80.4476 57.178C76.0788 57.178 71.8889 55.4411 68.7997 52.3493C65.7105 49.2576 63.975 45.0643 63.975 40.6919V38.9106C63.975 36.7242 64.8428 34.6273 66.3876 33.0813C67.9323 31.5353 70.0275 30.6668 72.2121 30.6668C74.3967 30.6668 76.4919 31.5353 78.0366 33.0813C79.5814 34.6273 80.4492 36.7242 80.4492 38.9106V57.178H80.4476Z" fill="#FC8BCC"/>
<defs>
<linearGradient id="paint0_linear_37_13" x1="50" y1="0" x2="50" y2="120" gradientUnits="userSpaceOnUse">
<stop stop-color="#8794D6" stop-opacity="0.6"/>
<stop offset="1" stop-color="#42ACE8" stop-opacity="0.24"/>
</linearGradient>
</defs>
</svg>
