<svg width="81" height="81" viewBox="0 0 81 81" fill="none" xmlns="http://www.w3.org/2000/svg">
<rect x="0.48584" y="0.385498" width="80" height="80" rx="8.38" fill="#11A858"/>
<path d="M11.3525 12.1438H33.5157C38.2577 12.1438 42.9533 13.0778 47.3343 14.8926C51.7154 16.7073 55.696 19.3672 59.0491 22.7204C62.4021 26.0736 65.0618 30.0544 66.8764 34.4355C68.6909 38.8166 69.6247 43.5122 69.6245 48.2542V68.883H47.4645C42.7223 68.8834 38.0263 67.9497 33.6449 66.1351C29.2635 64.3206 25.2825 61.6608 21.9291 58.3075C18.5758 54.9543 15.9157 50.9734 14.101 46.5921C12.2863 42.2108 11.3523 37.5149 11.3525 32.7726V12.1438Z" fill="#F25144"/>
<path d="M21.2357 67.9938V73.6386H15.2212C13.1377 73.6386 11.1395 72.8109 9.66621 71.3377C8.19293 69.8644 7.36523 67.8662 7.36523 65.7826V60.1362H13.3748C15.4583 60.1367 17.4562 60.9645 18.9294 62.4377C20.4026 63.9109 21.2304 65.9088 21.2309 67.9922L21.2357 67.9938Z" fill="#C7B7FF"/>
<path d="M73.6864 14.9615V20.6079H67.6768C65.5933 20.6079 63.5951 19.7802 62.1218 18.3069C60.6485 16.8336 59.8208 14.8354 59.8208 12.7519V7.10547H65.8304C67.9138 7.10589 69.9118 7.93371 71.385 9.4069C72.8582 10.8801 73.686 12.8781 73.6864 14.9615V14.9615Z" fill="#FFC700"/>
</svg>
