<svg width="81" height="81" viewBox="0 0 81 81" fill="none" xmlns="http://www.w3.org/2000/svg">
<rect x="0.640137" y="0.385498" width="79.9349" height="80" rx="8.28634" fill="#FE6600"/>
<path d="M66.9929 36.5439L53.9379 40.3407L66.9929 44.1359L53.3976 44.0975L64.8554 51.4223L51.8229 47.5519L60.7548 57.8095L49.3385 50.4207L55.0219 62.7807L46.1475 52.4735L48.1203 65.9343L42.5073 53.5423L40.6112 67.0159L38.7151 53.5423L33.1021 65.9343L35.0749 52.4735L26.2021 62.7807L31.8839 50.4207L20.4676 57.8095L29.3995 47.5519L16.3669 51.4223L27.8248 44.0975L14.2295 44.1359L27.2845 40.3407L14.2295 36.5439L27.8248 36.5823L16.3669 29.2591L29.3995 33.1295L20.4676 22.8719L31.8839 30.2607L26.2021 17.9007L35.0749 28.2079L33.1021 14.7455L38.7151 27.1391L40.6112 13.6655L42.5073 27.1391L48.1203 14.7455L46.1475 28.2079L55.0219 17.9007L49.3385 30.2607L60.7548 22.8719L51.8229 33.1295L64.8554 29.2591L53.3976 36.5823L66.9929 36.5439Z" fill="#FF9FC2"/>
</svg>
